<?xml version="1.0" encoding="UTF-8" standalone="no"?>
<!-- Created with Inkscape (http://www.inkscape.org/) -->

<svg
   xmlns:dc="http://purl.org/dc/elements/1.1/"
   xmlns:cc="http://creativecommons.org/ns#"
   xmlns:rdf="http://www.w3.org/1999/02/22-rdf-syntax-ns#"
   xmlns:svg="http://www.w3.org/2000/svg"
   xmlns="http://www.w3.org/2000/svg"
   xmlns:sodipodi="http://sodipodi.sourceforge.net/DTD/sodipodi-0.dtd"
   xmlns:inkscape="http://www.inkscape.org/namespaces/inkscape"
   id="svg3039"
   version="1.1"
   inkscape:version="0.48.0 r9654"
   width="667"
   height="536"
   sodipodi:docname="Capture d’écran 2010-10-20 à 14.20.24.png">
  <metadata
     id="metadata3045">
    <rdf:RDF>
      <cc:Work
         rdf:about="">
        <dc:format>image/svg+xml</dc:format>
        <dc:type
           rdf:resource="http://purl.org/dc/dcmitype/StillImage" />
        <dc:title></dc:title>
      </cc:Work>
    </rdf:RDF>
  </metadata>
  <defs
     id="defs3043" />
  <sodipodi:namedview
     pagecolor="#ffffff"
     bordercolor="#666666"
     borderopacity="1"
     objecttolerance="10"
     gridtolerance="10"
     guidetolerance="10"
     inkscape:pageopacity="0"
     inkscape:pageshadow="2"
     inkscape:window-width="1356"
     inkscape:window-height="901"
     id="namedview3041"
     showgrid="false"
     inkscape:zoom="0.97761194"
     inkscape:cx="333.0072"
     inkscape:cy="226.86647"
     inkscape:window-x="0"
     inkscape:window-y="0"
     inkscape:window-maximized="0"
     inkscape:current-layer="svg3039" />
  <rect
     style="color:#000000;fill:#999999;stroke:#000000;stroke-width:1.55954091;stroke-miterlimit:4;stroke-dasharray:none;marker:none;visibility:visible;display:inline;overflow:visible;enable-background:accumulate"
     id="rect3049"
     width="39.664139"
     height="40.081161"
     x="564.67212"
     y="27.102787"
     rx="0"
     transform="matrix(1,0,-0.69206472,0.72183546,0,0)" />
  <path
     style="fill:#cccccc;stroke:#000000;stroke-width:1.325;stroke-linecap:butt;stroke-linejoin:miter;stroke-opacity:1;stroke-miterlimit:4;stroke-dasharray:none"
     d="m 557.66435,47.772455 -39.0582,-0.7233 -11.5728,402.878135 z"
     id="path3823"
     inkscape:connector-curvature="0" />
  <path
     style="fill:#cccccc;stroke:#000000;stroke-width:1.325;stroke-linecap:butt;stroke-linejoin:miter;stroke-opacity:1;stroke-miterlimit:4;stroke-dasharray:none"
     d="m 531.62555,506.3447 27.4854,-25.31551 -2.1699,-257.49482 z"
     id="path3825"
     inkscape:connector-curvature="0"
     sodipodi:nodetypes="cccc" />
  <path
     style="fill:#808080;stroke:#000000;stroke-width:1.325;stroke-linecap:butt;stroke-linejoin:miter;stroke-opacity:1;stroke-miterlimit:4;stroke-dasharray:none"
     d="m 558.38765,48.495755 -70.1601,461.465445 41.2281,-1.4466 56.4174,-487.504248 z"
     id="path3819"
     inkscape:connector-curvature="0" />
  <rect
     style="color:#000000;fill:#999999;fill-opacity:1;fill-rule:nonzero;stroke:#000000;stroke-width:1px;marker:none;visibility:visible;display:inline;overflow:visible;enable-background:accumulate"
     id="rect3827"
     width="44.174629"
     height="182.99492"
     x="84.589714"
     y="106.85223"
     transform="matrix(0.76956169,-0.63857247,0,1,0,0)" />
  <path
     style="fill:#4d4d4d;stroke:#000000;stroke-width:1px;stroke-linecap:butt;stroke-linejoin:miter;stroke-opacity:1"
     d="m 29.655303,53.558855 c 0,0 2.1699,149.031455 2.1699,177.931815 0,28.90036 20.378053,41.95141 46.291204,41.95141 25.913153,0 154.062913,0 154.062913,0 l 39.78151,-41.95141 -199.630823,0 -1.4466,-180.101715 z"
     id="path3829"
     inkscape:connector-curvature="0"
     sodipodi:nodetypes="czzccccc" />
  <path
     style="fill:#cccccc;stroke:#000000;stroke-width:1px;stroke-linecap:butt;stroke-linejoin:miter;stroke-opacity:1"
     d="m 220.60652,515.7476 23.8689,-23.1456 -2.3454,-143.41021 82.93131,-89.38961 0.4237,-45.67071 -32.5485,5.7864 -93.30571,122.96101 2.1699,156.23282 z"
     id="path3833"
     inkscape:connector-curvature="0"
     sodipodi:nodetypes="ccccccccc" />
  <path
     style="fill:#999999;stroke:#000000;stroke-width:1px;stroke-linecap:butt;stroke-linejoin:miter;stroke-opacity:1"
     d="M 72.505509,230.63574 99.81541,204.00527 c 0,0 191.54015,0 210.48032,0 18.94017,0 16.94908,14.15282 9.4029,21.699 -7.54618,7.54618 -73.35678,79.14318 -84.62611,90.41251 -11.26933,11.26933 -18.0825,16.21101 -18.0825,41.9514 0,25.74039 2.8932,159.84932 2.8932,159.84932 l -44.8446,1.4466 c 0,0 -1.4466,-143.50385 -1.4466,-160.57262 0,-17.06877 1.72486,-24.87046 18.8058,-41.9514 17.08094,-17.08094 78.1164,-86.07271 78.1164,-86.07271 z"
     id="path3831"
     inkscape:connector-curvature="0"
     sodipodi:nodetypes="cczzzzcczzcc" />
  <path
     style="fill:#333333;stroke:#000000;stroke-width:1px;stroke-linecap:butt;stroke-linejoin:miter;stroke-opacity:1"
     d="m 60.033905,25.350153 -30.378602,27.485402 43.398004,0 27.485403,-28.208702 z"
     id="path3835"
     inkscape:connector-curvature="0"
     sodipodi:nodetypes="ccccc" />
</svg>
