<?xml version="1.0" encoding="UTF-8" standalone="no"?>
<!-- Created with Inkscape (http://www.inkscape.org/) -->

<svg
   xmlns:dc="http://purl.org/dc/elements/1.1/"
   xmlns:cc="http://creativecommons.org/ns#"
   xmlns:rdf="http://www.w3.org/1999/02/22-rdf-syntax-ns#"
   xmlns:svg="http://www.w3.org/2000/svg"
   xmlns="http://www.w3.org/2000/svg"
   xmlns:xlink="http://www.w3.org/1999/xlink"
   xmlns:sodipodi="http://sodipodi.sourceforge.net/DTD/sodipodi-0.dtd"
   xmlns:inkscape="http://www.inkscape.org/namespaces/inkscape"
   width="210mm"
   height="297mm"
   id="svg2"
   version="1.1"
   inkscape:version="0.47 r22583"
   sodipodi:docname="Nouveau document 1">
  <defs
     id="defs4">
    <marker
       inkscape:stockid="Arrow1Mend"
       orient="auto"
       refY="0.0"
       refX="0.0"
       id="Arrow1Mend"
       style="overflow:visible;">
      <path
         id="path3630"
         d="M 0.0,0.0 L 5.0,-5.0 L -12.5,0.0 L 5.0,5.0 L 0.0,0.0 z "
         style="fill-rule:evenodd;stroke:#000000;stroke-width:1.0pt;marker-start:none;"
         transform="scale(0.4) rotate(180) translate(10,0)" />
    </marker>
    <linearGradient
       inkscape:collect="always"
       id="linearGradient3608">
      <stop
         style="stop-color:#818181;stop-opacity:1;"
         offset="0"
         id="stop3610" />
      <stop
         style="stop-color:#818181;stop-opacity:0;"
         offset="1"
         id="stop3612" />
    </linearGradient>
    <linearGradient
       id="linearGradient2826">
      <stop
         style="stop-color:#ffffff;stop-opacity:0;"
         offset="0"
         id="stop2828" />
      <stop
         style="stop-color:#7fe1ff;stop-opacity:0.97254902;"
         offset="1"
         id="stop2830" />
    </linearGradient>
    <inkscape:perspective
       sodipodi:type="inkscape:persp3d"
       inkscape:vp_x="0 : 526.18109 : 1"
       inkscape:vp_y="0 : 1000 : 0"
       inkscape:vp_z="744.09448 : 526.18109 : 1"
       inkscape:persp3d-origin="372.04724 : 350.78739 : 1"
       id="perspective10" />
    <linearGradient
       inkscape:collect="always"
       xlink:href="#linearGradient2826"
       id="linearGradient2832"
       x1="430.54477"
       y1="487.14789"
       x2="430.54477"
       y2="318.79074"
       gradientUnits="userSpaceOnUse" />
    <linearGradient
       inkscape:collect="always"
       xlink:href="#linearGradient3608"
       id="linearGradient3614"
       x1="134.28572"
       y1="282.36218"
       x2="96.97155"
       y2="282.36218"
       gradientUnits="userSpaceOnUse"
       gradientTransform="matrix(0.8761968,0,0,0.8761968,14.414231,9.1355309)" />
    <inkscape:perspective
       id="perspective4082"
       inkscape:persp3d-origin="0.5 : 0.33333333 : 1"
       inkscape:vp_z="1 : 0.5 : 1"
       inkscape:vp_y="0 : 1000 : 0"
       inkscape:vp_x="0 : 0.5 : 1"
       sodipodi:type="inkscape:persp3d" />
    <inkscape:perspective
       id="perspective4302"
       inkscape:persp3d-origin="0.5 : 0.33333333 : 1"
       inkscape:vp_z="1 : 0.5 : 1"
       inkscape:vp_y="0 : 1000 : 0"
       inkscape:vp_x="0 : 0.5 : 1"
       sodipodi:type="inkscape:persp3d" />
    <marker
       inkscape:stockid="Arrow1Mend"
       orient="auto"
       refY="0"
       refX="0"
       id="Arrow1Mend-3"
       style="overflow:visible">
      <path
         id="path3630-0"
         d="M 0,0 5,-5 -12.5,0 5,5 0,0 z"
         style="fill-rule:evenodd;stroke:#000000;stroke-width:1pt;marker-start:none"
         transform="matrix(-0.4,0,0,-0.4,-4,0)" />
    </marker>
    <inkscape:perspective
       id="perspective4330"
       inkscape:persp3d-origin="0.5 : 0.33333333 : 1"
       inkscape:vp_z="1 : 0.5 : 1"
       inkscape:vp_y="0 : 1000 : 0"
       inkscape:vp_x="0 : 0.5 : 1"
       sodipodi:type="inkscape:persp3d" />
  </defs>
  <sodipodi:namedview
     id="base"
     pagecolor="#ffffff"
     bordercolor="#666666"
     borderopacity="1.0"
     inkscape:pageopacity="0.0"
     inkscape:pageshadow="2"
     inkscape:zoom="1.979899"
     inkscape:cx="357.41794"
     inkscape:cy="708.39407"
     inkscape:document-units="px"
     inkscape:current-layer="layer1"
     showgrid="false"
     inkscape:window-width="1655"
     inkscape:window-height="981"
     inkscape:window-x="6"
     inkscape:window-y="0"
     inkscape:window-maximized="0" />
  <metadata
     id="metadata7">
    <rdf:RDF>
      <cc:Work
         rdf:about="">
        <dc:format>image/svg+xml</dc:format>
        <dc:type
           rdf:resource="http://purl.org/dc/dcmitype/StillImage" />
        <dc:title></dc:title>
      </cc:Work>
    </rdf:RDF>
  </metadata>
  <g
     inkscape:label="Calque 1"
     inkscape:groupmode="layer"
     id="layer1">
    <path
       style="fill:url(#linearGradient2832);stroke:#000000;stroke-width:1px;stroke-linecap:butt;stroke-linejoin:miter;stroke-opacity:1;fill-opacity:1"
       d="m 134.28571,414.97167 0,-264.03806 c 0,0 -27.14285,221.42857 404.28572,221.42857 27.99987,0 39.06885,0 39.06885,0 0,0 0,42.60949 0,42.60949"
       id="path2816"
       sodipodi:nodetypes="ccscc" />
    <rect
       style="fill:url(#linearGradient3614);fill-opacity:1;fill-rule:nonzero;stroke:none"
       id="rect2834"
       width="33.796165"
       height="345.9989"
       x="99.530495"
       y="73.790749"
       rx="16.27223"
       ry="0" />
    <path
       style="fill:none;stroke:#000000;stroke-width:2;stroke-linecap:butt;stroke-linejoin:miter;stroke-miterlimit:4;stroke-opacity:1;stroke-dasharray:8.00000001, 2;stroke-dashoffset:0;marker-end:url(#Arrow1Mend)"
       d="m 87.752009,376.60584 520.116731,0"
       id="path3616"
       sodipodi:nodetypes="cc" />
    <text
       xml:space="preserve"
       style="font-size:33.38988495px;font-style:normal;font-variant:normal;font-weight:normal;font-stretch:normal;fill:#000000;fill-opacity:1;stroke:none;font-family:Arial;-inkscape-font-specification:Arial"
       x="579.44946"
       y="357.88226"
       id="text4066"><tspan
         sodipodi:role="line"
         id="tspan4068"
         x="579.44946"
         y="357.88226">x</tspan></text>
    <path
       sodipodi:type="arc"
       style="fill:none;stroke:#000000;stroke-opacity:1"
       id="path4072"
       sodipodi:cx="135.86552"
       sodipodi:cy="177.57008"
       sodipodi:rx="77.276672"
       sodipodi:ry="77.276672"
       d="M 213.1422,177.57008 A 77.276672,77.276672 0 0 1 191.56893,231.1314 L 135.86552,177.57008 z"
       sodipodi:start="0"
       sodipodi:end="0.76579605"
       transform="translate(48.487322,94.954339)" />
    <path
       sodipodi:type="arc"
       style="fill:none;stroke:#000000;stroke-opacity:1"
       id="path4072-3"
       sodipodi:cx="135.86552"
       sodipodi:cy="177.57008"
       sodipodi:rx="77.276672"
       sodipodi:ry="77.276672"
       d="m 154.72161,252.51094 a 77.276672,77.276672 0 0 1 -18.40814,2.33452 l -0.44795,-77.27538 z"
       sodipodi:start="1.3243002"
       sodipodi:end="1.5649997"
       transform="translate(-1.2626988,2.0086844)" />
    <path
       style="fill:none;stroke:#000000;stroke-width:1.99999988;stroke-linecap:butt;stroke-linejoin:miter;stroke-miterlimit:4;stroke-opacity:1;stroke-dasharray:none;marker-end:url(#Arrow1Mend)"
       d="m 79.296975,378.59043 0,-195.52717"
       id="path4096" />
    <text
       xml:space="preserve"
       style="font-size:48px;font-style:normal;font-variant:normal;font-weight:normal;font-stretch:normal;fill:#000000;fill-opacity:1;stroke:none;font-family:Arial;-inkscape-font-specification:Arial"
       x="43.436558"
       y="283.63611"
       id="text4282"><tspan
         sodipodi:role="line"
         id="tspan4284"></tspan></text>
    <text
       xml:space="preserve"
       style="font-size:33.88818359px;font-style:normal;font-variant:normal;font-weight:normal;font-stretch:normal;fill:#000000;fill-opacity:1;stroke:none;font-family:Arial;-inkscape-font-specification:Arial"
       x="23.926008"
       y="251.31122"
       id="text4286"><tspan
         sodipodi:role="line"
         id="tspan4288"
         x="23.926008"
         y="251.31122">Z</tspan></text>
    <text
       xml:space="preserve"
       style="font-size:28.49717712px;font-style:normal;font-variant:normal;font-weight:normal;font-stretch:normal;fill:#000000;fill-opacity:1;stroke:none;font-family:Arial;-inkscape-font-specification:Arial"
       x="43.740921"
       y="263.16608"
       id="text4290"><tspan
         sodipodi:role="line"
         id="tspan4292"
         x="43.740921"
         y="263.16608">0</tspan></text>
    <path
       style="fill:none;stroke:#000000;stroke-width:1.99999988;stroke-linecap:butt;stroke-linejoin:miter;stroke-miterlimit:4;stroke-opacity:1;stroke-dasharray:3.99999976,1.99999988;marker-end:url(#Arrow1Mend);stroke-dashoffset:0"
       d="m 135.36045,418.51518 0,-374.231814"
       id="path4096-0"
       sodipodi:nodetypes="cc" />
    <text
       xml:space="preserve"
       style="font-size:24.96328163px;font-style:normal;font-variant:normal;font-weight:normal;font-stretch:normal;fill:#000000;fill-opacity:1;stroke:none;font-family:Arial;-inkscape-font-specification:Arial"
       x="114.16003"
       y="67.647911"
       id="text4286-4"><tspan
         sodipodi:role="line"
         id="tspan4288-5"
         x="114.16003"
         y="67.647911">Z</tspan></text>
    <path
       style="fill:#000000;fill-opacity:1;stroke:none"
       id="path4353"
       d="m 267.16508,295.63514 c -1.15633,0.94346 -1.95612,2.18501 -2.58389,3.52021 -0.43856,1.19217 -0.86812,2.48894 -0.5128,3.76656 0.21095,0.75851 0.4548,0.96727 0.91551,1.59493 1.6297,1.70464 3.85009,2.21767 6.09542,2.55 2.0462,0.23599 4.15075,0.21609 6.14361,-0.36287 0.39882,-0.11587 0.78285,-0.2776 1.17428,-0.4164 -0.63672,0.52936 2.93534,-1.50809 2.19331,-1.14732 -0.91798,0.44633 -1.73892,1.10428 -2.70356,1.43802 -0.37789,0.13074 0.60983,-0.51962 0.88571,-0.80908 0.70353,-0.73818 0.76071,-0.94774 1.26812,-1.81194 0.64295,-1.36092 1.00165,-2.89747 0.22716,-4.2906 -0.12059,-0.21691 -0.28969,-0.40305 -0.43453,-0.60458 -1.06582,-1.15508 -2.50821,-1.49818 -4.00519,-1.69007 -0.52646,0.0297 -0.84139,0.0175 -1.35256,0.16529 -0.20942,0.0605 -0.79461,0.35383 -0.60759,0.24184 5.54491,-3.32056 3.40267,-2.10804 2.12839,-0.86879 -1.30938,1.42862 -1.75116,3.27243 -2.0569,5.12939 -0.36632,2.71754 -0.0704,5.46446 0.15171,8.1813 0.24199,3.02823 0.5954,6.04441 1.03347,9.05011 0,0 -3.81768,2.01253 -3.81768,2.01253 l 0,0 c -0.40522,-3.02154 -0.73841,-6.05087 -1.01402,-9.08699 -0.23668,-2.73284 -0.57675,-5.49002 -0.2783,-8.23122 0.26614,-1.90294 0.64651,-3.81183 1.88522,-5.34786 1.89841,-2.1277 4.64411,-3.96505 7.56308,-3.80615 1.59554,0.26447 3.08664,0.73875 4.18933,1.99919 0.15994,0.23037 0.34553,0.4449 0.47981,0.69109 0.82416,1.51092 0.55695,3.16229 -0.10452,4.67275 -0.49316,0.93555 -0.52768,1.13154 -1.23489,1.94048 -1.55582,1.77961 -3.29961,2.38607 -5.57495,3.75565 -0.3587,0.21591 -0.72326,0.42379 -1.10064,0.60504 -0.37268,0.17899 -0.76408,0.31602 -1.14612,0.47403 -0.40099,0.12591 -0.79585,0.27328 -1.20296,0.37773 -2.03866,0.52302 -4.17134,0.50404 -6.24529,0.23966 -2.39842,-0.39812 -4.5853,-0.98608 -6.31627,-2.81384 -0.51532,-0.70219 -0.77668,-0.92842 -1.02816,-1.77327 -0.3993,-1.34143 -0.0251,-2.71395 0.40398,-3.99154 0.58219,-1.41833 1.27589,-2.57657 2.37536,-3.65505 0,0 4.20735,-1.69823 4.20735,-1.69823 z" />
    <text
       xml:space="preserve"
       style="font-size:32.14250946px;font-style:normal;font-variant:normal;font-weight:normal;font-stretch:normal;fill:#000000;fill-opacity:1;stroke:none;font-family:Achilles;-inkscape-font-specification:Achilles"
       x="137.34799"
       y="281.06125"
       id="text4355"><tspan
         sodipodi:role="line"
         id="tspan4357"
         x="137.34799"
         y="281.06125">o</tspan></text>
    <text
       xml:space="preserve"
       style="font-size:17.93034363px;font-style:normal;font-variant:normal;font-weight:normal;font-stretch:normal;fill:#000000;fill-opacity:1;stroke:none;font-family:Achilles;-inkscape-font-specification:Achilles"
       x="150.47456"
       y="287.07767"
       id="text4359"><tspan
         sodipodi:role="line"
         id="tspan4361"
         x="150.47456"
         y="287.07767">0</tspan></text>
  </g>
</svg>
