<?xml version="1.0" encoding="UTF-8" standalone="no"?>
<!-- Created with Inkscape (http://www.inkscape.org/) -->

<svg
   xmlns:dc="http://purl.org/dc/elements/1.1/"
   xmlns:cc="http://creativecommons.org/ns#"
   xmlns:rdf="http://www.w3.org/1999/02/22-rdf-syntax-ns#"
   xmlns:svg="http://www.w3.org/2000/svg"
   xmlns="http://www.w3.org/2000/svg"
   xmlns:sodipodi="http://sodipodi.sourceforge.net/DTD/sodipodi-0.dtd"
   xmlns:inkscape="http://www.inkscape.org/namespaces/inkscape"
   width="2205.8779"
   height="1672.673"
   id="svg6641"
   version="1.1"
   inkscape:version="0.48.0 r9654"
   sodipodi:docname="Nouveau document 11">
  <defs
     id="defs6643" />
  <sodipodi:namedview
     inkscape:document-units="mm"
     pagecolor="#ffffff"
     bordercolor="#666666"
     borderopacity="1.0"
     inkscape:pageopacity="0.0"
     inkscape:pageshadow="2"
     inkscape:zoom="0.28983896"
     inkscape:cx="1320.1504"
     inkscape:cy="1127.7857"
     inkscape:current-layer="layer1"
     id="namedview6645"
     showgrid="false"
     fit-margin-top="0"
     fit-margin-left="0"
     fit-margin-right="0"
     fit-margin-bottom="0"
     inkscape:window-width="1585"
     inkscape:window-height="843"
     inkscape:window-x="40"
     inkscape:window-y="40"
     inkscape:window-maximized="0" />
  <metadata
     id="metadata6647">
    <rdf:RDF>
      <cc:Work
         rdf:about="">
        <dc:format>image/svg+xml</dc:format>
        <dc:type
           rdf:resource="http://purl.org/dc/dcmitype/StillImage" />
        <dc:title></dc:title>
      </cc:Work>
    </rdf:RDF>
  </metadata>
  <g
     inkscape:label="Layer 1"
     inkscape:groupmode="layer"
     id="layer1"
     transform="translate(-35.513122,-22.332266)">
    <path
       style="fill:#1a1a1a;fill-opacity:1;fill-rule:nonzero;stroke:#000000;stroke-width:1.67244089;stroke-linecap:round;stroke-linejoin:bevel;stroke-miterlimit:4;stroke-opacity:1;stroke-dasharray:none;stroke-dashoffset:0"
       id="path6652"
       d="m 69.553289,108.49572 c 6.353113,15.55365 8.2727,32.38491 10.510371,48.89945 4.989095,36.31931 5.985645,73.03177 7.413024,109.61999 1.417542,50.61721 3.459433,101.21741 6.255772,151.77701 2.426113,42.36291 6.589554,84.59833 11.133274,126.77834 1.88903,18.72149 4.37172,37.3792 7.01309,56.00787 -0.28494,-1.16217 1.17588,7.3023 0.88511,5.98095 -1.99821,-1.10233 -4.69993,-1.42772 -5.99463,-3.30701 -0.58664,-0.85152 1.83268,-0.9749 2.80795,-1.31852 7.67049,-2.70257 17.43109,-3.66081 25.40678,-5.00203 37.24568,-5.95997 75.01584,-7.33432 112.64881,-8.66854 64.26504,-1.45943 128.51962,1.66644 192.70844,4.43105 56.57046,3.05548 113.19456,3.81501 169.82697,2.8584 36.85925,-0.83712 73.60009,-4.03405 110.36865,-6.52315 17.02045,-1.13548 34.21149,-2.18666 51.12288,0.74528 8.97082,1.55527 11.29868,2.62322 19.80806,5.36384 13.13672,5.06001 25.78904,11.21653 38.81078,16.55244 4.24926,1.79688 8.56476,3.47576 13.00647,4.73876 0.14829,0.038 0.29659,0.0759 0.44488,0.11384 6.30643,1.63425 3.99524,10.55289 -2.31119,8.91863 l 0,0 c -0.22149,-0.0579 -0.44299,-0.11577 -0.66449,-0.17365 -4.76555,-1.36656 -9.4086,-3.13563 -13.96908,-5.07235 -12.80816,-5.24849 -25.26448,-11.27207 -38.15876,-16.31353 -7.75355,-2.53185 -9.95794,-3.54346 -18.14258,-4.9901 -16.3107,-2.88294 -32.90596,-1.7597 -49.32474,-0.69097 -36.92393,2.49923 -73.82011,5.70847 -110.83537,6.54288 -56.81641,0.95864 -113.62465,0.19839 -170.37894,-2.86562 -63.94812,-2.75449 -127.96162,-5.87229 -191.98576,-4.4283 -37.23053,1.31822 -74.59836,2.66361 -111.44762,8.54683 -6.4624,1.08604 -9.55933,1.56301 -15.71633,2.74159 -1.61194,0.30856 -3.21991,0.63816 -4.82456,0.98261 -0.9037,0.19398 -1.80909,0.38549 -2.69975,0.63254 -0.4402,0.12211 -0.83427,0.53964 -1.28621,0.47309 -2.74276,-0.4039 -5.4048,-1.23758 -8.10721,-1.85636 -0.55137,-2.33801 -0.67681,-4.76267 -1.12056,-7.11925 -2.65558,-18.73071 -5.151063,-37.49064 -7.05133,-56.31455 C 91.145527,504.21813 86.967134,461.82353 84.533283,419.30089 81.734912,368.6914 79.688774,318.0414 78.270457,267.37426 76.854997,231.0795 75.876788,194.66019 70.933757,158.63147 68.81035,142.94043 67.057014,126.9266 61.084996,112.12498 c -2.56628,-5.98798 5.902012,-9.61725 8.468293,-3.62926 z"
       inkscape:connector-curvature="0" />
    <path
       style="fill:#1a1a1a;fill-opacity:1;fill-rule:nonzero;stroke:#000000;stroke-width:1.67244089;stroke-linecap:round;stroke-linejoin:bevel;stroke-miterlimit:4;stroke-opacity:1;stroke-dasharray:none;stroke-dashoffset:0"
       id="path6654"
       d="m 815.90393,560.41655 c 8.71323,14.69061 22.60429,26.09728 35.17815,37.40916 12.17686,11.76264 26.45615,22.07166 36.2812,36.0827 1.39685,1.99199 2.4966,4.17658 3.74491,6.26487 0.54899,2.37046 1.5909,4.67882 1.64696,7.11138 0.35063,15.21263 -18.79433,27.29861 -29.67828,34.86215 -11.50756,6.79245 -5.7056,3.93604 -17.33041,8.72086 -6.03777,2.44684 -9.49813,-6.09186 -3.46036,-8.53871 l 0,0 c 10.21649,-4.06457 4.99365,-1.56379 15.5446,-7.75588 7.53698,-5.20252 8.92614,-5.81724 15.69451,-11.81168 3.7232,-3.29747 9.68977,-8.14971 10.18456,-13.72612 0.12431,-1.40094 -0.3595,-2.78981 -0.53925,-4.18471 -1.00227,-1.7311 -1.86655,-3.54981 -3.00683,-5.19328 -9.46435,-13.64091 -23.49646,-23.51931 -35.24404,-34.98264 -8.43748,-7.59281 -16.85789,-15.1111 -24.5965,-23.43094 -3.93461,-4.23012 -7.41923,-8.03646 -10.54089,-12.87252 -0.96592,-1.4964 -1.66997,-3.14644 -2.50495,-4.71966 -2.28748,-6.09994 6.33914,-9.33492 8.62662,-3.23498 z"
       inkscape:connector-curvature="0" />
    <path
       style="fill:#1a1a1a;fill-opacity:1;fill-rule:nonzero;stroke:#000000;stroke-width:1.67244089;stroke-linecap:round;stroke-linejoin:bevel;stroke-miterlimit:4;stroke-opacity:1;stroke-dasharray:none;stroke-dashoffset:0"
       id="path6656"
       d="m 73.897618,91.907286 c -6.593153,8.885384 -11.895741,18.659354 -17.562953,28.147044 -4.584042,6.61542 -7.921622,14.01313 -12.30054,20.74434 -2.047016,-2.25816 -4.946483,-3.97046 -6.14105,-6.77449 -0.416142,-0.97681 1.534417,-1.46875 2.329489,-2.17246 1.145997,-1.01431 2.310192,-2.00846 3.49235,-2.98039 4.765089,-3.91767 9.670314,-7.42197 14.851378,-10.76304 8.501459,-4.93212 17.933795,-9.18092 27.414815,-3.96722 1.769398,0.97301 3.255845,2.38946 4.883768,3.58419 7.452248,6.96994 12.320685,15.97988 17.710345,24.5035 3.48088,5.50684 -4.30697,10.42955 -7.78784,4.92271 l 0,0 c -4.817963,-7.62471 -9.150513,-15.68661 -15.563553,-22.14183 -8.625526,-7.28678 -12.341732,-4.00089 -21.677753,0.85012 -6.005252,3.84179 -11.692137,8.02549 -17.049777,12.7391 -0.693025,0.60972 -1.143222,2.13444 -2.031155,1.88222 -3.017617,-0.85717 -5.410533,-3.17634 -8.1158,-4.76451 4.425505,-6.51709 7.447338,-13.97982 12.075719,-20.38683 5.881605,-9.8466 11.385603,-19.990109 18.278235,-29.177912 4.069723,-5.087155 11.264046,0.668303 7.194322,5.755458 z"
       inkscape:connector-curvature="0" />
    <path
       style="fill:#1a1a1a;fill-opacity:1;fill-rule:nonzero;stroke:#000000;stroke-width:1.67244089;stroke-linecap:round;stroke-linejoin:bevel;stroke-miterlimit:4;stroke-opacity:1;stroke-dasharray:none;stroke-dashoffset:0"
       id="path6658"
       d="m 102.59927,35.371525 c 0.71151,9.604147 0.80616,19.243036 0.94852,28.868806 0.40265,5.001855 -0.35412,10.10714 0.27505,15.096189 0.014,0.111319 0.17275,-0.290831 0.0675,-0.32976 -1.22087,-0.451643 -2.50981,-0.691978 -3.76472,-1.037967 2.09529,-9.962183 4.56858,-19.808716 7.64375,-29.514993 2.99573,-7.465412 5.18064,-15.919798 10.699,-22.06109 0.67621,-0.752543 1.49014,-1.368871 2.23521,-2.053306 0.93771,-0.378782 1.80632,-1.04095 2.81313,-1.136346 7.51559,-0.712108 9.54643,9.754777 10.82229,14.960456 2.5269,13.992689 1.04348,28.271231 -0.37166,42.299058 -1.28706,10.8469 -0.60664,5.430851 -2.04103,16.248175 -0.45362,3.420243 -5.29058,2.778718 -4.83695,-0.641522 l 0,0 c 1.42245,-10.722703 0.74801,-5.357077 2.02336,-16.096877 1.36271,-13.48111 2.82539,-27.20489 0.48331,-40.663454 -0.82596,-3.478817 -1.57148,-6.675604 -3.40014,-9.77573 -0.22828,-0.387012 -0.51189,-0.73861 -0.76627,-1.108994 -0.13309,-0.193797 -0.17119,-0.51525 -0.39615,-0.583537 -0.34647,-0.105168 -0.71844,0.09078 -1.07767,0.136169 -6.40669,5.512532 -8.50354,14.409499 -11.53541,21.951996 -1.86633,5.879036 -3.56373,11.755771 -4.97774,17.762229 -0.7287,3.09536 -1.28739,6.229988 -2.05355,9.316287 -0.26552,1.06957 -0.61067,2.117784 -0.916,3.176676 -1.62519,0.380715 -3.21319,1.292853 -4.875561,1.142144 -0.61985,-0.0562 -0.757536,-2.50761 -0.807688,-4.039751 -0.141441,-4.321012 0.03692,-8.652819 -0.120854,-12.973924 -0.140218,-9.487839 -0.233592,-18.988292 -0.924836,-28.455425 -0.343306,-3.433069 4.511789,-3.918578 4.855089,-0.485509 z"
       inkscape:connector-curvature="0" />
    <path
       style="fill:#1a1a1a;fill-opacity:1;fill-rule:nonzero;stroke:#000000;stroke-width:1.67244089;stroke-linecap:round;stroke-linejoin:bevel;stroke-miterlimit:4;stroke-opacity:1;stroke-dasharray:none;stroke-dashoffset:0"
       id="path6660"
       d="m 130.64856,87.472415 c 0.55258,8.307701 0.16884,16.668925 0.0714,24.992365 -0.11955,10.8127 -0.1622,21.62602 -0.18816,32.43928 -0.008,3.45019 -4.88758,3.43847 -4.8793,-0.0117 l 0,0 c 0.026,-10.8284 0.0688,-21.65686 0.18849,-32.48469 0.0949,-8.10284 0.45813,-16.24107 -0.034,-24.330031 -0.42794,-3.423549 4.41369,-4.028753 4.84163,-0.605204 z"
       inkscape:connector-curvature="0" />
    <path
       style="fill:#1a1a1a;fill-opacity:1;fill-rule:nonzero;stroke:#000000;stroke-width:1.67244089;stroke-linecap:round;stroke-linejoin:bevel;stroke-miterlimit:4;stroke-opacity:1;stroke-dasharray:none;stroke-dashoffset:0"
       id="path6662"
       d="m 699.43267,639.57505 c 8.36536,3.39095 14.77583,10.12668 20.64272,16.75075 7.81322,9.72871 11.97109,20.29892 14.86549,32.28009 0.72969,3.69966 3.01865,14.13096 -1.69129,16.44791 -1.02825,0.50583 -2.26686,0.33766 -3.4003,0.50648 -1.03743,-0.66054 -2.22791,-1.12698 -3.11231,-1.98163 -3.94169,-3.80913 -5.67594,-12.10854 -6.37115,-17.2784 -0.25004,-1.85944 -0.29877,-3.74043 -0.44816,-5.61064 -0.0298,-8.57421 1.85478,-17.13462 6.09394,-24.64319 0.73442,-1.30084 1.61834,-2.51141 2.42751,-3.76711 4.22897,-5.53931 9.49842,-10.19248 14.79816,-14.68234 2.63392,-2.22852 5.78552,1.49641 3.1516,3.72493 l 0,0 c -4.94293,4.17631 -9.85191,8.51215 -13.85806,13.61554 -0.71538,1.09107 -1.49818,2.14081 -2.14615,3.27322 -3.84562,6.72071 -5.57682,14.4055 -5.60215,22.10354 0.55225,7.44599 1.6058,13.87945 5.42045,20.37961 -0.60382,2.00441 0.76611,-0.0436 0.90546,-0.74689 0.67194,-3.39126 -0.39007,-6.88655 -0.91148,-10.19963 -2.65901,-11.09936 -6.55804,-21.17235 -13.77788,-30.19055 -5.24383,-5.94874 -10.93828,-12.03291 -18.32685,-15.29012 -3.31744,-0.94784 -1.977,-5.63941 1.34045,-4.69157 z"
       inkscape:connector-curvature="0" />
    <path
       style="fill:#1a1a1a;fill-opacity:1;fill-rule:nonzero;stroke:#000000;stroke-width:1.67244089;stroke-linecap:round;stroke-linejoin:bevel;stroke-miterlimit:4;stroke-opacity:1;stroke-dasharray:none;stroke-dashoffset:0"
       id="path6664"
       d="m 719.86457,613.67698 c 0.15189,0.32377 0.28244,0.65843 0.45566,0.97131 0.31365,0.56655 0.827,1.33006 1.32299,1.76619 0.25233,0.22188 0.68174,0.56884 0.94265,0.35711 0.0597,-0.0485 -0.0929,-0.12262 -0.13939,-0.18393 -1.83676,-0.4507 -0.56699,2.22585 -0.59723,2.42503 -0.0207,0.13623 -0.26788,0.0647 -0.40182,0.097 -1.28148,0.0922 -2.41134,0.48532 -3.53103,1.08035 -3.07665,1.56142 -5.28484,-2.78962 -2.20819,-4.35104 l 0,0 c 1.99227,-0.98324 4.01579,-1.6181 6.27198,-1.57944 1.36119,0.24597 2.95545,0.23044 3.78811,1.68965 1.61337,2.82742 -0.70815,4.71899 -3.02803,5.50885 -0.59252,-0.0284 -1.19865,0.0443 -1.77757,-0.0851 -2.95442,-0.66026 -4.63868,-3.61097 -5.72705,-6.15305 -1.09104,-3.27314 3.53788,-4.81611 4.62892,-1.54297 z"
       inkscape:connector-curvature="0" />
    <path
       style="fill:#1a1a1a;fill-opacity:1;fill-rule:nonzero;stroke:#000000;stroke-width:1.67244089;stroke-linecap:round;stroke-linejoin:bevel;stroke-miterlimit:4;stroke-opacity:1;stroke-dasharray:none;stroke-dashoffset:0"
       id="path6666"
       d="m 174.48431,206.57612 c 3.23294,4.56841 7.19618,8.5533 11.12852,12.51317 8.20595,7.99312 16.58773,15.78075 25.23716,23.29169 13.16209,11.2027 27.14396,21.37594 41.03921,31.63625 13.75904,10.02049 27.57774,19.97195 40.78486,30.71603 11.39976,9.60714 22.5204,19.53331 33.99316,29.05533 10.33707,8.57881 20.77762,17.03053 31.10122,25.6266 9.55524,8.41654 19.69203,16.11916 29.77024,23.88817 11.09018,8.56893 22.86371,16.18083 34.71484,23.63921 12.75209,7.52383 25.16149,15.5963 37.59849,23.62309 12.20975,8.01594 25.04302,15.01946 37.90457,21.9189 13.12352,6.87778 26.13234,13.96714 39.38428,20.59679 11.72333,5.7769 23.77247,10.8595 36.05575,15.31261 9.8634,3.332 19.50855,7.28222 29.36489,10.62496 5.03239,1.79711 10.18868,3.0278 15.50675,3.45417 3.43763,0.2941 3.02171,5.15565 -0.41593,4.86155 l 0,0 c -1.37276,-0.12375 -2.75549,-0.16488 -4.11827,-0.37126 -4.2757,-0.64752 -8.43173,-2.03684 -12.54121,-3.32418 -9.88612,-3.36006 -19.56668,-7.30935 -29.45985,-10.6583 -12.45939,-4.52074 -24.68409,-9.67256 -36.57536,-15.53593 -13.29288,-6.65137 -26.34383,-13.76006 -39.50766,-20.66073 -12.97704,-6.962 -25.92406,-14.0312 -38.24384,-22.11896 -12.42144,-8.01675 -24.81549,-16.07872 -37.5516,-23.59319 -11.98159,-7.54115 -23.8828,-15.24024 -35.0948,-23.90434 -10.12664,-7.80635 -20.31112,-15.54741 -29.91346,-24.00294 -10.32163,-8.59442 -20.76024,-17.04449 -31.09533,-25.6217 -11.4602,-9.51247 -22.57215,-19.4245 -33.9566,-29.02529 -13.14446,-10.6998 -26.90986,-20.5955 -40.60351,-30.57541 -13.99869,-10.33669 -28.08287,-20.58807 -41.3402,-31.87746 -8.73946,-7.59052 -17.2099,-15.45939 -25.50042,-23.53794 -4.05344,-4.08374 -8.13526,-8.19843 -11.476,-12.90282 -2.15532,-2.69414 1.65478,-5.74222 3.8101,-3.04807 z"
       inkscape:connector-curvature="0" />
    <path
       style="fill:#1a1a1a;fill-opacity:1;fill-rule:nonzero;stroke:#000000;stroke-width:1.67244089;stroke-linecap:round;stroke-linejoin:bevel;stroke-miterlimit:4;stroke-opacity:1;stroke-dasharray:none;stroke-dashoffset:0"
       id="path6668"
       d="m 1210.0684,159.89072 c 0.6176,10.2652 2.3638,20.42213 3.9801,30.56521 3.3013,21.40199 5.1656,43.00547 6.836,64.5869 2.0909,26.93387 2.9835,53.93961 4.2149,80.92124 0.8788,22.7434 2.2854,45.46114 3.3432,68.1958 1.0642,18.5673 1.6636,37.15505 2.4676,55.73421 0.677,15.06655 0.9224,30.14671 1.0578,45.22628 0.3235,11.8803 0.694,23.75767 1.4127,35.62088 0.6308,9.53579 0.8791,19.08889 1.0119,28.64256 0.042,9.95201 0.2276,19.90776 -0.062,29.85683 -0.044,9.50247 -1.5988,18.84927 -3.6696,28.09002 -1.892,7.63823 -4.2502,15.13858 -5.9213,22.83188 -0.4842,2.8087 -1.1676,5.83719 -1.1629,8.6112 2.5269,0.81129 -0.8383,-1.12357 -0.4174,-1.27211 0.117,-0.0413 4.3037,6e-4 4.7915,-0.0412 6.0389,-0.9227 11.9737,-2.36601 17.9174,-3.75255 10.1065,-2.47386 20.2722,-4.65471 30.5004,-6.55594 10.1507,-1.8 20.218,-4.00869 30.2144,-6.52007 8.7542,-2.42696 17.6132,-4.43007 26.4531,-6.51363 8.6592,-2.25311 17.4486,-3.91492 26.3295,-4.97539 8.8265,-1.26952 17.5808,0.2215 26.2604,1.74012 14.872,3.07338 29.6738,6.46912 44.5267,9.63196 26.6341,5.46211 53.6387,8.73984 80.6125,11.97444 38.4896,4.63668 77.1853,7.01797 115.8946,8.81704 48.6953,1.90224 97.4347,1.91282 146.1538,2.75505 49.7407,0.76282 99.415,3.47521 148.999,7.38276 36.256,3.14515 72.5054,6.60255 108.4459,12.39655 8.1089,1.46727 16.2438,3.02454 24.147,5.40248 1.2308,0.37033 2.4652,0.74972 3.6421,1.26639 0.6841,0.30034 1.648,0.47211 1.911,1.17146 0.4839,1.28684 0.053,2.74911 0.08,4.12367 -5.1446,1.03257 -2.6134,1.02612 -7.5928,0.12449 -3.3898,-0.64225 -2.4816,-5.43628 0.9083,-4.79403 l 0,0 c 3.2002,0.64019 2.8127,-0.40191 2.9851,1.48805 0.3112,1.04382 0.8905,2.04309 0.9335,3.13145 0.014,0.35024 -0.5136,-0.49924 -0.8351,-0.639 -1.0728,-0.46649 -2.191,-0.82608 -3.3111,-1.16378 -7.738,-2.33281 -15.7047,-3.85644 -23.645,-5.29412 -35.8093,-5.77754 -71.9287,-9.21061 -108.0524,-12.34939 -49.4844,-3.90048 -99.059,-6.60692 -148.7,-7.3684 -48.7665,-0.84317 -97.5533,-0.85329 -146.2959,-2.75959 -38.8278,-1.80526 -77.6417,-4.19512 -116.249,-8.84648 -27.1199,-3.25232 -54.2703,-6.55154 -81.0478,-12.04674 -14.7949,-3.15066 -29.5395,-6.52974 -44.3519,-9.59805 -8.2109,-1.43831 -16.4889,-2.90516 -24.842,-1.70127 -8.6992,1.03338 -17.3059,2.67342 -25.7871,4.8795 -8.8169,2.07812 -17.6528,4.07524 -26.3839,6.49678 -10.095,2.53494 -20.2609,4.76708 -30.5114,6.5849 -10.1556,1.88742 -20.2488,4.05394 -30.2835,6.51052 -6.1808,1.44184 -12.3536,2.94801 -18.6407,3.8649 -2.0478,0.15183 -6.6219,0.59952 -8.2942,-0.91399 -0.5607,-0.50754 -0.8559,-1.24722 -1.2839,-1.87084 -0.3437,-3.48528 0.7235,-6.98893 1.2138,-10.41415 1.6774,-7.70281 4.0161,-15.21885 5.9282,-22.8628 2.0064,-8.93643 3.5183,-17.97388 3.5534,-27.16526 0.2921,-9.87861 0.099,-19.76433 0.061,-29.64592 -0.1315,-9.47788 -0.3773,-18.95521 -1.0035,-28.41533 -0.7235,-11.94685 -1.0976,-23.90798 -1.4214,-35.87209 -0.1349,-15.02382 -0.3789,-30.04825 -1.0534,-45.05911 -0.8038,-18.57389 -1.403,-37.15637 -2.4669,-55.71841 -1.0577,-22.73611 -2.4649,-45.45526 -3.3434,-68.20012 -1.229,-26.93025 -2.1195,-53.8846 -4.2054,-80.76724 -1.6594,-21.45049 -3.511,-42.92314 -6.7898,-64.19554 -1.6565,-10.39582 -3.45,-20.80869 -4.0409,-31.33301 0,-3.45019 4.8793,-3.45019 4.8793,0 z"
       inkscape:connector-curvature="0" />
    <path
       style="fill:#1a1a1a;fill-opacity:1;fill-rule:nonzero;stroke:#000000;stroke-width:1.67244089;stroke-linecap:round;stroke-linejoin:bevel;stroke-miterlimit:4;stroke-opacity:1;stroke-dasharray:none;stroke-dashoffset:0"
       id="path6670"
       d="m 1212.4427,155.14487 c -5.2399,8.05663 -11.0205,15.74525 -16.9686,23.28884 -1.3633,1.69107 -3.2847,4.01337 -4.6009,5.84297 -0.2971,0.41301 -0.434,1.62207 -0.8181,1.28851 -1.2269,-1.06526 -2.3452,-2.562 -2.5103,-4.17844 -0.095,-0.93354 1.2585,-1.39261 1.8683,-2.10584 0.8943,-1.04584 1.7623,-2.11383 2.6434,-3.17075 4.8046,-5.42946 8.9968,-12.04151 15.514,-15.64758 1.0758,-0.59527 2.2648,-0.95795 3.3972,-1.43693 1.2553,-0.12144 2.5073,-0.44483 3.7659,-0.36431 7.1161,0.45529 12.0812,6.79107 16.4424,11.64265 1.0936,1.24131 2.1872,2.48263 3.2807,3.72395 2.2807,2.58891 -1.3806,5.81424 -3.6612,3.22533 l 0,0 c -1.0833,-1.22976 -2.1666,-2.45953 -3.2499,-3.6893 -3.1374,-3.49792 -7.4706,-9.26171 -12.5033,-10.0331 -0.7385,-0.11319 -1.4942,0.011 -2.2413,0.0166 -0.8274,0.31562 -1.7009,0.53004 -2.4823,0.94686 -6.1647,3.28872 -9.9567,9.73304 -14.5156,14.74172 -0.9192,1.10095 -1.8193,2.21819 -2.7577,3.30287 -0.7327,0.84688 -1.1363,2.42929 -2.2545,2.49065 -1.7565,0.0964 -3.5834,-0.8713 -4.8412,-2.10125 -0.4577,-0.44756 0.6706,-1.09188 1.0445,-1.61149 1.3262,-1.84312 3.2664,-4.19013 4.6486,-5.90447 5.8687,-7.44095 11.5725,-15.0252 16.74,-22.97401 1.9139,-2.87073 5.9737,-0.16418 4.0599,2.70656 z"
       inkscape:connector-curvature="0" />
    <path
       style="fill:#1a1a1a;fill-opacity:1;fill-rule:nonzero;stroke:#000000;stroke-width:1.67244089;stroke-linecap:round;stroke-linejoin:bevel;stroke-miterlimit:4;stroke-opacity:1;stroke-dasharray:none;stroke-dashoffset:0"
       id="path6672"
       d="m 2039.7247,663.1081 c 3.626,4.97003 8.5858,8.7792 13.1731,12.81534 3.9236,3.76187 7.8536,7.60406 10.396,12.4794 1.5978,3.06399 1.7091,4.05223 2.6806,7.36721 1.381,7.72877 -0.4317,15.27395 -3.9115,22.17666 -1.6416,2.65398 -0.7632,1.4348 -2.6002,3.68242 -2.2132,2.64681 -5.9564,-0.48311 -3.7432,-3.12992 l 0,0 c 1.3663,-1.58018 0.6768,-0.67389 1.9978,-2.77134 2.9823,-5.7511 4.5517,-12.12344 3.5678,-18.60946 -0.7779,-2.76838 -0.8751,-3.64418 -2.1751,-6.20484 -2.2616,-4.45495 -5.8987,-7.89192 -9.4353,-11.32689 -4.9066,-4.31709 -10.1893,-8.40699 -14.0098,-13.77203 -1.9139,-2.87073 2.146,-5.57729 4.0598,-2.70655 z"
       inkscape:connector-curvature="0" />
    <path
       style="fill:#1a1a1a;fill-opacity:1;fill-rule:nonzero;stroke:#000000;stroke-width:1.67244089;stroke-linecap:round;stroke-linejoin:bevel;stroke-miterlimit:4;stroke-opacity:1;stroke-dasharray:none;stroke-dashoffset:0"
       id="path6674"
       d="m 1258.7007,155.28083 c -0.6047,6.46667 -0.7629,12.96519 -0.9225,19.45497 -0.053,2.22646 -0.087,4.45328 -0.1206,6.68009 0,0.28993 0.2623,0.95763 -0.014,0.86978 -5.4606,-1.73588 -4.6481,-1.23042 -3.6136,-4.97393 2.5659,-10.32185 6.7757,-20.00401 12.192,-29.12295 2.1205,-2.76746 6.8923,-10.68057 11.5618,-9.03212 3.6102,1.27447 3.7018,4.02771 4.7654,7.10446 2.6712,16.15113 0.4734,32.618 -1.8955,48.66634 -2.0381,11.80398 -0.929,6.01658 -3.3073,17.36602 -0.7082,3.37672 -5.4836,2.37514 -4.7754,-1.00158 l 0,0 c 2.3386,-11.13953 1.2459,-5.4483 3.2559,-17.07793 2.272,-15.34874 4.3821,-31.07381 2.0505,-46.54474 -0.21,-0.91391 -0.5456,-1.80782 -0.6302,-2.74174 -0.036,-0.3946 0.9331,-1.72555 -0.085,-1.416 -2.8754,0.87395 -4.9493,5.16864 -6.7476,7.17377 -5.2151,8.73344 -9.2196,18.02971 -11.6812,27.92616 -1.0671,3.86114 -0.1073,3.55145 -5.9681,3.59541 -0.2876,0.002 0.01,-0.57505 0.014,-0.86259 0.034,-2.24294 0.068,-4.48589 0.1215,-6.72849 0.1633,-6.62963 0.3268,-13.26824 0.9509,-19.87376 0.381,-3.42909 5.2305,-2.89026 4.8495,0.53883 z"
       inkscape:connector-curvature="0" />
    <path
       style="fill:#1a1a1a;fill-opacity:1;fill-rule:nonzero;stroke:#000000;stroke-width:1.67244089;stroke-linecap:round;stroke-linejoin:bevel;stroke-miterlimit:4;stroke-opacity:1;stroke-dasharray:none;stroke-dashoffset:0"
       id="path6676"
       d="m 1322.3965,273.07462 c 5.131,-1.4883 10.348,-2.59434 15.625,-3.40673 8.9386,-1.47667 17.9975,-1.97758 27.0238,-2.6196 12.9321,-0.83191 25.8951,-0.95594 38.8491,-1.07038 14.4218,-0.10714 28.7524,1.43006 42.8983,4.1302 12.6318,2.63366 24.6931,7.25872 36.3071,12.79529 10.1211,4.8191 19.1707,11.36331 27.5295,18.76658 5.4391,4.91456 10.3599,10.41452 14.4603,16.50054 2.3365,3.46799 3.501,5.73813 5.53,9.38021 5.0895,9.2205 7.6487,19.42374 10.1355,29.56891 2.5429,10.02212 4.4782,20.17374 6.4525,30.31768 1.508,9.55279 3.3845,19.03015 5.6065,28.44061 2.192,8.63809 4.9472,17.14703 7.9941,25.52074 2.7822,7.77354 6.4516,15.18887 10.5371,22.35019 4.3131,7.20873 9.7913,13.56603 15.5503,19.63883 6.0999,6.04442 12.2937,11.98926 18.9124,17.46524 5.8453,4.87603 12.5944,8.45282 19.5898,11.36539 7.7549,3.17593 15.9941,4.73538 24.1883,6.2794 7.2856,1.34282 14.4977,2.91562 21.5665,5.14055 6.5551,2.56079 13.5043,3.56136 20.439,4.45575 8.698,0.79761 17.4043,1.53661 26.1268,2.01424 9.8672,0.656 19.7244,1.45035 29.5936,2.07493 11.1965,0.81504 22.3356,2.33487 33.4353,3.99178 10.8984,1.59968 21.6563,3.88373 32.2524,6.87352 9.0541,2.53468 17.884,5.76719 26.7515,8.8737 5.6562,1.31122 11.1012,4.44355 17.0006,4.47874 0.3431,-0.082 0.6863,-0.16406 1.0294,-0.24609 3.3918,-0.63231 4.286,4.16436 0.8942,4.79667 l 0,0 c -0.6819,0.10907 -1.3638,0.21813 -2.0457,0.3272 -6.4301,-0.24332 -12.3568,-3.05429 -18.4917,-4.75161 -8.7726,-3.07327 -17.507,-6.27421 -26.4639,-8.78282 -10.3967,-2.93637 -20.9535,-5.17298 -31.6475,-6.74351 -10.9627,-1.63768 -21.9647,-3.13944 -33.0229,-3.94803 -9.8554,-0.6243 -19.699,-1.41604 -29.5524,-2.07249 -8.8421,-0.48527 -17.6684,-1.23121 -26.4851,-2.04718 -7.2181,-0.93486 -14.4528,-1.99197 -21.2806,-4.64124 -6.8822,-2.17299 -13.9092,-3.68654 -21.003,-4.99919 -8.53,-1.60754 -17.1001,-3.25654 -25.1681,-6.57311 -7.4292,-3.1221 -14.6079,-6.91039 -20.8181,-12.10824 -6.7661,-5.60557 -13.1101,-11.67678 -19.3421,-17.867 -6.0249,-6.3597 -11.7466,-13.02557 -16.248,-20.57904 -4.2171,-7.40349 -8.0099,-15.06558 -10.8838,-23.09963 -3.1067,-8.55425 -5.9264,-17.24189 -8.1572,-26.06667 -2.2358,-9.47325 -4.1309,-19.0128 -5.6471,-28.62946 -1.9594,-10.06718 -3.8777,-20.14237 -6.4022,-30.0885 -2.3819,-9.72232 -4.7953,-19.51397 -9.66,-28.35776 -1.8731,-3.37049 -3.0653,-5.68335 -5.2149,-8.88612 -3.8927,-5.79989 -8.5716,-11.03968 -13.7495,-15.71682 -8.0069,-7.1127 -16.6896,-13.38532 -26.3935,-18.0134 -11.2324,-5.36731 -22.9039,-9.84302 -35.1218,-12.4063 -13.8282,-2.64903 -27.8398,-4.14293 -41.9389,-4.04356 -12.8529,0.11344 -25.7147,0.23496 -38.546,1.05828 -8.8946,0.63239 -17.8221,1.12111 -26.6303,2.5755 -5.006,0.76451 -9.9504,1.81924 -14.8216,3.21273 -3.2732,1.09105 -4.8162,-3.53787 -1.543,-4.62892 z"
       inkscape:connector-curvature="0" />
    <path
       style="fill:#1a1a1a;fill-opacity:1;fill-rule:nonzero;stroke:#000000;stroke-width:1.67244089;stroke-linecap:round;stroke-linejoin:bevel;stroke-miterlimit:4;stroke-opacity:1;stroke-dasharray:none;stroke-dashoffset:0"
       id="path6678"
       d="m 2086.9427,621.73316 c 6.2197,4.0959 11.8698,9.23513 16.0999,15.4005 1.2372,1.80326 2.2801,3.7324 3.4202,5.5986 5.2511,10.44806 8.2032,22.01016 8.4704,33.71973 0.048,2.11018 -0.1183,4.2198 -0.1775,6.3297 -0.626,4.84247 -2.1045,17.68687 -8.2893,19.20604 -1.2334,0.30295 -2.5371,-0.12301 -3.8057,-0.18451 -1.0521,-0.8355 -2.302,-1.46967 -3.1565,-2.50651 -4.0595,-4.92605 -4.8019,-14.80668 -4.5233,-20.82804 0.1011,-2.18554 0.4405,-4.35354 0.6607,-6.53031 1.933,-9.65204 5.9497,-19.00076 13.4576,-25.64081 1.1813,-1.04473 2.5199,-1.8967 3.7799,-2.84505 5.4844,-4.01624 12.5515,-4.30073 18.4163,-7.40328 3.0716,-1.57124 5.2937,2.77273 2.222,4.34397 l 0,0 c -0.8949,0.44629 -1.7597,0.95892 -2.6848,1.33889 -4.951,2.03372 -10.5538,2.47074 -15.0431,5.63663 -1.0713,0.78424 -2.2103,1.48353 -3.214,2.35272 -6.7356,5.83317 -10.2904,14.16855 -12.0805,22.71873 -0.8731,8.25225 -1.5002,17.23358 3.1512,24.58429 0.4573,0.69497 0.5201,1.27622 1.6172,0.32104 3.4927,-3.04098 3.8818,-10.57704 4.6152,-14.70975 0.062,-1.94875 0.226,-3.89689 0.1869,-5.84625 -0.2191,-10.93062 -2.9313,-21.74108 -7.7724,-31.52305 -1.0382,-1.71779 -1.9886,-3.4918 -3.1146,-5.15338 -3.789,-5.59135 -8.8785,-10.2081 -14.4179,-14.01571 -3.0859,-1.54297 -0.9038,-5.90716 2.1821,-4.36419 z"
       inkscape:connector-curvature="0" />
    <path
       style="fill:#1a1a1a;fill-opacity:1;fill-rule:nonzero;stroke:#000000;stroke-width:1.67244089;stroke-linecap:round;stroke-linejoin:bevel;stroke-miterlimit:4;stroke-opacity:1;stroke-dasharray:none;stroke-dashoffset:0"
       id="path6680"
       d="m 2148.4301,587.74876 c -0.3483,0.68086 -0.6966,1.36172 -1.045,2.04258 -1.5747,3.06985 -5.9161,0.84282 -4.3414,-2.22703 l 0,0 c 0.3833,-0.74546 0.7667,-1.49091 1.15,-2.23636 1.7118,-2.99561 5.9482,-0.57479 4.2364,2.42081 z"
       inkscape:connector-curvature="0" />
    <path
       style="fill:#1a1a1a;fill-opacity:1;fill-rule:nonzero;stroke:#000000;stroke-width:1.67244089;stroke-linecap:round;stroke-linejoin:bevel;stroke-miterlimit:4;stroke-opacity:1;stroke-dasharray:none;stroke-dashoffset:0"
       id="path6682"
       d="m 2141.8697,584.12671 c -5.016,-0.80026 -9.539,1.34698 -13.5485,4.13765 -3.0671,3.00591 -5.8853,7.24701 -5.9144,11.73266 0,0.5635 0.173,1.11366 0.2596,1.67048 0.2326,0.30278 0.398,0.67196 0.6979,0.90833 2.2409,1.76634 5.5729,-1.92481 6.8572,-3.20101 2.3656,-3.23021 4.7172,-7.9814 2.4074,-11.89429 -0.3384,-0.57318 -0.8575,-1.01825 -1.2862,-1.52737 -3.2311,-2.2781 -7.1204,-2.15613 -10.0215,0.65013 -0.6373,0.61652 -1.1321,1.36509 -1.6982,2.04764 -1.9607,3.57554 -4.2743,9.08689 -0.984,12.67525 0.5063,0.55209 1.1821,0.92036 1.7731,1.38054 4.5154,2.16217 9.6888,1.18131 13.2983,-2.3105 0.6918,-0.66922 1.2198,-1.48917 1.8298,-2.23375 1.0659,-2.81662 0.9351,-1.44867 0.6514,-4.07077 0,-3.4502 4.8821,-3.44633 4.8793,0.004 l 0,0 c -0.2709,5.03739 0.3278,2.62053 -1.8266,7.24294 -0.8854,0.99937 -1.6596,2.10957 -2.6562,2.9981 -4.1899,3.7356 -10.2877,5.46128 -15.7466,3.79158 -1.2997,-0.39754 -2.4474,-1.1831 -3.671,-1.77465 -0.9408,-0.90144 -2.0498,-1.65514 -2.8223,-2.70432 -4.1435,-5.62719 -1.6512,-12.92214 1.6104,-18.21999 0.8714,-0.95252 1.6261,-2.0268 2.6143,-2.85755 3.9022,-3.2805 9.3028,-4.10735 13.86,-1.64509 1.0358,0.55968 1.8847,1.41169 2.8271,2.11753 0.6662,0.96532 1.4926,1.83785 1.9986,2.89596 2.7969,5.84811 0.022,12.3102 -3.6762,16.97206 -2.0039,1.8443 -3.0203,3.1503 -5.6453,4.11975 -3.1994,1.18161 -6.6893,0.69167 -8.8638,-2.13337 -0.6065,-0.78788 -0.8385,-1.80308 -1.2578,-2.70463 -0.079,-0.96773 -0.2797,-1.93321 -0.2366,-2.9032 0.2601,-5.86688 3.7965,-11.23487 7.9908,-15.05584 5.3561,-3.60126 10.3891,-5.85547 16.99,-4.9384 3.4155,0.48793 2.7255,5.3182 -0.69,4.83027 z"
       inkscape:connector-curvature="0" />
    <path
       style="fill:#1a1a1a;fill-opacity:1;fill-rule:nonzero;stroke:#000000;stroke-width:1.67244089;stroke-linecap:round;stroke-linejoin:bevel;stroke-miterlimit:4;stroke-opacity:1;stroke-dasharray:none;stroke-dashoffset:0"
       id="path6684"
       d="m 638.90486,963.0846 c 5.74347,21.96718 8.42039,44.5183 10.38208,67.0865 2.70997,41.3163 2.63394,82.7538 2.81367,124.1398 0.12144,51.2418 0.0588,102.4837 0.0299,153.7255 -0.0236,39.4673 -0.0355,78.9345 -0.0417,118.4018 0.49889,27.564 -0.3067,55.0875 -3.52393,82.4708 -2.65137,23.4581 -6.70296,46.6859 -11.35261,69.816 -2.34953,13.5966 -5.80341,26.9587 -8.15085,40.5553 0.31801,3.4078 -2.00481,7.5145 -1.17488,10.9348 0.0844,0.3476 0.0596,-0.7131 0.0894,-1.0696 2.44168,-0.2609 -2.07406,-2.2336 -1.20451,-2.6923 0.53855,-0.2842 1.21025,0.1363 1.8167,0.1909 1.16797,0.1051 2.33579,0.2157 3.50625,0.2879 5.44048,0.3359 3.96586,0.2512 9.53993,-0.056 17.65212,-2.6497 34.74885,-8.1642 51.98762,-12.6851 32.15886,-7.8115 65.33845,-9.4146 98.29396,-9.8411 43.05467,0.9597 85.78467,7.6443 128.44598,13.139 43.9067,5.2013 87.97723,8.9248 132.12423,11.292 36.5931,1.2316 73.1788,2.2832 109.6546,5.5829 33.1583,3.4955 66.2846,6.905 99.5867,8.6699 32.1321,1.2915 64.2826,1.3824 96.417,2.6098 31.1112,1.3743 62.2477,1.9013 93.3846,2.2074 32.7981,1.1788 65.4654,-0.5342 98.1604,-2.8873 27.3685,-2.9871 54.785,-5.2435 82.2905,-6.4048 24.5671,-0.8602 49.1526,-0.8877 73.7316,-0.9231 19.895,-0.01 39.7901,0.026 59.6851,0.042 18.1307,-0.1746 36.2771,0.4459 54.3932,-0.3886 18.5595,-1.2831 37.1403,-2.1392 55.7358,-2.6534 13.3244,-0.3262 26.6529,-0.3929 39.9806,-0.4139 9.2566,0 18.5133,0.01 27.7699,0.015 4.0481,0 8.0963,0.01 12.1444,0.01 5.4501,0 0.949,-0.3503 -0.264,13.801 -9.7586,-3e-4 -9.7582,-13.801 4e-4,-13.8008 l 0,0 c 1.2097,14.1445 5.7108,13.8004 0.2576,13.8005 -4.0499,0 -8.0998,0 -12.1498,-0.01 -9.2456,-0.01 -18.4912,-0.02 -27.7368,-0.015 -13.2079,0.021 -26.4166,0.086 -39.6212,0.4087 -18.5146,0.511 -37.0141,1.3699 -55.4929,2.6445 -18.3298,0.8157 -36.6847,0.2572 -55.0285,0.4028 -19.8847,-0.016 -39.7693,-0.048 -59.654,-0.042 -24.3918,0.035 -48.7901,0.061 -73.1702,0.9108 -27.3694,1.1518 -54.6473,3.4205 -81.881,6.3814 -33.0693,2.3797 -66.1141,4.1002 -99.2868,2.9223 -31.2674,-0.3077 -62.5343,-0.8374 -93.7758,-2.2168 -32.2025,-1.2307 -64.4215,-1.3122 -96.6214,-2.6191 -33.4733,-1.7786 -66.7725,-5.1852 -100.1007,-8.7069 -36.3065,-3.2951 -72.7257,-4.3014 -109.1487,-5.5464 -44.489,-2.3887 -88.90143,-6.1376 -133.14783,-11.3852 -42.02004,-5.4123 -84.10618,-12.0013 -126.50859,-13.0271 -31.83357,0.3923 -63.89212,1.9021 -94.96788,9.3909 -18.15699,4.7605 -36.16712,10.6422 -54.8169,13.1201 -7.27183,0.3169 -18.81741,1.5938 -24.87981,-3.6686 -1.167,-1.013 -1.76413,-2.5378 -2.64619,-3.8066 -1.03602,-5.4593 -0.21942,-10.7785 0.68279,-16.2551 2.37437,-13.7194 5.83211,-27.2076 8.21983,-40.9244 4.57626,-22.7648 8.57126,-45.6239 11.17691,-68.7124 3.17768,-26.8453 3.90307,-53.8337 3.42896,-80.8568 0.006,-39.4691 0.0181,-78.9382 0.0417,-118.4074 0.0289,-51.2192 0.0915,-102.4386 -0.0298,-153.6578 -0.17792,-41.0085 -0.0999,-82.0677 -2.76229,-123.0083 -1.88669,-21.8425 -4.45975,-43.67129 -10.02154,-64.93072 -2.36681,-9.46725 11.0219,-12.81443 13.38871,-3.34718 z"
       inkscape:connector-curvature="0" />
    <path
       style="fill:#1a1a1a;fill-opacity:1;fill-rule:nonzero;stroke:#000000;stroke-width:1.67244089;stroke-linecap:round;stroke-linejoin:bevel;stroke-miterlimit:4;stroke-opacity:1;stroke-dasharray:none;stroke-dashoffset:0"
       id="path6686"
       d="m 1918.4454,1556.0926 c 9.6323,8.8084 20.9733,15.4394 32.2147,21.9474 12.7205,7.3143 24.5072,16.0311 35.6487,25.5438 5.9829,4.8501 13.0303,10.0463 15.5395,17.7424 0.5713,1.7522 0.7422,3.6105 1.1133,5.4158 -0.2728,2.1717 -0.1136,4.4429 -0.8182,6.5151 -5.1073,15.0199 -26.5058,33.3427 -38.0679,43.8402 -13.1306,10.9504 -6.4965,5.8027 -19.8655,15.4903 -7.9098,5.7154 -15.9926,-5.4707 -8.0828,-11.1861 l 0,0 c 12.4682,-8.9816 6.2247,-4.1623 18.6768,-14.5268 12.4587,-11.2871 26.4753,-23.0331 34.5182,-38.0282 0.066,-6.7238 -7.6037,-10.9255 -11.9798,-14.7715 -10.4952,-8.9795 -21.6084,-17.1954 -33.6002,-24.0933 -12.6944,-7.3585 -25.5819,-14.8705 -36.0734,-25.2678 -6.0962,-7.6202 4.6804,-16.2415 10.7766,-8.6213 z"
       inkscape:connector-curvature="0" />
    <path
       style="fill:#1a1a1a;fill-opacity:1;fill-rule:nonzero;stroke:#000000;stroke-width:1.67244089;stroke-linecap:round;stroke-linejoin:bevel;stroke-miterlimit:4;stroke-opacity:1;stroke-dasharray:none;stroke-dashoffset:0"
       id="path6688"
       d="m 629.85598,950.31544 c -9.28933,23.03551 -17.90828,46.27622 -25.06591,70.06596 -0.68849,2.4509 -4.02966,14.1619 -4.77465,17.4209 -0.38484,1.6834 -0.70441,3.3868 -0.88804,5.1039 -0.0654,0.6114 0.46241,2.366 0.1455,1.8391 -4.48278,-7.4543 1.9923,-4.4976 -9.69249,-5.6969 8.75943,-18.2056 16.48683,-36.9633 24.83039,-55.39517 5.86241,-10.64955 13.2319,-33.5891 23.34575,-40.93307 1.87787,-1.36358 4.1799,-2.01778 6.26986,-3.02666 2.60439,0.0997 5.29223,-0.36229 7.81317,0.29925 8.63533,2.26608 15.44126,10.38243 21.4903,16.30368 10.89399,10.66386 4.33686,4.40744 15.81858,15.14507 12.37895,11.24771 25.5494,21.57425 39.26627,31.1292 8.00558,5.5805 0.11366,16.9021 -7.89193,11.3216 l 0,0 c -14.25151,-9.9408 -27.94591,-20.66904 -40.80265,-32.3727 -10.25555,-9.5976 -20.15725,-19.84715 -30.74955,-28.94138 -3.94355,-0.10112 -6.27367,5.26306 -7.85745,8.01987 -5.31874,9.25815 -9.72815,19.03604 -14.12973,28.7464 -3.57296,7.89307 -7.23263,15.74741 -10.71943,23.67901 -4.20838,9.5729 -7.74868,19.5732 -12.47599,28.9122 -0.95239,1.8815 -2.14045,3.6341 -3.21067,5.4511 -3.72375,1.2615 -7.2913,4.4194 -11.17126,3.7843 -9.48503,-1.5526 1.28715,-31.0186 2.16927,-34.7686 7.16496,-23.77927 15.67783,-47.05974 25.06193,-70.05268 2.80411,-9.34706 16.02285,-5.38144 13.21873,3.96562 z"
       inkscape:connector-curvature="0" />
    <path
       style="fill:#1a1a1a;fill-opacity:1;fill-rule:nonzero;stroke:#000000;stroke-width:1.67244089;stroke-linecap:round;stroke-linejoin:bevel;stroke-miterlimit:4;stroke-opacity:1;stroke-dasharray:none;stroke-dashoffset:0"
       id="path6690"
       d="m 938.45218,861.25243 c -1.75566,13.50174 -5.01684,27.30341 -11.6479,39.33612 -1.49887,2.71984 -3.38015,5.21067 -5.07023,7.81601 -9.73135,11.15818 -23.43795,20.98725 -38.87914,21.48903 -3.28352,0.1067 -6.53915,-0.64115 -9.80872,-0.96173 -2.98777,-1.06592 -6.14573,-1.74031 -8.96331,-3.19776 -11.56441,-5.9819 -18.77104,-18.29981 -21.51387,-30.70466 -0.72529,-3.28024 -0.81846,-6.6689 -1.22769,-10.00335 0.37097,-19.645 8.82624,-37.06528 22.54069,-50.94736 3.08027,-3.11793 6.52674,-5.85148 9.79012,-8.77722 26.70777,-19.71813 58.82015,-29.46501 89.79257,-40.25934 29.0435,-9.88221 57.6562,-20.96037 86.1623,-32.28044 5.843,-2.43486 11.9434,-4.19632 17.281,-7.66259 8.2566,-5.2019 15.6132,6.47465 7.3566,11.67654 l 0,0 c -6.134,3.79088 -12.8076,6.27591 -19.5441,8.81248 -28.6886,11.39247 -57.48541,22.53888 -86.71415,32.48607 -29.27234,10.2009 -59.66248,19.31835 -85.16182,37.53884 -15.61871,13.76861 -26.43919,26.24314 -27.78272,47.92662 1.23909,14.0034 5.40529,26.65384 19.70029,31.69849 1.99408,0.33899 3.9597,0.99135 5.98222,1.01698 11.50926,0.14589 22.01355,-7.50285 29.47783,-15.46227 8.01487,-11.8285 12.57547,-25.37266 14.42926,-39.54046 0,-9.75861 13.80077,-9.75861 13.80077,0 z"
       inkscape:connector-curvature="0" />
    <path
       style="fill:#1a1a1a;fill-opacity:1;fill-rule:nonzero;stroke:#000000;stroke-width:1.67244089;stroke-linecap:round;stroke-linejoin:bevel;stroke-miterlimit:4;stroke-opacity:1;stroke-dasharray:none;stroke-dashoffset:0"
       id="path6692"
       d="m 2046.443,1424.4695 c 19.4887,17.2403 35.298,38.0945 49.4394,59.8 13.0232,23.2022 23.6804,49.1713 25.1816,76.092 0.2391,4.2873 -0.1814,8.5861 -0.2721,12.8791 -1.9696,12.6987 -7.3684,30.4379 -24.3536,27.2685 -8.4794,-1.5822 -13.7617,-8.3347 -19.4849,-13.8204 -14.177,-18.7409 -24.0933,-41.7593 -26.3767,-65.362 -0.4139,-4.2785 -0.085,-8.5966 -0.1282,-12.8948 0.839,-3.9176 1.2102,-7.9654 2.5169,-11.7526 6.8801,-19.9406 24.6476,-27.4699 43.1322,-33.2676 9.8414,-2.5803 19.749,-4.8824 29.6129,-7.3736 9.4616,-2.3891 12.8402,10.9917 3.3786,13.3808 l 0,0 c -9.6345,2.432 -19.3074,4.6959 -28.9282,7.1819 -13.1349,3.9601 -28.3129,9.1187 -33.745,23.168 -1.0705,2.7687 -1.4444,5.7585 -2.1666,8.6378 -0.028,3.5004 -0.3994,7.0148 -0.085,10.5013 1.8711,20.7782 10.43,41.2037 22.5027,57.977 1.6684,1.7298 10.9862,11.4592 12.2311,11.4746 6.3239,0.078 7.0057,-12.1764 8.0984,-15.4906 0.1224,-3.6161 0.5421,-7.2343 0.3672,-10.8482 -1.2013,-24.8211 -11.1737,-48.8117 -23.0512,-70.2286 -13.3838,-20.6301 -28.3935,-40.4374 -46.8505,-56.8443 -7.4093,-6.3508 1.5721,-16.8291 8.9814,-10.4783 z"
       inkscape:connector-curvature="0" />
    <path
       style="fill:#1a1a1a;fill-opacity:1;fill-rule:nonzero;stroke:#000000;stroke-width:1.67244089;stroke-linecap:round;stroke-linejoin:bevel;stroke-miterlimit:4;stroke-opacity:1;stroke-dasharray:none;stroke-dashoffset:0"
       id="path6694"
       d="m 2236.334,1306.9854 c -6.4492,4.6785 -9.6638,12.0751 -11.2652,19.6505 -1.1009,7.2311 0.2191,3.0196 -14.0839,3.4544 -3.647,-9.0515 9.1537,-14.2092 12.8008,-5.1577 l 0,0 c -14.1202,2.6466 -13.4254,6.3778 -12.1854,-1.307 2.6983,-11.6346 8.1355,-22.4568 18.5618,-28.984 8.7284,-4.3642 14.9003,7.9796 6.1719,12.3438 z"
       inkscape:connector-curvature="0" />
    <path
       style="fill:#1a1a1a;fill-opacity:1;fill-rule:nonzero;stroke:#000000;stroke-width:1.67244089;stroke-linecap:round;stroke-linejoin:bevel;stroke-miterlimit:4;stroke-opacity:1;stroke-dasharray:none;stroke-dashoffset:0"
       id="path6696"
       d="m 633.3517,1580.3791 c 4.23321,-10.1146 10.06035,-19.4312 15.77252,-28.7517 8.15502,-13.7139 16.50719,-27.3059 25.06832,-40.7693 10.78118,-17.3144 21.4701,-34.6739 32.03117,-52.1258 12.5538,-20.9582 27.15124,-40.607 42.18191,-59.8343 16.08676,-20.6569 32.84862,-40.7652 50.25417,-60.3206 16.19748,-18.8776 33.51992,-36.7214 51.19718,-54.2041 16.30683,-15.9219 34.06474,-30.2005 51.96765,-44.2605 17.87615,-13.7675 35.73959,-27.5298 54.70998,-39.7664 17.60024,-12.1432 36.95371,-21.2941 56.0525,-30.7679 19.6879,-9.9333 39.3486,-19.924 59.1205,-29.6898 21.3744,-10.3451 43.2045,-19.6619 65.4836,-27.8663 23.1679,-7.4023 46.7916,-13.2692 70.5589,-18.3785 23.8736,-4.9864 47.4311,-11.2934 71.1882,-16.7808 22.376,-5.6479 45.1528,-9.5454 68.0465,-12.3443 21.7562,-1.9896 43.565,-3.3836 65.3139,-5.4679 21.8329,-2.1664 43.5625,-5.3044 65.2726,-8.4554 25.141,-3.4004 50.4123,-5.6753 75.6381,-8.3236 23.5453,-2.8628 47.2802,-3.2005 70.8332,-5.8964 17.31,-2.1905 34.6597,-4.5502 51.6344,-8.6474 3.2697,-0.805 6.5082,-1.7252 9.7349,-2.6853 9.3544,-2.7794 13.2851,10.4498 3.9306,13.2292 l 0,0 c -3.4582,1.0262 -6.9283,2.0126 -10.4324,2.8728 -17.5283,4.2173 -35.4301,6.6985 -53.3046,8.9427 -23.5974,2.6786 -47.3653,3.0822 -70.9558,5.9098 -25.0452,2.6271 -50.1349,4.888 -75.0966,8.2559 -21.9321,3.1816 -43.8836,6.3503 -65.9399,8.5357 -21.6304,2.0667 -43.3179,3.4759 -64.9572,5.4291 -22.4132,2.7281 -44.7082,6.5608 -66.612,12.0918 -23.8257,5.5025 -47.4506,11.8308 -71.3941,16.8268 -23.1352,4.9707 -46.1266,10.6805 -68.6924,17.8374 -21.8248,8.0259 -43.1997,17.1659 -64.1387,27.2886 -19.7658,9.7608 -39.418,19.7509 -59.0996,29.6795 -18.6384,9.2433 -37.54003,18.1465 -54.71026,30.0058 -18.6231,11.9826 -36.10985,25.536 -53.66104,39.0192 -17.49159,13.7335 -34.84901,27.6713 -50.78667,43.2189 -17.4701,17.2763 -34.59084,34.9078 -50.59321,53.5676 -17.21318,19.3343 -33.78359,39.2207 -49.69102,59.6459 -14.69833,18.7893 -28.97223,37.9939 -41.24619,58.478 -10.61436,17.5397 -21.36059,34.9846 -32.19368,52.3877 -8.5241,13.396 -16.82757,26.9275 -24.94615,40.5736 -5.50594,8.9838 -11.13472,17.9529 -15.19549,27.7122 -4.36419,8.7284 -16.70797,2.5565 -12.34379,-6.1719 z"
       inkscape:connector-curvature="0" />
    <path
       style="fill:#1a1a1a;fill-opacity:1;fill-rule:nonzero;stroke:#000000;stroke-width:1.67244089;stroke-linecap:round;stroke-linejoin:bevel;stroke-miterlimit:4;stroke-opacity:1;stroke-dasharray:none;stroke-dashoffset:0"
       id="path6698"
       d="m 1833.5355,970.46892 c -6.0407,15.81119 -6.2942,33.26928 -7.2304,49.97398 -0.9911,22.9708 -1.1487,45.9668 -1.2224,68.9555 0,2.0044 0,4.0087 0,6.013 3e-4,1.4368 0,2.8735 0.01,4.3102 0,0.8412 0,1.6823 0.011,2.5234 0,0.1305 0.1409,0.3952 0.01,0.3914 -15.6494,-0.4554 -13.2109,3.6601 -15.0436,-5.6586 -3.7542,-20.8964 -5.9403,-41.9891 -7.4833,-63.1489 -0.8431,-12.9533 -1.3537,-26.8312 3.7631,-39.10887 2.7827,-6.67712 5.3721,-9.42938 9.5978,-15.04787 11.2062,-11.42266 26.2012,-16.23462 41.8099,-17.34371 2.1438,0.36741 4.3826,0.37197 6.4314,1.10222 14.5652,5.19132 13.8907,18.41293 11.4911,30.87644 -3.3617,14.25009 -11.5815,26.21819 -19.6072,38.15749 -3.0418,4.5969 -7.2138,9.5586 -4.921,15.2055 4.6368,10.64 12.9137,19.5547 21.214,27.5166 5.4872,4.028 10.0304,10.2289 16.4637,12.9501 0.4561,0.1929 -0.8273,-0.5448 -1.2409,-0.8172 -1.0282,0.1117 -2.0564,0.2234 -3.0846,0.3352 7.8945,-5.7366 16.0072,5.4278 8.1128,11.1644 l 0,0 c -1.921,0.7605 -3.8421,1.521 -5.7631,2.2815 -1.6425,-0.3379 -3.3413,-0.4694 -4.9274,-1.0137 -7.5614,-2.5953 -12.7726,-10.6721 -19.1449,-14.9706 -10.1052,-9.806 -20.1022,-20.7428 -25.0289,-34.1417 -0.3992,-2.0544 -1.0706,-4.0742 -1.1976,-6.1632 -0.4534,-7.4577 4.2106,-14.1439 8.0647,-20.0466 7.0259,-10.45 14.4384,-20.8223 17.5458,-33.25353 1.2607,-5.53407 3.9983,-13.65554 -3.5665,-15.40782 -11.542,0.54304 -23.0074,4.07 -31.6854,11.94775 -2.6207,3.36101 -5.6104,6.76014 -7.3696,10.71554 -4.7089,10.58766 -3.8577,22.85356 -3.1929,34.05966 1.4983,20.6034 3.6175,41.1411 7.2607,61.4899 1.8228,9.2808 2.7831,5.3032 -12.295,8.6438 -0.012,0 -0.02,-1.0029 -0.025,-3.2179 0,-1.4471 -0.01,-2.8943 -0.01,-4.3414 -4e-4,-2.0156 0,-4.0312 0,-6.0468 0.075,-23.2325 0.2355,-46.4724 1.2441,-69.6865 1.049,-18.5729 1.4655,-37.94404 8.6656,-55.37057 4.3642,-8.72837 16.7079,-2.55648 12.3438,6.17189 z"
       inkscape:connector-curvature="0" />
    <path
       style="fill:#1a1a1a;fill-opacity:1;fill-rule:nonzero;stroke:#000000;stroke-width:1.67244089;stroke-linecap:round;stroke-linejoin:bevel;stroke-miterlimit:4;stroke-opacity:1;stroke-dasharray:none;stroke-dashoffset:0"
       id="path6700"
       d="m 1929.3374,985.77863 c 6.1319,15.11867 8.8758,31.15907 10.95,47.24757 0.6667,11.7757 2.9945,23.7511 1.7649,35.5566 -9.8836,24.746 -21.7038,-13.9565 -23.1952,-18.4334 -5.8305,-17.0699 -8.3253,-34.912 -9.8824,-52.80123 -0.9388,-11.44228 -1.6889,-23.97346 6.9224,-32.88872 1.5336,-1.58775 3.4338,-2.77496 5.1508,-4.16244 11.0025,-6.15575 23.2617,-9.70515 35.4099,-12.85062 4.7629,-1.16064 9.5579,-2.19458 14.3922,-3.01132 9.6231,-1.62036 11.9146,11.98883 2.2915,13.60919 l 0,0 c -4.4462,0.74568 -8.8537,1.70677 -13.2353,2.76512 -10.3891,2.67115 -20.7745,5.76808 -30.4582,10.43748 -1.1335,0.78868 -3.9551,2.53996 -4.8895,3.86938 -4.1208,5.86261 -1.7879,14.55053 -1.8346,21.04093 1.4499,16.82403 3.7502,33.60983 9.2375,49.66333 2.291,7.0033 1.689,5.7443 4.4658,12.1377 0.5771,1.3288 1.3752,2.5687 1.815,3.949 0.071,0.2234 -0.1455,0.5191 -0.3651,0.6011 -9.8159,3.6634 -8.8221,-0.2851 -9.5144,4.3265 1.7024,-9.271 -1.8428,-22.6208 -1.7637,-32.0511 -1.8951,-14.8265 -4.3487,-29.6155 -9.9465,-43.56868 -3.8441,-8.96958 8.8408,-14.40597 12.6849,-5.43639 z"
       inkscape:connector-curvature="0" />
    <path
       style="fill:#ff0000;fill-opacity:1;fill-rule:nonzero;stroke:#ff0000;stroke-width:1.67244089;stroke-linecap:round;stroke-linejoin:bevel;stroke-miterlimit:4;stroke-opacity:1;stroke-dasharray:none;stroke-dashoffset:0"
       id="path6702"
       d="m 1911.8209,1030.9425 c 10.19,0.8692 19.7316,-2.0839 28.9088,-6.1773 8.9407,-3.9108 14.4714,8.7333 5.5307,12.6441 l 0,0 c -11.5878,4.9894 -23.6129,8.5218 -36.3913,7.1952 -9.6605,-1.3801 -7.7088,-15.0421 1.9518,-13.662 z"
       inkscape:connector-curvature="0" />
    <path
       style="fill:#ff0000;fill-opacity:1;fill-rule:nonzero;stroke:#ff0000;stroke-width:1.67244089;stroke-linecap:round;stroke-linejoin:bevel;stroke-miterlimit:4;stroke-opacity:1;stroke-dasharray:none;stroke-dashoffset:0"
       id="path6704"
       d="m 628.81365,1592.0429 c 15.52045,-7.0729 28.99029,-17.7028 42.86614,-27.4442 16.58394,-11.5553 32.80962,-23.5912 48.90839,-35.8087 16.52742,-12.6599 32.60802,-25.8771 48.6984,-39.0829 12.91674,-10.0732 25.10265,-21.04 37.83492,-31.34 10.60193,-9.4572 21.46015,-18.6141 32.77144,-27.2116 11.08597,-8.0631 21.82094,-16.5723 32.84318,-24.7252 11.75952,-8.1601 23.01691,-17.0083 34.50727,-25.5366 12.89854,-9.7883 26.03815,-19.215 38.23412,-29.8802 11.88387,-10.7617 24.43582,-20.6951 36.81262,-30.8607 11.24435,-9.4215 22.93517,-18.2797 34.33277,-27.5026 10.9628,-8.4179 21.3973,-17.4711 31.561,-26.8286 9.5017,-8.3032 18.3649,-17.2511 28.1527,-25.2342 9.6733,-8.3811 19.4813,-16.5909 28.9364,-25.221 9.1505,-8.8409 19.1772,-16.6901 29.5056,-24.0937 10.2158,-6.9109 18.7393,-15.9364 27.3816,-24.653 8.5687,-9.4782 16.838,-19.2174 25.4519,-28.6558 7.1042,-6.7106 14.3571,-13.3291 22.0041,-19.4209 6.6004,-5.0668 13.0456,-10.3187 19.6626,-15.3629 6.7839,-5.8434 14.1374,-11.0535 20.7857,-17.0442 5.0985,-4.7776 11.1156,-8.4255 16.3221,-13.0573 3.691,-3.2273 7.6575,-5.8496 12.3213,-7.3875 9.2951,-2.9718 13.4979,10.1735 4.2027,13.1453 l 0,0 c -2.8981,0.8634 -5.1384,2.737 -7.4602,4.6493 -5.2497,4.5075 -11.0365,8.3265 -16.198,12.9478 -6.9698,6.1706 -14.503,11.7018 -21.6069,17.722 -6.5475,4.9913 -12.9233,10.19 -19.4557,15.2021 -7.0985,5.5948 -13.7366,11.795 -20.3847,17.9103 -8.7434,9.5775 -17.1149,19.4803 -25.845,29.069 -9.1888,9.2664 -18.2899,18.8061 -29.1475,26.157 -9.8945,7.0751 -19.4834,14.5994 -28.2368,23.0666 -9.6492,8.8037 -19.6516,17.1863 -29.5278,25.7309 -9.5881,7.7845 -18.2011,16.5942 -27.5175,24.6841 -10.3835,9.5559 -21.0388,18.8073 -32.2338,27.4091 -11.3836,9.1863 -23.0272,18.0462 -34.25245,27.4371 -12.27718,10.0643 -24.70623,19.922 -36.48782,30.5858 -12.48382,10.8925 -25.88265,20.5796 -39.08905,30.5689 -11.49778,8.5301 -22.75774,17.387 -34.52432,25.5493 -10.97524,8.1181 -21.66724,16.589 -32.70386,24.6208 -11.20857,8.5031 -21.92605,17.6097 -32.44174,26.9532 -12.71325,10.269 -24.85794,21.2329 -37.75561,31.2754 -16.22609,13.3164 -32.44303,26.6435 -49.11063,39.4083 -16.23512,12.321 -32.59992,24.4566 -49.3231,36.1115 -14.82768,10.4042 -29.24755,21.7431 -45.9487,29.0701 -9.13728,3.4265 -13.98305,-9.4956 -4.84577,-12.9221 z"
       inkscape:connector-curvature="0" />
    <path
       style="fill:#ff0000;fill-opacity:1;fill-rule:nonzero;stroke:#ff0000;stroke-width:1.67244089;stroke-linecap:round;stroke-linejoin:bevel;stroke-miterlimit:4;stroke-opacity:1;stroke-dasharray:none;stroke-dashoffset:0"
       id="path6706"
       d="m 1106.0303,1347.333 c -5.8897,22.693 -9.7245,45.8519 -12.6626,69.0921 -0.8349,9.2268 -2.0669,18.4122 -3.5294,27.5587 -0.4893,3.0605 -0.2202,6.4404 -1.7606,9.1298 -1.0252,1.7899 -2.6263,3.1816 -3.9394,4.7723 -3.3933,-2.8456 -7.7746,-4.8186 -10.18,-8.537 -1.0896,-1.6843 0.4842,-3.9836 0.7989,-5.9648 0.4313,-2.7153 0.9396,-5.418 1.4387,-8.1217 2.3237,-12.5879 4.7907,-25.1508 7.2586,-37.7109 4.6272,-24.1939 10.0044,-48.2846 20.021,-70.8645 4.5401,-7.6344 11.6951,-16.9577 22.0934,-12.5497 5.9776,2.5341 7.3009,7.1686 10.0409,12.321 7.1154,18.3212 8.18,38.1229 9.1919,57.5367 0.8817,23.8696 -4.1713,47.2362 -9.7942,70.2671 -7.0826,24.2199 -15.0678,48.1695 -23.0013,72.1216 -4.2891,13.4775 -9.4214,26.6566 -14.1128,39.9928 -3.2396,9.2051 -16.2577,4.6236 -13.018,-4.5816 l 0,0 c 4.6667,-13.2545 9.7621,-26.3561 14.0301,-39.7507 7.8184,-23.6021 15.675,-47.2048 22.6958,-71.0585 5.3146,-21.723 10.1856,-43.756 9.4181,-66.2757 -0.9083,-17.594 -1.7548,-35.5549 -7.847,-52.2708 -0.2225,-0.585 -1.835,-3.606 -1.3939,-5.0318 0.1476,-0.4768 0.99,-0.7504 0.8533,-1.2305 -0.7366,-2.5871 -7.3495,6.9013 -6.5485,6.1229 -9.6563,21.6051 -14.5835,44.7636 -19.087,67.9127 -2.4521,12.478 -4.8964,24.9593 -7.2123,37.4635 -0.4728,2.5527 -0.9293,5.1084 -1.3659,7.6675 -0.2389,1.4002 0.7588,4.1528 -0.6605,4.21 -3.6378,0.1464 -6.8338,-2.5138 -10.2506,-3.7707 -0.9556,1.3948 -1.4656,3.2381 -2.8666,4.1845 -0.7616,0.5144 0.4675,-1.7791 0.6415,-2.6816 2.0755,-10.7657 3.2346,-21.7034 4.3943,-32.594 3.0273,-23.8793 6.9724,-47.6753 13.0396,-70.9899 2.5677,-9.4148 15.8822,-5.7836 13.3145,3.6312 z"
       inkscape:connector-curvature="0" />
    <path
       style="fill:#0000ff;fill-opacity:1;fill-rule:nonzero;stroke:#ff0000;stroke-width:1.67244089;stroke-linecap:round;stroke-linejoin:bevel;stroke-miterlimit:4;stroke-opacity:1;stroke-dasharray:none;stroke-dashoffset:0"
       id="path6710"
       d="m 633.18114,1559.633 c 5.4025,-11.8334 10.82596,-23.6678 15.782,-35.699 4.81194,-12.369 10.84598,-24.2019 16.30284,-36.2896 5.42692,-10.8882 11.09394,-21.6436 16.63025,-32.4793 5.89627,-11.0097 12.64742,-21.5196 18.87248,-32.3414 7.22451,-12.6526 13.59069,-25.7642 20.49966,-38.5854 7.54058,-12.5774 16.0802,-24.4971 23.74157,-36.9988 7.833,-13.591 15.76958,-27.1195 23.78716,-40.6027 8.38312,-13.9048 16.49145,-27.9839 25.19115,-41.6939 8.82042,-13.6293 17.12187,-27.5887 25.22345,-41.6545 7.44237,-12.8227 15.00638,-25.5487 23.03025,-38.0152 8.81758,-12.1464 16.75638,-24.8748 24.51784,-37.7105 9.76785,-16.0416 20.39526,-31.5474 30.00101,-47.686 11.60662,-19.1665 21.73688,-39.1572 32.41329,-58.846 7.37583,-14.3776 16.14574,-27.958 24.53555,-41.74594 5.07342,-8.33613 16.86248,-1.16124 11.78907,7.17494 l 0,0 c -8.27295,13.5907 -16.92351,26.9753 -24.19273,41.1496 -10.7651,19.8522 -20.98443,40.0066 -32.68925,59.3312 -9.63561,16.1568 -20.24781,31.7063 -30.04784,47.764 -7.82947,12.944 -15.82374,25.7918 -24.72216,38.038 -7.9012,12.2758 -15.34754,24.808 -22.67648,37.4346 -8.20246,14.2374 -16.60472,28.3683 -25.53254,42.1652 -8.6399,13.5884 -16.65456,27.568 -24.97984,41.3502 -8.05409,13.5333 -16.01182,27.1207 -23.88279,40.761 -7.5342,12.2806 -15.87371,24.0237 -23.35908,36.3344 -6.97512,12.9298 -13.3832,26.1635 -20.68533,38.9185 -6.11354,10.6223 -12.72559,20.9476 -18.54491,31.7379 -5.43529,10.6378 -10.99034,21.2014 -16.34145,31.8787 -5.39562,11.9509 -11.36214,23.6495 -16.12434,35.8764 -4.99585,12.0816 -10.41158,23.9866 -15.85392,35.87 -3.84411,8.9696 -16.52902,3.5332 -12.68491,-5.4364 z"
       inkscape:connector-curvature="0" />
    <path
       style="fill:#0000ff;fill-opacity:1;fill-rule:nonzero;stroke:#ff0000;stroke-width:1.67244089;stroke-linecap:round;stroke-linejoin:bevel;stroke-miterlimit:4;stroke-opacity:1;stroke-dasharray:none;stroke-dashoffset:0"
       id="path6712"
       d="m 1022.1408,907.78573 c 6.1833,21.50961 7.1693,44.05207 8.2933,66.27237 1.0227,25.73565 1.1708,51.4952 1.242,77.2478 0.01,9.4421 0.01,5.0193 0,13.2685 -0.011,9.7586 -13.8118,9.743 -13.8007,-0.016 l 0,0 c 0.01,-8.2153 0.01,-3.8104 0,-13.2148 -0.07,-25.5334 -0.2157,-51.0738 -1.2245,-76.59063 -1.055,-20.97539 -1.9202,-42.26198 -7.6026,-62.60346 -3.0859,-9.25783 10.0066,-13.62202 13.0926,-4.36418 z"
       inkscape:connector-curvature="0" />
    <path
       style="fill:#0000ff;fill-opacity:1;fill-rule:nonzero;stroke:#ff0000;stroke-width:1.67244089;stroke-linecap:round;stroke-linejoin:bevel;stroke-miterlimit:4;stroke-opacity:1;stroke-dasharray:none;stroke-dashoffset:0"
       id="path6714"
       d="m 1029.0412,935.38726 c 4.1046,13.8105 10.7704,26.20251 20.8109,36.53857 2.5993,1.89333 5.0959,4.40518 8.54,4.72205 5.9967,0.55172 10.3432,-9.6239 12.3669,-13.20755 9.4828,-20.76759 12.548,-43.60211 14.8681,-66.10003 0.6691,-7.07549 1.0926,-14.16999 1.3544,-21.27103 0.3612,-9.75193 14.1525,-9.24118 13.7914,0.51075 l 0,0 c -0.2754,7.4047 -0.717,14.80269 -1.4183,22.18053 -2.5418,24.49084 -6.0179,49.3207 -16.7514,71.76332 -4.1579,6.68348 -5.9935,11.3881 -12.7308,15.80564 -10.6201,6.96342 -21.4156,2.7638 -30.0102,-4.88198 -11.2458,-11.97462 -19.2862,-25.86213 -23.9136,-41.69608 -3.0859,-9.25784 10.0066,-13.62202 13.0926,-4.36419 z"
       inkscape:connector-curvature="0" />
  </g>
</svg>
