<?xml version="1.0" encoding="UTF-8" standalone="no"?>
<!-- Created with Inkscape (http://www.inkscape.org/) -->

<svg
   xmlns:dc="http://purl.org/dc/elements/1.1/"
   xmlns:cc="http://creativecommons.org/ns#"
   xmlns:rdf="http://www.w3.org/1999/02/22-rdf-syntax-ns#"
   xmlns:svg="http://www.w3.org/2000/svg"
   xmlns="http://www.w3.org/2000/svg"
   xmlns:sodipodi="http://sodipodi.sourceforge.net/DTD/sodipodi-0.dtd"
   xmlns:inkscape="http://www.inkscape.org/namespaces/inkscape"
   width="297mm"
   height="210mm"
   id="svg7391"
   version="1.1"
   inkscape:version="0.48.0 r9654"
   sodipodi:docname="Nouveau document 18">
  <defs
     id="defs7393">
    <marker
       inkscape:stockid="Arrow1Mend"
       orient="auto"
       refY="0.0"
       refX="0.0"
       id="Arrow1Mend"
       style="overflow:visible;">
      <path
         id="path5449"
         d="M 0.0,0.0 L 5.0,-5.0 L -12.5,0.0 L 5.0,5.0 L 0.0,0.0 z "
         style="fill-rule:evenodd;stroke:#000000;stroke-width:1.0pt;marker-start:none;"
         transform="scale(0.4) rotate(180) translate(10,0)" />
    </marker>
    <marker
       inkscape:stockid="Arrow1Mstart"
       orient="auto"
       refY="0.0"
       refX="0.0"
       id="Arrow1Mstart"
       style="overflow:visible">
      <path
         id="path5446"
         d="M 0.0,0.0 L 5.0,-5.0 L -12.5,0.0 L 5.0,5.0 L 0.0,0.0 z "
         style="fill-rule:evenodd;stroke:#000000;stroke-width:1.0pt;marker-start:none"
         transform="scale(0.4) translate(10,0)" />
    </marker>
  </defs>
  <sodipodi:namedview
     inkscape:document-units="mm"
     pagecolor="#ffffff"
     bordercolor="#666666"
     borderopacity="1.0"
     inkscape:pageopacity="0.0"
     inkscape:pageshadow="2"
     inkscape:zoom="0.7259858"
     inkscape:cx="526.18109"
     inkscape:cy="372.04724"
     inkscape:current-layer="layer1"
     id="namedview7395"
     showgrid="false"
     inkscape:window-width="1283"
     inkscape:window-height="821"
     inkscape:window-x="60"
     inkscape:window-y="60"
     inkscape:window-maximized="0" />
  <metadata
     id="metadata7397">
    <rdf:RDF>
      <cc:Work
         rdf:about="">
        <dc:format>image/svg+xml</dc:format>
        <dc:type
           rdf:resource="http://purl.org/dc/dcmitype/StillImage" />
        <dc:title></dc:title>
      </cc:Work>
    </rdf:RDF>
  </metadata>
  <g
     inkscape:label="Layer 1"
     inkscape:groupmode="layer"
     id="layer1">
    <path
       style="fill:none;fill-opacity:1;fill-rule:nonzero;stroke:#000000;stroke-width:3.47952756;stroke-linecap:round;stroke-linejoin:bevel;stroke-miterlimit:4;stroke-opacity:1;stroke-dasharray:none;stroke-dashoffset:0;marker-end:url(#Arrow1Mend);marker-start:url(#Arrow1Mstart)"
       d="m 20.729763,32.372612 0,674.868958 995.028637,0"
       id="path7400"
       inkscape:connector-curvature="0" />
    <path
       style="fill:none;stroke:#000000;stroke-width:3.47952747;stroke-linecap:round;stroke-linejoin:bevel;stroke-miterlimit:4;stroke-opacity:1;stroke-dasharray:none;stroke-dashoffset:0"
       id="path8464"
       d="m -24.494624,-37.648528 c -1.915017,5.339986 -3.437983,11.009572 -3.070916,16.704372 1.18742,6.526574 6.78182,8.789041 12.743314,9.539991 6.7742059,-0.516694 12.4023629,-4.087292 17.4548382,-8.351719 1.0550285,-0.01674 2.8877004,-4.181816 4.0952953,-3.724077 0.6080677,0.230489 0.9426248,0.896071 1.4139371,1.344107 0.135661,3.74742 -0.499243,7.470686 2.0016724,10.551433 6.747523,4.0270794 14.311991,2.7124058 21.363395,0.34952 8.066967,-3.389119 13.916699,-8.661309 15.671686,-17.441505 -0.333122,-5.599508 -3.840308,-8.713184 -8.427485,-11.274219 -1.417522,-0.802025 -0.283287,-2.806703 1.134234,-2.004678 l 0,0 c 5.46679,3.129409 9.435628,7.050004 9.546263,13.757605 -2.238473,10.030308 -7.955548,15.138711 -17.200286,19.1492215 -7.969813,2.6128544 -16.620935,3.9751514 -23.9308032,-1.1544285 -2.6416104,-3.728173 -2.5317064,-7.01522 -2.4030442,-11.415228 0.399627,0.137273 0.7763878,0.405106 1.1988811,0.411819 0.2106427,0.0033 0.3944624,-0.566342 0.5013562,-0.384807 0.2759598,0.468658 -3.4258258,3.315867 -3.481067,3.596732 -5.560837,4.676842 -11.7780524,8.503623 -19.2439569,8.873237 -7.088556,-0.994796 -13.441408,-3.946046 -14.737938,-11.694305 -0.288806,-5.93458 1.071767,-11.830913 3.136088,-17.391705 0.395013,-1.580055 2.629549,-1.021421 2.234536,0.558634 z"
       inkscape:connector-curvature="0" />
    <path
       style="fill:none;stroke:#000000;stroke-width:3.47952747;stroke-linecap:round;stroke-linejoin:bevel;stroke-miterlimit:4;stroke-opacity:1;stroke-dasharray:none;stroke-dashoffset:0"
       id="path8468"
       d="m 1100.2809,639.59189 c 10.381,3.91314 17.1773,13.81782 23.9949,22.07236 8.9536,11.06182 16.3226,23.27023 24.2529,35.06173 1.8767,2.71053 3.5392,5.5747 5.5334,8.19336 0.073,0.0961 -0.1434,-0.27212 -0.2622,-0.2502 -0.6506,0.12003 -1.2513,0.42992 -1.877,0.64488 -2.6622,-4.41132 -6.8733,-7.61184 -10.5262,-11.17031 -1.9053,-1.26879 -3.6717,-3.52445 -5.988,-4.10589 -5.9754,5.17141 -11.0135,11.32966 -16.0559,17.38509 -3.633,4.95792 -7.1873,10.01547 -9.8263,15.57911 -0.701,1.47014 -2.7801,0.47886 -2.0791,-0.99127 l 0,0 c 2.7435,-5.72677 6.3624,-10.9645 10.1355,-16.06189 3.3711,-4.04677 12.0802,-15.30941 16.5842,-17.66631 0.5848,-0.306 1.2866,-0.2952 1.9299,-0.4428 2.642,0.90943 4.7617,2.94227 6.9071,4.65418 3.8622,3.76324 8.3232,7.14778 11.0281,11.89491 -0.367,0.80449 -0.5242,1.74339 -1.1012,2.41345 -0.5442,0.6319 -5.9145,-8.40481 -6.3136,-8.79091 -7.8881,-11.72911 -15.2177,-23.87289 -24.1176,-34.88051 -6.4805,-7.84897 -12.9286,-17.32197 -22.6706,-21.2804 -1.5971,-0.31941 -1.1454,-2.57799 0.4517,-2.25858 z"
       inkscape:connector-curvature="0" />
    <path
       style="fill:none;stroke:#000000;stroke-width:2.06220484;stroke-linecap:round;stroke-linejoin:bevel;stroke-miterlimit:4;stroke-opacity:1;stroke-dasharray:none;stroke-dashoffset:0"
       d="m 89.828973,152.14458 c 0,383.06792 518.244077,516.40288 891.379817,525.06736"
       id="path8470"
       inkscape:connector-curvature="0"
       sodipodi:nodetypes="cc" />
    <path
       style="fill:none;stroke:#000000;stroke-width:2.06220484;stroke-linecap:round;stroke-linejoin:bevel;stroke-miterlimit:4;stroke-opacity:1;stroke-dasharray:none;stroke-dashoffset:0"
       d="M 20.729763,704.93827 C 16.123149,559.37504 596.55652,212.79592 893.68313,212.79592"
       id="path8472"
       inkscape:connector-curvature="0" />
    <path
       style="fill:none;stroke:#000000;stroke-width:3.83385827;stroke-linecap:round;stroke-linejoin:bevel;stroke-miterlimit:4;stroke-opacity:1;stroke-dasharray:none;stroke-dashoffset:0"
       d="m 108.25543,157.34327 c 0,124.76848 92.13228,268.59881 135.89511,268.59881 73.70583,0 208.86706,-169.92868 646.86234,-239.2445"
       id="path8474"
       inkscape:connector-curvature="0"
       sodipodi:nodetypes="csc" />
    <path
       style="fill:none;stroke:#000000;stroke-width:3.83385825;stroke-linecap:round;stroke-linejoin:bevel;stroke-miterlimit:4;stroke-opacity:1;stroke-dasharray:3.83385825,11.50157475;stroke-dashoffset:0"
       d="m 246.45385,32.372612 c -3.03342,11.3209 -3.18772,702.888838 0,690.992108"
       id="path8476"
       inkscape:connector-curvature="0" />
    <path
       style="fill:none;stroke:#008000;stroke-width:4.18818898;stroke-linecap:round;stroke-linejoin:bevel;stroke-miterlimit:4;stroke-opacity:1;stroke-dasharray:none;stroke-dashoffset:0"
       d="m 39.156219,299.55623 c 9.171886,2.4576 787.731001,0 787.731001,0"
       id="path8478"
       inkscape:connector-curvature="0" />
    <path
       style="fill:none;stroke:#008000;stroke-width:4.18818903;stroke-linecap:round;stroke-linejoin:bevel;stroke-miterlimit:4;stroke-opacity:1;stroke-dasharray:none;stroke-dashoffset:0"
       id="path8480"
       d="m 134.68372,221.98902 c 2.81505,2.58792 4.42575,6.18609 6.05648,9.57617 1.48227,3.4533 3.10813,6.84148 4.58631,10.29635 0.55805,0.93035 0.54281,2.41471 1.62005,2.92241 0.0675,-0.24561 -0.56984,-0.0164 -0.55929,-0.21598 0.0157,-0.29659 0.21281,-0.55519 0.2977,-0.8398 0.46171,-1.54795 0.84557,-3.12841 1.22804,-4.69719 1.32859,-5.45477 2.933,-10.83078 4.61556,-16.1849 1.03115,-2.96642 2.17318,-5.89888 3.51371,-8.74018 0.11572,-0.24505 0.23986,-0.48576 0.37484,-0.72066 0.48809,-0.84287 1.68009,-0.1526 1.192,0.69027 l 0,0 c -0.11147,0.2037 -0.2278,0.40506 -0.32119,0.61833 -1.31467,2.7842 -2.43219,5.65894 -3.44528,8.56519 -1.67361,5.32561 -3.27024,10.67274 -4.59148,16.09855 -0.28685,1.17401 -1.08619,5.84378 -2.17387,6.60649 -0.21326,0.14954 -0.52042,0.0229 -0.78063,0.0344 -1.36255,-0.77092 -1.66671,-2.22638 -2.23658,-3.59512 -1.4699,-3.4364 -3.08803,-6.80587 -4.56119,-10.24104 -1.53551,-3.19235 -3.03529,-6.59444 -5.64164,-9.07131 -0.7792,-0.58439 0.0473,-1.68634 0.82646,-1.10195 z"
       inkscape:connector-curvature="0" />
    <path
       style="fill:none;stroke:#008000;stroke-width:4.18818903;stroke-linecap:round;stroke-linejoin:bevel;stroke-miterlimit:4;stroke-opacity:1;stroke-dasharray:none;stroke-dashoffset:0"
       id="path8482"
       d="m 163.041,236.64618 c -0.51065,2.26747 -0.80029,4.57568 -1.04084,6.88493 -0.11677,2.07719 -0.43764,1.00831 0.64532,-0.26848 1.8028,-2.80683 3.03461,-5.88379 4.05656,-9.04252 -0.34693,-0.25118 1.93955,-6.03902 2.07046,-1.0222 0.0302,3.66392 -0.11157,7.32522 0.14074,10.98211 0.17188,4.37321 1.64831,8.47005 3.21872,12.49903 0.43647,1.6961 2.31829,4.17656 1.31855,6.01015 -0.20662,0.37894 -0.57209,0.64643 -0.85813,0.96964 -4.41577,1.79657 -9.56764,1.62243 -14.29712,2.13821 -2.14206,0.30168 -4.19434,0.52767 -6.3438,0.33878 -0.96955,-0.093 -0.83804,-1.46413 0.13151,-1.37114 l 0,0 c 2.05216,0.21639 4.01375,-0.0887 6.06297,-0.33696 4.49288,-0.48985 9.1382,-0.46037 13.48311,-1.75344 1.74007,-1.24481 -0.39369,-3.98082 -0.78049,-5.49503 -1.6209,-4.15895 -3.12852,-8.39293 -3.30957,-12.90547 -0.24822,-3.67769 -0.12015,-7.35848 -0.14353,-11.04302 -0.0208,-0.97598 -0.26043,-1.05962 1.29947,-1.07204 0.11269,-8.9e-4 -0.049,0.22001 -0.0757,0.32948 -0.17727,0.72546 -0.38649,1.44273 -0.6067,2.15618 -1.08086,3.33612 -2.38743,6.59157 -4.33502,9.53053 -1.7525,1.92167 -3.50706,2.21297 -3.04735,-0.78659 0.24749,-2.37364 0.54677,-4.74614 1.07455,-7.07623 0.23623,-0.94491 1.57254,-0.61084 1.33631,0.33408 z"
       inkscape:connector-curvature="0" />
    <path
       style="fill:none;stroke:#008000;stroke-width:4.18818903;stroke-linecap:round;stroke-linejoin:bevel;stroke-miterlimit:4;stroke-opacity:1;stroke-dasharray:none;stroke-dashoffset:0"
       id="path8486"
       d="m 208.82597,203.2536 c 1.55514,3.65643 2.41723,7.49856 3.34966,11.34562 0.81499,3.26355 1.23483,6.59058 2.45106,9.73946 0.0686,0.002 0.16342,0.0605 0.20583,0.007 0.17572,-0.22363 0.15493,-0.55242 0.29157,-0.80185 0.872,-1.59174 1.64256,-3.2193 2.41661,-4.86125 2.09292,-5.89737 4.00433,-11.87022 5.74302,-17.88281 0.60847,-2.15664 1.16831,-4.32647 1.68847,-6.50595 0.22613,-0.94738 1.56593,-0.62757 1.33979,0.31981 l 0,0 c -0.52534,2.20053 -1.09047,4.3914 -1.70506,6.56886 -1.75956,6.08219 -3.68764,12.12713 -5.82032,18.0875 -0.78291,1.6604 -2.81959,8.15028 -5.44525,5.5643 -1.23259,-3.20697 -1.69062,-6.58458 -2.50442,-9.91029 -0.93131,-3.845 -1.80119,-7.67865 -3.34727,-11.3359 -0.23623,-0.94491 1.10008,-1.27899 1.33631,-0.33408 z"
       inkscape:connector-curvature="0" />
    <path
       style="fill:none;stroke:#008000;stroke-width:4.18818903;stroke-linecap:round;stroke-linejoin:bevel;stroke-miterlimit:4;stroke-opacity:1;stroke-dasharray:none;stroke-dashoffset:0"
       id="path8488"
       d="m 233.91853,216.20379 c -2.37417,3.19967 -3.74003,7.02092 -4.81093,10.82325 -0.30256,1.82881 -1.14519,4.33144 -0.27049,6.16164 0.27242,0.57002 0.87269,0.81675 1.36959,1.11231 3.18443,0.6728 5.81953,-1.81322 8.08409,-3.69096 3.06128,-2.96383 4.64022,-6.62262 5.56178,-10.7009 0.18822,-2.73967 1.39774,-6.13096 -0.0153,-8.72402 -0.14783,-0.1105 -0.26566,-0.28215 -0.44351,-0.33149 -0.39147,-0.10861 -1.73877,3.38423 -1.84758,3.7207 -1.00209,4.82327 -1.10548,9.78278 -1.55681,14.68074 -0.67928,7.28196 -1.47137,14.54642 -1.93214,21.84804 -0.17487,2.88729 -0.27399,5.77801 -0.36463,8.66885 -0.0305,0.97352 -1.4073,0.93033 -1.37676,-0.0432 l 0,0 c 0.0912,-2.90537 0.19084,-5.81063 0.36669,-8.71244 0.46192,-7.31482 1.25434,-14.59254 1.93522,-21.88765 0.46074,-5.00017 0.55539,-10.06719 1.61985,-14.98442 0.67459,-2.02373 2.2735,-6.3068 4.83392,-3.57066 1.4011,3.01539 0.51542,6.48169 0.12419,9.6408 -0.99928,4.37321 -2.72477,8.29794 -6.02659,11.45668 -2.75934,2.28076 -5.90331,5.00999 -9.71585,3.78306 -3.32623,-2.30995 -2.39095,-5.27244 -1.67135,-8.80127 1.15295,-4.07595 2.61576,-8.22206 5.31011,-11.55102 0.77919,-0.5844 1.60566,0.51755 0.82646,1.10195 z"
       inkscape:connector-curvature="0" />
    <path
       style="fill:none;stroke:#008000;stroke-width:4.18818903;stroke-linecap:round;stroke-linejoin:bevel;stroke-miterlimit:4;stroke-opacity:1;stroke-dasharray:none;stroke-dashoffset:0"
       id="path8490"
       d="m 175.59361,207.58261 c 3.4547,-0.13038 6.57316,1.42905 9.37405,3.28974 3.53388,3.23373 6.86023,6.70857 10.11243,10.22674 1.75761,1.68659 3.3848,3.51079 4.84777,5.45855 0.26344,0.54943 0.4754,0.78414 0.28484,1.47978 -0.50488,1.843 -3.71902,5.12241 -4.91663,6.55545 -3.8123,4.59427 -7.61687,9.19798 -10.84091,14.23045 -0.96881,1.61217 -0.50523,0.89602 -1.36634,2.16403 -0.54805,0.80518 -1.68674,0.0301 -1.13868,-0.77506 l 0,0 c 0.82763,-1.21289 0.36891,-0.50873 1.34533,-2.13225 3.25734,-5.08002 7.09186,-9.73345 10.94372,-14.37054 0.68361,-0.81778 4.85747,-5.16184 4.58704,-6.32498 -1.43362,-1.91133 -3.03443,-3.69626 -4.7578,-5.35061 -3.1783,-3.44093 -6.43942,-6.82558 -9.86679,-10.01677 -2.56078,-1.7271 -5.43581,-3.1781 -8.60803,-3.05709 -0.97399,0 -0.97399,-1.37744 0,-1.37744 z"
       inkscape:connector-curvature="0" />
    <path
       style="fill:none;stroke:#008000;stroke-width:4.18818903;stroke-linecap:round;stroke-linejoin:bevel;stroke-miterlimit:4;stroke-opacity:1;stroke-dasharray:none;stroke-dashoffset:0"
       id="path8492"
       d="m 441.92603,191.91414 c 3.70955,4.47711 6.368,9.77836 9.11079,14.88496 2.82479,5.26475 5.33753,10.70432 8.51306,15.77179 1.29489,1.93022 2.11084,3.45978 4.21213,1.61815 4.38922,-5.43788 5.85597,-12.75821 7.72292,-19.34554 1.95617,-7.18025 4.15844,-14.29108 6.31541,-21.41307 0.22562,-1.09693 0.60925,-1.95867 1.38035,-2.74553 0.72255,-0.65313 1.64623,0.36871 0.92367,1.02185 l 0,0 c -0.67009,0.42385 -0.74476,1.46526 -0.98572,2.12294 -2.15459,7.11414 -4.3546,14.21709 -6.30848,21.38946 -1.9449,6.86028 -3.47282,14.51215 -8.21087,20.06364 -0.46361,0.32471 -0.87186,0.7482 -1.39083,0.97413 -2.18863,0.95278 -3.85711,-1.42064 -4.82595,-2.95487 -3.18951,-5.09499 -5.72442,-10.55684 -8.55919,-15.85121 -2.67964,-4.98969 -5.27712,-10.16603 -8.87128,-14.5627 -0.68872,-0.68872 0.28527,-1.66272 0.97399,-0.974 z"
       inkscape:connector-curvature="0" />
    <path
       style="fill:none;stroke:#008000;stroke-width:4.18818903;stroke-linecap:round;stroke-linejoin:bevel;stroke-miterlimit:4;stroke-opacity:1;stroke-dasharray:none;stroke-dashoffset:0"
       id="path8494"
       d="m 484.36595,209.10425 c -3.14368,1.56856 -5.09885,4.46696 -6.75164,7.44572 -1.17108,3.41754 -0.15951,3.83467 2.5874,2.10933 2.78302,-2.5226 4.54225,-5.78195 5.95393,-9.20545 0.25694,-1.81162 2.1363,-4.89458 2.2038,-0.22056 -0.22695,3.40137 0.0979,6.61519 1.10851,9.86455 1.31284,3.97066 2.74762,7.87451 3.65827,11.96448 1.2345,5.18886 -1.81541,6.14052 -6.10353,7.7409 -6.93856,2.02892 -13.99445,3.62192 -20.95882,5.57523 -2.02815,0.63433 -1.26611,0.30449 -2.35405,0.81479 -0.88583,0.40495 -1.45851,-0.84779 -0.57269,-1.25274 l 0,0 c 1.26669,-0.56765 0.43262,-0.2253 2.55477,-0.88831 6.92824,-1.94307 13.94577,-3.53368 20.85155,-5.54035 3.69343,-1.36244 6.29513,-1.69331 5.23814,-6.15067 -0.89948,-4.05438 -2.33419,-7.91917 -3.6296,-11.85639 -1.03843,-3.37609 -1.40755,-6.72074 -1.16985,-10.25219 -0.005,-0.34711 -0.23137,-0.77056 -0.0141,-1.04133 2.01083,-2.5064 0.89071,1.74897 0.46079,1.76831 -1.52823,3.69601 -3.45127,7.20983 -6.52513,9.86489 -0.57131,0.32311 -1.09249,0.75809 -1.71392,0.96934 -3.48141,1.18345 -3.93405,-2.65135 -2.77928,-4.93325 1.84027,-3.3026 4.06323,-6.50049 7.6214,-8.11261 0.94491,-0.23623 1.27899,1.10008 0.33408,1.33631 z"
       inkscape:connector-curvature="0" />
    <path
       style="fill:none;stroke:#008000;stroke-width:4.18818903;stroke-linecap:round;stroke-linejoin:bevel;stroke-miterlimit:4;stroke-opacity:1;stroke-dasharray:none;stroke-dashoffset:0"
       id="path8496"
       d="m 536.33373,177.54916 c -2.79515,5.60495 -7.60572,9.97346 -12.1202,14.2018 -3.17949,3.25489 -7.17872,5.67762 -10.17298,9.11721 -0.0802,0.23236 -0.24398,0.45129 -0.24057,0.69708 0.0274,1.9794 5.17034,5.70005 6.46744,6.73538 4.91276,3.46735 10.19066,6.33604 15.67723,8.77465 1.33413,0.55652 2.6638,1.13866 4.04535,1.57059 0.92933,0.29156 0.517,1.60584 -0.41233,1.31427 l 0,0 c -1.43086,-0.45029 -2.81137,-1.04557 -4.19261,-1.62621 -5.59311,-2.4874 -10.97463,-5.41372 -15.97749,-8.9572 -2.04347,-1.63456 -7.24126,-5.19324 -6.88446,-8.32814 0.0449,-0.39441 0.32139,-0.72594 0.48208,-1.08891 3.05101,-3.45294 7.02093,-5.958 10.26681,-9.21413 4.32268,-4.04737 8.8555,-8.20865 11.71104,-13.46652 0.19102,-0.95508 1.54171,-0.68495 1.35069,0.27013 z"
       inkscape:connector-curvature="0" />
    <path
       style="fill:none;stroke:#008000;stroke-width:4.18818903;stroke-linecap:round;stroke-linejoin:bevel;stroke-miterlimit:4;stroke-opacity:1;stroke-dasharray:none;stroke-dashoffset:0"
       id="path8498"
       d="m 554.80213,175.15615 c 3.59608,3.66208 5.13284,8.67096 6.84952,13.37937 2.08435,5.3933 3.259,11.16938 6.5762,15.98739 0.55625,0.56423 1.36,1.61114 2.27107,1.76787 2.18624,0.37609 5.0078,-4.68579 5.82998,-5.92081 4.50181,-8.59018 8.0804,-17.62188 12.53617,-26.23437 1.65075,-3.00531 3.13736,-6.10856 4.88873,-9.05862 0.49776,-0.83719 1.68174,-0.13325 1.18398,0.70394 l 0,0 c -1.7415,2.92436 -3.20705,6.00896 -4.8494,8.9878 -4.48164,8.65636 -8.06152,17.74463 -12.61403,26.36628 -2.74546,4.09797 -5.63726,9.50903 -10.38344,4.16554 -3.35525,-4.9353 -4.65135,-10.76709 -6.73339,-16.29328 -1.62632,-4.46246 -3.06399,-9.2064 -6.38185,-12.74916 -0.7792,-0.5844 0.0473,-1.68635 0.82646,-1.10195 z"
       inkscape:connector-curvature="0" />
    <path
       style="fill:none;stroke:#008000;stroke-width:4.18818903;stroke-linecap:round;stroke-linejoin:bevel;stroke-miterlimit:4;stroke-opacity:1;stroke-dasharray:none;stroke-dashoffset:0"
       id="path8500"
       d="m 609.12516,194.80688 c -4.55856,-0.41436 -8.20793,2.63409 -11.05621,5.81425 -1.45404,2.21084 -4.02183,6.10795 -1.2748,8.44596 0.43009,0.36605 0.97536,0.5697 1.46304,0.85455 5.66447,2.27917 10.60687,0.98037 15.76308,-1.85041 5.76983,-4.1698 8.15599,-10.46256 9.65425,-17.14557 0.63505,-4.0892 0.64464,-8.86781 -3.50445,-10.97625 -0.36213,0.0177 -0.74507,-0.0692 -1.08638,0.0531 -3.52004,1.26139 -4.67483,8.07237 -5.30591,11.04196 -1.67344,10.13876 -1.26362,20.42631 -0.92136,30.64672 0.38256,6.61472 1.04526,13.20852 1.66251,19.80422 0.0908,0.96976 -1.28069,1.09811 -1.37145,0.12835 l 0,0 c -0.61981,-6.62306 -1.28534,-13.24421 -1.66773,-19.88647 -0.34587,-10.33227 -0.7541,-20.7329 0.95103,-30.98082 0.78191,-3.63595 2.11672,-11.10308 6.6825,-12.13108 0.55849,-0.12575 1.14246,0.0755 1.71369,0.11328 4.96296,2.82401 4.87033,7.33497 4.19138,12.48938 -1.59831,7.07609 -4.19148,13.69293 -10.33989,18.05316 -5.79447,3.1251 -10.84497,4.38502 -17.1537,1.80697 -0.61968,-0.41041 -1.32792,-0.71127 -1.85905,-1.23121 -3.06865,-3.00404 -0.53092,-7.37455 1.37982,-10.1578 3.25239,-3.59115 7.43436,-6.91414 12.5912,-6.17123 0.90433,0.36173 0.39277,1.64065 -0.51157,1.27891 z"
       inkscape:connector-curvature="0" />
    <path
       style="fill:none;stroke:#000000;stroke-width:4.18818903;stroke-linecap:round;stroke-linejoin:bevel;stroke-miterlimit:4;stroke-opacity:1;stroke-dasharray:none;stroke-dashoffset:0"
       id="path8502"
       d="m 322.37242,435.84324 c 7.84746,5.73176 16.03426,10.97807 24.12146,16.36107 7.50963,4.90315 14.77901,10.15642 22.2889,15.0584 0.42942,0.31087 0.85884,0.62173 1.28826,0.9326 0.78867,0.57156 -0.0196,1.6869 -0.80829,1.11534 l 0,0 c -0.41097,-0.29816 -0.82193,-0.59633 -1.23289,-0.89449 -7.51324,-4.90439 -14.78652,-10.15922 -22.29922,-15.0652 -8.12815,-5.41026 -16.35846,-10.68083 -24.24004,-16.44954 -0.74824,-0.62354 0.13357,-1.68172 0.88182,-1.05818 z"
       inkscape:connector-curvature="0" />
    <path
       style="fill:none;stroke:#000000;stroke-width:4.18818903;stroke-linecap:round;stroke-linejoin:bevel;stroke-miterlimit:4;stroke-opacity:1;stroke-dasharray:none;stroke-dashoffset:0"
       id="path8504"
       d="m 317.31399,434.99716 c -0.72513,3.79972 -0.8875,7.67744 -1.03766,11.5338 0.0957,3.08434 -0.66365,6.69035 0.76742,9.58458 0.30039,-0.35665 -0.22554,0.33917 -0.14333,-0.46908 0.0804,-0.79043 0.60257,-1.47807 0.77811,-2.25294 0.35738,-1.57751 0.45639,-2.83065 0.64752,-4.45369 0.42015,-4.23349 0.21705,-8.51471 1.37975,-12.63785 1.65701,-3.85229 5.73942,-4.61355 9.51395,-4.92886 4.65633,-0.10736 8.62307,1.87039 12.48809,4.20668 1.53337,0.84794 0.77166,0.47299 2.27884,1.13752 0.89034,0.39493 0.33182,1.65406 -0.55851,1.25913 l 0,0 c -1.63103,-0.72744 -0.81882,-0.32374 -2.43317,-1.218 -3.6152,-2.18766 -7.30439,-4.08833 -11.66566,-4.01226 -3.16015,0.23928 -6.80777,0.74071 -8.29902,3.93392 -1.16995,4.04272 -0.87745,8.27081 -1.33637,12.42153 -0.16195,1.36312 -0.73066,10.09565 -3.90071,7.59146 -1.39978,-3.18259 -0.92583,-6.83765 -0.8933,-10.2158 0.15418,-3.95055 0.3221,-7.92378 1.07774,-11.81421 0.23623,-0.94492 1.57254,-0.61084 1.33631,0.33407 z"
       inkscape:connector-curvature="0" />
    <path
       style="fill:none;stroke:#000000;stroke-width:4.18818903;stroke-linecap:round;stroke-linejoin:bevel;stroke-miterlimit:4;stroke-opacity:1;stroke-dasharray:none;stroke-dashoffset:0"
       id="path8506"
       d="m 389.40634,452.64579 c 1.61568,5.38587 1.84067,11.03516 1.77241,16.61671 -0.44752,3.31144 0.16432,6.86492 -0.59031,10.14182 -0.40425,-0.27914 -1.03363,-0.37998 -1.21274,-0.83743 -0.0183,-0.0467 0.95254,-3.28369 0.97698,-3.36135 0.89159,-2.83339 1.89132,-5.61826 2.95151,-8.39208 1.80047,-3.90981 3.45476,-8.23889 6.76874,-11.14896 0.34577,-0.0578 0.71068,-0.30083 1.03729,-0.17348 2.10404,0.82042 1.74197,7.54254 1.79289,9.3669 0.41705,3.08831 -0.56937,6.43765 0.38609,9.44664 0.063,0.12854 0.32609,0.42672 0.18897,0.38562 -0.95432,-0.28607 0.95657,-3.50727 1.18282,-4.00724 1.15396,-2.55338 2.91156,-4.62672 5.24021,-6.15501 2.95578,-0.87381 3.31138,3.59556 3.6149,5.53799 0.0158,0.16462 0.48534,4.02916 0.39183,4.04308 -0.17441,0.0259 -0.10151,-0.34714 -0.21171,-0.48479 -0.10458,-0.13062 -0.2728,-0.19384 -0.4092,-0.29076 1.66521,-3.08264 3.02642,-6.27693 5.03593,-9.16772 0.89751,-1.13893 3.27989,-4.51592 5.16743,-2.91307 0.32819,0.27869 0.47214,0.72015 0.70821,1.08023 1.06116,2.59134 1.28312,5.40057 2.25958,8.01402 0.44234,0.45877 0.30144,0.55482 0.49458,0.13078 0.97384,-0.0176 0.99873,1.35961 0.0249,1.37721 l 0,0 c -1.5281,-0.29986 -0.95241,0.0877 -1.81054,-1.02792 -0.94933,-2.56431 -1.22214,-5.2936 -2.18885,-7.85526 -0.5061,-2.16401 -3.05702,1.341 -3.52559,1.98211 -2.04686,2.92294 -3.34664,6.2029 -5.12105,9.2775 -0.40413,0.21455 -0.75484,0.64697 -1.21238,0.64365 -0.84798,-0.006 -0.81632,-4.01405 -0.96428,-4.59787 -0.24336,-1.58052 -0.60908,-2.89909 -1.17184,-4.3645 -0.0328,-0.0854 0.0688,-0.22166 -0.006,-0.27428 -0.0888,-0.0625 -0.21519,0.0286 -0.32279,0.0429 -2.11616,1.37383 -3.69344,3.25772 -4.73843,5.56967 -0.53536,1.18254 -2.27958,6.41003 -3.94406,3.45592 -0.93588,-3.16065 -0.1136,-6.5706 -0.4456,-9.8106 -0.073,-2.63022 -0.0736,-5.76312 -0.55376,-8.18858 -3.18716,2.68584 -4.62235,6.96473 -6.38167,10.59776 -1.0485,2.74077 -2.03645,5.49306 -2.91786,8.29292 -0.21125,0.67105 -0.40536,1.3474 -0.60195,2.0229 -0.12324,0.42346 -0.0115,1.00044 -0.35751,1.27387 -0.3835,0.30302 -0.97169,0.10687 -1.45754,0.1603 0.35748,-3.24737 0.39489,-6.54312 0.54549,-9.81003 0.0682,-5.4026 -0.14219,-10.86641 -1.67399,-16.08803 -0.36173,-0.90433 0.91719,-1.4159 1.27892,-0.51157 z"
       inkscape:connector-curvature="0" />
    <path
       style="fill:none;stroke:#000000;stroke-width:4.18818903;stroke-linecap:round;stroke-linejoin:bevel;stroke-miterlimit:4;stroke-opacity:1;stroke-dasharray:none;stroke-dashoffset:0"
       id="path8508"
       d="m 438.85802,455.32465 c 0.76008,3.72207 0.90982,7.52843 1.07759,11.31254 0.0437,1.61505 0.0479,3.20647 0.29451,4.80277 0.14459,0.96321 -1.21759,1.16768 -1.36218,0.20448 l 0,0 c -0.24074,-1.64569 -0.28037,-3.28199 -0.30842,-4.94627 -0.16353,-3.69226 -0.30681,-7.40588 -1.03781,-11.03944 -0.23623,-0.94492 1.10008,-1.279 1.33631,-0.33408 z"
       inkscape:connector-curvature="0" />
    <path
       style="fill:none;stroke:#000000;stroke-width:4.18818903;stroke-linecap:round;stroke-linejoin:bevel;stroke-miterlimit:4;stroke-opacity:1;stroke-dasharray:none;stroke-dashoffset:0"
       id="path8510"
       d="m 454.1582,457.5948 c 2.05622,2.3677 2.75916,5.49912 3.36137,8.49451 0.19074,0.90768 0.28595,1.8303 0.41818,2.74683 0.0623,0.43168 -0.94156,0.0864 -1.29803,-0.16492 -0.215,-0.15159 0.006,-0.52611 0.008,-0.78916 -0.18133,-3.38405 -0.003,-6.57478 1.20826,-9.75563 1.51228,-2.97087 3.86599,-5.10616 7.10868,-5.91666 4.31278,0.068 4.94919,5.33122 5.66679,8.65662 0.75247,3.42308 0.64371,6.96379 1.25373,10.39878 0.16774,0.95944 -1.18911,1.19666 -1.35685,0.23722 l 0,0 c -0.58977,-3.42221 -0.52344,-6.93557 -1.2436,-10.34671 -0.49154,-2.29916 -1.02769,-7.32607 -4.00236,-7.60561 -2.80713,0.61916 -4.80826,2.5728 -6.14096,5.07133 -1.17643,3.01904 -1.27065,6.06129 -1.11635,9.27758 -0.0159,1.14197 0.25609,1.13392 -1.36575,1.39424 -0.0694,0.0111 -0.44039,-2.83657 -0.49053,-2.93296 -0.54587,-2.7267 -1.1501,-5.60867 -2.98484,-7.79147 -0.68872,-0.68871 0.28527,-1.66271 0.97399,-0.97399 z"
       inkscape:connector-curvature="0" />
    <path
       style="fill:none;stroke:#000000;stroke-width:4.18818903;stroke-linecap:round;stroke-linejoin:bevel;stroke-miterlimit:4;stroke-opacity:1;stroke-dasharray:none;stroke-dashoffset:0"
       id="path8512"
       d="m 490.31104,449.62802 c 1.07725,-1.07454 3.37482,-4.57963 4.97594,-4.73131 0.39883,-0.0378 0.77956,0.18508 1.16934,0.27763 1.5411,2.34057 1.46037,5.23372 2.18978,7.8545 0.58492,2.10166 0.87095,2.4471 1.82631,4.33977 3.14198,4.20105 5.9334,4.20475 10.25379,1.77855 4.33326,-3.38504 6.05117,-8.47149 7.25565,-13.62837 0.28289,-1.44098 0.45012,-2.87669 0.82598,-4.29516 0.25346,-0.94044 1.58344,-0.582 1.32998,0.35844 l 0,0 c -0.38483,1.40034 -0.50894,2.82989 -0.81485,4.25099 -1.30321,5.5437 -3.21268,10.95308 -7.93234,14.5207 -5.38636,2.91489 -8.30807,2.64083 -12.14951,-2.36772 -1.82137,-3.65467 -2.71492,-7.55792 -3.37519,-11.56721 0.0228,-1.21084 -4.1859,3.58254 -4.45293,4.03565 -0.5844,0.7792 -1.68635,-0.0473 -1.10195,-0.82646 z"
       inkscape:connector-curvature="0" />
    <path
       style="fill:none;stroke:#000000;stroke-width:4.18818903;stroke-linecap:round;stroke-linejoin:bevel;stroke-miterlimit:4;stroke-opacity:1;stroke-dasharray:none;stroke-dashoffset:0"
       id="path8514"
       d="m 539.44489,423.57011 c 1.01019,-3.85553 2.65963,-6.59401 6.06983,-8.69834 3.13314,-1.47191 7.0326,-2.24769 9.92425,0.22961 0.57557,0.4931 0.98703,1.15043 1.48055,1.72564 3.46635,5.71185 0.96026,11.40264 -2.10108,16.6303 -3.42373,5.10072 -7.73934,9.59068 -12.7919,13.0868 -1.03107,0.72418 -2.17831,1.22767 -3.30456,1.77227 -0.10869,0.0525 -0.32492,0.29817 -0.31555,0.1778 0.11673,-1.49858 0.29948,-1.16757 1.40475,-1.12575 5.15196,0.0177 10.30402,-0.0435 15.45592,-0.0719 5.19077,0.16486 9.54969,-0.17376 13.57997,-3.67127 0.74075,-0.63241 1.63512,0.41518 0.89437,1.04759 l 0,0 c -4.492,3.7807 -8.73656,4.15088 -14.46672,4.0011 -5.17506,0.0286 -10.35031,0.0913 -15.52541,0.0706 -5.64545,-0.28745 0.69795,-2.82505 1.49484,-3.33404 4.89575,-3.36941 9.06029,-7.73179 12.38672,-12.651 2.76582,-4.68933 5.25587,-9.83912 2.23077,-15.05025 -2.96859,-3.6866 -5.49478,-3.40142 -9.63365,-1.65905 -2.96611,1.75467 -4.58326,4.46105 -5.43242,7.7901 -0.19101,0.95508 -1.5417,0.68494 -1.35068,-0.27014 z"
       inkscape:connector-curvature="0" />
    <path
       style="fill:none;stroke:#000000;stroke-width:4.18818903;stroke-linecap:round;stroke-linejoin:bevel;stroke-miterlimit:4;stroke-opacity:1;stroke-dasharray:none;stroke-dashoffset:0"
       id="path8516"
       d="m 583.14805,405.7894 c 3.78001,-0.71526 7.62227,-1.11311 11.43485,-0.51252 4.06058,1.43083 5.33477,3.15632 2.85056,6.98832 -2.42638,2.41277 -5.45166,4.09156 -8.08973,6.23835 0.0103,0.36184 -0.9868,0.60337 -0.98362,1.09366 6e-4,0.091 0.1855,-0.0399 0.27259,-0.0136 0.14707,0.0444 0.27064,0.1455 0.40579,0.21858 0.88009,0.47586 1.38251,0.74932 2.30528,1.2504 3.38866,1.68521 5.27786,4.68419 6.41847,8.16619 0.93977,4.58294 -3.16039,5.60841 -6.68121,6.62942 -2.81128,0.78582 -5.89473,0.94912 -8.28773,2.75952 -0.7815,0.58131 -1.60361,-0.52389 -0.82211,-1.10521 l 0,0 c 2.56044,-1.87858 5.714,-2.21974 8.7264,-2.9773 2.69898,-0.78178 6.41431,-1.24876 5.75441,-4.88145 -1.0122,-3.15543 -2.69232,-5.86559 -5.76558,-7.38071 -2.17938,-1.1836 -5.25341,-2.34692 -2.2097,-4.82989 2.54239,-2.0508 5.3988,-3.71189 7.81088,-5.93243 1.95597,-2.82971 1.28937,-3.62472 -1.92392,-4.86402 -3.62352,-0.59895 -7.28527,-0.16316 -10.88156,0.48895 -0.94491,0.23623 -1.27899,-1.10009 -0.33407,-1.33631 z"
       inkscape:connector-curvature="0" />
    <path
       style="fill:none;stroke:#000000;stroke-width:4.18818903;stroke-linecap:round;stroke-linejoin:bevel;stroke-miterlimit:4;stroke-opacity:1;stroke-dasharray:none;stroke-dashoffset:0"
       id="path8518"
       d="m 616.40324,443.25952 c -1.08106,5.10638 -4.44962,9.42838 -7.63415,13.43326 -1.68376,2.31447 -3.62049,4.42155 -5.62217,6.45993 -0.68256,0.69482 -1.66518,-0.27047 -0.98262,-0.96529 l 0,0 c 1.96889,-2.00347 3.8731,-4.0752 5.52692,-6.35227 3.00143,-3.7697 6.15975,-7.81626 7.33458,-12.57563 0,-0.974 1.37744,-0.974 1.37744,0 z"
       inkscape:connector-curvature="0" />
    <path
       style="fill:none;stroke:#000000;stroke-width:4.18818903;stroke-linecap:round;stroke-linejoin:bevel;stroke-miterlimit:4;stroke-opacity:1;stroke-dasharray:none;stroke-dashoffset:0"
       id="path8520"
       d="m 638.7799,392.41604 c -3.60241,2.47565 -5.20145,6.72297 -6.64169,10.6736 -0.20375,1.32457 -2.18056,5.23354 -0.47021,6.41258 0.31101,0.21439 1.38129,-0.45283 1.40663,-0.46527 3.01896,-2.59378 4.94062,-6.26918 6.87177,-9.70497 0.10503,-0.29104 0.21007,-0.58209 0.3151,-0.87313 -0.0247,-0.0815 -0.127,-0.31107 -0.074,-0.24444 0.1759,0.22116 0.42601,0.43652 0.45067,0.71802 0.0181,0.20679 -0.23545,0.34227 -0.34219,0.52031 -0.22636,0.37758 -0.47808,0.74349 -0.6567,1.14586 -0.25589,0.57643 -0.42803,1.18651 -0.64205,1.77977 -1.70479,5.62894 -1.60245,11.37515 -0.67614,17.11375 1.74623,6.78691 3.76145,13.49465 5.29406,20.33821 1.43458,8.11926 -1.13459,9.97574 -8.60218,11.8898 -5.56827,1.07768 -11.1638,1.24261 -16.69095,-0.0317 -0.9486,-0.22097 -0.6361,-1.56249 0.3125,-1.34152 l 0,0 c 5.30639,1.24971 10.69053,1.04837 16.04054,0.0378 6.736,-1.68084 8.89034,-2.84649 7.59593,-10.25351 -1.53787,-6.87117 -3.57266,-13.60262 -5.30992,-20.42077 -0.95426,-5.973 -1.0504,-11.9558 0.74329,-17.80734 0.36971,-0.98959 1.8775,-5.96249 3.858,-3.77302 0.30812,0.34063 -0.36957,1.75654 -0.41525,1.87685 -2.09046,3.71779 -4.15771,7.75434 -7.63825,10.33717 -0.58064,0.14602 -1.14429,0.47404 -1.74193,0.43806 -3.66054,-0.22042 -1.45869,-6.48537 -0.9225,-8.16527 1.56816,-4.28311 3.34898,-8.82826 7.31947,-11.43292 0.87117,-0.43559 1.48718,0.79643 0.61601,1.23201 z"
       inkscape:connector-curvature="0" />
    <path
       style="fill:none;stroke:#000000;stroke-width:4.18818903;stroke-linecap:round;stroke-linejoin:bevel;stroke-miterlimit:4;stroke-opacity:1;stroke-dasharray:none;stroke-dashoffset:0"
       id="path8522"
       d="m 687.89261,426.40983 c -3.90912,-0.92892 -7.74606,-0.82474 -11.58791,0.28219 -4.07718,1.82147 -6.4774,5.22459 -6.73174,9.65925 1.40539,5.18533 7.57249,5.04439 11.92789,4.88489 3.43497,-0.31191 6.36201,-1.77098 9.33353,-3.37543 0.85809,-0.46081 1.50977,0.75272 0.65168,1.21353 l 0,0 c -3.16669,1.69183 -6.28367,3.22724 -9.93786,3.53852 -5.24539,0.16942 -12.05884,-0.0641 -13.34926,-6.35845 0.42894,-5.25717 2.89996,-8.69535 7.7296,-10.88739 4.08157,-1.14286 8.15163,-1.29332 12.29814,-0.29342 0.94492,0.23623 0.61084,1.57254 -0.33407,1.33631 z"
       inkscape:connector-curvature="0" />
    <path
       style="fill:none;stroke:#000000;stroke-width:4.18818903;stroke-linecap:round;stroke-linejoin:bevel;stroke-miterlimit:4;stroke-opacity:1;stroke-dasharray:none;stroke-dashoffset:0"
       id="path8524"
       d="m 703.43862,422.12518 c 1.19466,4.14277 0.92333,8.53205 0.66685,12.78265 0.0441,0.83344 -1.06181,10.52701 -0.42725,10.46267 -0.10808,-0.16982 -0.38298,-0.31692 -0.32425,-0.50946 0.12927,-0.42377 0.55812,-0.68997 0.8028,-1.05933 0.40979,-0.61859 0.79792,-1.25233 1.15826,-1.90097 1.56333,-2.81411 3.00802,-5.71137 4.42455,-8.60116 1.9548,-3.9093 3.94806,-8.19695 7.45958,-10.97852 0.3521,-0.0221 0.75713,-0.25329 1.0563,-0.0663 1.86429,1.16525 1.46175,7.78671 1.4971,9.70932 0.13555,1.92072 -0.10424,3.86307 0.0116,5.78304 0.0147,0.24357 0.19441,0.47904 0.14387,0.71777 -0.0671,0.31678 -0.18983,-0.62921 -0.1882,-0.95301 2.05546,-3.59758 4.17954,-7.13487 6.55315,-10.5347 2.15117,-3.21471 4.10191,-3.95315 5.30984,0.33355 0.48841,1.55495 0.1564,3.27653 0.67977,4.81464 0.045,0.13214 0.32015,0.43816 0.19933,0.36826 -0.16193,-0.0937 -0.2251,-0.29886 -0.33766,-0.44829 2.23364,-2.70326 4.21368,-5.59087 6.42474,-8.31267 1.62243,-1.93744 3.47046,-4.78911 5.22681,-1.11466 0.69404,2.78564 0.48864,5.18377 3.03644,6.9079 0.7942,0.56383 -0.003,1.687 -0.79738,1.12317 l 0,0 c -2.79518,-2.056 -2.87004,-4.26787 -3.50531,-7.48891 -0.0763,-0.2209 -0.18431,-0.4333 -0.22901,-0.66271 -0.0194,-0.0995 0.10272,-0.2209 0.0411,-0.30147 -0.53756,-0.70306 -2.55214,2.3282 -2.70362,2.4053 -2.39036,2.94124 -4.35632,6.34193 -7.24692,8.79919 -0.38208,-0.10033 -0.81669,-0.0832 -1.14624,-0.30099 -0.88605,-0.58565 -0.56001,-4.43861 -0.9719,-5.4298 -0.73507,-2.88155 -0.9633,-2.51677 -2.85064,0.0961 -2.40942,3.44991 -4.52788,7.05923 -6.66696,10.67667 -0.40907,0.29544 -0.72647,0.82408 -1.22723,0.88632 -1.861,0.23131 -0.96151,-6.35527 -1.13279,-7.33946 -0.0291,-1.59289 -0.0407,-3.02905 -0.12726,-4.6189 -0.0598,-1.09746 -0.32554,-2.18037 -0.34363,-3.2793 -0.003,-0.1668 0.1129,-0.31397 0.16935,-0.47096 -0.0101,-0.0703 -0.0202,-0.14057 -0.0302,-0.21085 -3.39359,2.56346 -5.15915,6.85666 -7.06724,10.49673 -2.55577,5.21008 -0.46589,1.04936 -3.11271,6.05816 -0.71401,1.35119 -2.33315,5.17871 -3.75819,6.05124 -0.42643,0.2611 -0.98682,0.16202 -1.48023,0.24303 -0.16196,-0.26245 -0.4046,-0.48986 -0.48589,-0.78736 -0.18558,-0.67921 0.0166,-2.47141 0.055,-3.01321 0.18014,-2.54431 0.35946,-5.08868 0.53625,-7.63322 0.24367,-4.01975 0.49207,-8.14174 -0.52394,-12.08349 -0.43558,-0.87116 0.79644,-1.48717 1.23202,-0.61601 z"
       inkscape:connector-curvature="0" />
    <path
       style="fill:none;stroke:#000000;stroke-width:4.18818903;stroke-linecap:round;stroke-linejoin:bevel;stroke-miterlimit:4;stroke-opacity:1;stroke-dasharray:none;stroke-dashoffset:0"
       id="path8526"
       d="m 797.3642,402.25863 c -5.41103,5.76087 -10.10282,12.11049 -14.64787,18.56038 -6.01983,8.27421 -11.78059,16.73639 -17.31521,25.34236 -1.92309,3.09523 -1.03895,1.64749 -2.66101,4.33796 -0.50291,0.83411 -1.68253,0.12289 -1.17962,-0.71123 l 0,0 c 1.63544,-2.71231 0.74428,-1.25326 2.68212,-4.37184 5.5458,-8.6219 11.31623,-17.101 17.3478,-25.39076 4.59116,-6.51359 9.33139,-12.9257 14.79979,-18.74087 0.68872,-0.68872 1.66272,0.28528 0.974,0.974 z"
       inkscape:connector-curvature="0" />
    <path
       style="fill:none;stroke:#000000;stroke-width:4.18818903;stroke-linecap:round;stroke-linejoin:bevel;stroke-miterlimit:4;stroke-opacity:1;stroke-dasharray:none;stroke-dashoffset:0"
       id="path8528"
       d="m 814.95093,415.71986 c -3.24834,0.45904 -6.20345,1.7414 -8.65056,3.91559 -2.55327,2.84546 -0.69641,4.59332 1.49274,6.87602 3.36915,3.12556 5.918,4.90071 6.68508,9.67466 -1.12338,5.30256 -6.76199,6.76429 -11.49679,7.17953 -0.79602,-0.0851 -1.59204,-0.17018 -2.38806,-0.25527 -0.96791,-0.10873 -0.81414,-1.47756 0.15377,-1.36883 l 0,0 c 0.7071,0.0838 1.41421,0.16754 2.12132,0.2513 3.92569,-0.29938 8.87895,-1.38207 10.24703,-5.60596 -0.53608,-4.0944 -3.42943,-6.27769 -6.31903,-8.92466 -2.76477,-2.91245 -4.59437,-5.37666 -1.40522,-8.86157 2.63257,-2.2904 5.74888,-3.73253 9.22564,-4.21712 0.94491,-0.23623 1.27899,1.10008 0.33408,1.33631 z"
       inkscape:connector-curvature="0" />
  </g>
</svg>
