<?xml version="1.0" encoding="UTF-8" standalone="no"?>
<!-- Created with Inkscape (http://www.inkscape.org/) -->

<svg
   xmlns:dc="http://purl.org/dc/elements/1.1/"
   xmlns:cc="http://creativecommons.org/ns#"
   xmlns:rdf="http://www.w3.org/1999/02/22-rdf-syntax-ns#"
   xmlns:svg="http://www.w3.org/2000/svg"
   xmlns="http://www.w3.org/2000/svg"
   xmlns:sodipodi="http://sodipodi.sourceforge.net/DTD/sodipodi-0.dtd"
   xmlns:inkscape="http://www.inkscape.org/namespaces/inkscape"
   width="297mm"
   height="210mm"
   id="svg6735"
   version="1.1"
   inkscape:version="0.48.0 r9654"
   sodipodi:docname="Nouveau document 13">
  <defs
     id="defs6737" />
  <sodipodi:namedview
     inkscape:document-units="mm"
     pagecolor="#ffffff"
     bordercolor="#666666"
     borderopacity="1.0"
     inkscape:pageopacity="0.0"
     inkscape:pageshadow="2"
     inkscape:zoom="0.43415836"
     inkscape:cx="490"
     inkscape:cy="380"
     inkscape:current-layer="layer1"
     id="namedview6739"
     showgrid="false"
     inkscape:window-width="1378"
     inkscape:window-height="790"
     inkscape:window-x="60"
     inkscape:window-y="60"
     inkscape:window-maximized="0" />
  <metadata
     id="metadata6741">
    <rdf:RDF>
      <cc:Work
         rdf:about="">
        <dc:format>image/svg+xml</dc:format>
        <dc:type
           rdf:resource="http://purl.org/dc/dcmitype/StillImage" />
        <dc:title></dc:title>
      </cc:Work>
    </rdf:RDF>
  </metadata>
  <g
     inkscape:label="Layer 1"
     inkscape:groupmode="layer"
     id="layer1">
    <path
       style="fill:#000000;fill-opacity:1;fill-rule:nonzero;stroke:#000000;stroke-width:1.67244089000000007;stroke-linecap:round;stroke-linejoin:bevel;stroke-miterlimit:4;stroke-opacity:1;stroke-dasharray:none;stroke-dashoffset:0"
       id="path6744"
       d="m 64.732539,100.80126 c 1.577329,18.04225 1.48164,36.18209 2.077254,54.27295 1.38422,32.29935 2.919954,64.58215 3.713342,96.90434 0.560759,38.76044 0.825158,77.51683 2.211204,116.2595 1.397772,35.39737 3.325212,70.77322 5.272321,106.14435 1.405118,24.79799 2.11905,49.62521 2.486323,74.45781 0.611188,14.27007 -0.437714,28.50103 -1.239011,42.73626 -0.553941,10.01744 -0.789281,20.04831 -0.907312,30.07915 -0.05379,5.10081 -0.05328,10.20194 -0.04686,15.30296 0.230881,3.9433 -0.06531,7.7339 -1.25236,11.50527 -0.460846,1.67524 -1.188848,2.494 -2.309142,3.9046 -5.040553,4.1273 -10.877438,-3.00112 -5.836885,-7.12842 l 0,0 c -2.150793,3.0804 -0.862725,1.3442 -0.625985,0.40684 0.94452,-2.85076 0.955203,-5.67879 0.811151,-8.67671 -0.0065,-5.14107 -0.0068,-10.28226 0.0475,-15.42312 0.120033,-10.16735 0.359316,-20.3347 0.921238,-30.48845 0.789301,-14.01759 1.834748,-28.03004 1.225451,-42.0822 -0.365095,-24.70912 -1.075141,-49.4129 -2.473401,-74.08758 -1.950353,-35.43017 -3.880683,-70.86509 -5.280366,-106.32156 -1.385574,-38.77712 -1.656642,-77.56779 -2.214315,-116.36271 -0.792149,-32.2966 -2.329991,-64.55365 -3.711136,-96.82751 -0.585067,-17.81066 -0.504438,-35.66734 -2.011086,-53.43301 -0.808054,-6.464431 8.334028,-7.607191 9.142082,-1.14276 z"
       inkscape:connector-curvature="0" />
    <path
       style="fill:#000000;fill-opacity:1;fill-rule:nonzero;stroke:#000000;stroke-width:1.67244089;stroke-linecap:round;stroke-linejoin:bevel;stroke-miterlimit:4;stroke-opacity:1;stroke-dasharray:none;stroke-dashoffset:0"
       id="path6746"
       d="m 69.990044,638.87063 c 9.963188,3.56299 20.171368,6.31357 30.531136,8.42611 29.22489,4.13949 58.87487,4.04706 88.33327,4.45043 36.43882,-0.3151 72.80353,1.98899 109.12104,4.66335 33.27614,2.51802 66.53548,5.16433 99.91018,5.79669 27.48478,-0.043 54.98546,-0.0939 82.45765,-0.99809 23.71571,-0.66461 47.29386,-3.42533 70.94501,-5.11938 19.91958,-1.49156 39.90258,-1.35184 59.8507,-2.0819 20.66365,-0.83419 41.27215,-2.73385 61.84634,-4.77903 22.14668,-2.27895 44.31497,-4.29275 66.50006,-6.16313 21.37994,-1.92676 42.72404,-4.20436 64.07549,-6.41605 18.3793,-1.89236 36.84555,-2.60892 55.30895,-2.97684 14.76883,-0.22013 29.53982,-0.19099 44.30983,-0.1767 11.38189,0.0161 22.76378,0.029 34.14568,0.035 11.12301,-0.75055 21.71744,1.66289 32.21773,4.97382 6.23431,2.52631 12.68434,4.41923 18.9546,6.83386 7.33496,2.96219 6.65344,0.28222 0.38552,9.98524 -6.65647,-3.41778 -12.83409,-7.58668 -18.76175,-12.13228 -6.98417,-5.96026 -13.44256,-12.5144 -20.41623,-18.48075 -2.92385,-2.64106 -5.79342,-5.35641 -8.41929,-8.29768 -2.49147,-2.92878 -1.30635,-1.71668 6.961,-6.18232 0.39525,-0.21349 0.69501,0.57256 1.07254,0.81602 1.07091,0.6906 4.00479,2.23936 4.85576,2.69948 8.45826,4.06715 16.64144,8.56036 24.66592,13.41681 5.32666,3.24483 10.23139,7.09568 15.63328,10.21795 4.57042,2.87052 4.98318,7.99091 5.23217,12.8883 -0.31168,8.96242 -8.76,11.79746 -15.90665,14.46008 -11.91698,4.66684 -24.27472,7.95867 -36.51395,11.63665 -9.80083,3.01947 -4.92189,1.56539 -14.63565,4.36607 -6.25993,1.80419 -8.81143,-7.04869 -2.5515,-8.85287 l 0,0 c 9.57337,-2.75808 4.72732,-1.31516 14.5358,-4.33668 12.05431,-3.62195 24.22723,-6.85384 35.96344,-11.45214 0.84115,-0.30991 9.15093,-3.10449 9.69595,-4.22193 0.17145,-0.35152 0.14005,-0.76955 0.21007,-1.15432 -0.0659,-1.45914 0.18055,-4.44291 -0.64698,-5.36045 -5.44882,-3.16108 -10.43783,-6.98784 -15.78629,-10.30854 -7.90057,-4.78147 -15.96229,-9.19169 -24.28858,-13.20045 -0.81846,-0.44523 -8.12714,-4.43285 -7.87174,-4.92566 1.40696,-2.71484 3.99673,-4.62898 6.02189,-6.91996 0.0816,-0.0924 0.1067,0.9815 0.23381,0.28654 2.34381,2.64035 4.93259,5.05425 7.53741,7.43206 6.8347,5.87622 13.22406,12.25738 20.03178,18.16851 5.32365,4.10069 10.87008,7.83699 16.8164,10.98624 -2.50666,11.32491 -0.0161,9.82277 -7.36525,7.06376 -6.09201,-2.34632 -12.36419,-4.17212 -18.4152,-6.64512 -9.61148,-3.03335 -19.25285,-5.30817 -29.45092,-4.54701 -11.38324,-0.006 -22.76646,-0.019 -34.14968,-0.035 -14.70596,-0.0142 -29.41287,-0.0434 -44.11765,0.17489 -18.2076,0.36167 -36.41821,1.06468 -54.543,2.92963 -21.40984,2.21748 -42.8123,4.50138 -64.25076,6.43251 -22.13941,1.86623 -44.26199,3.87565 -66.36297,6.15054 -20.7656,2.0628 -41.56563,3.97899 -62.42156,4.81807 -19.84095,0.72127 -39.7158,0.59115 -59.52857,2.0645 -23.76956,1.70113 -47.4656,4.47876 -71.30059,5.13793 -27.63161,0.90525 -55.29143,0.96535 -82.93566,1.00138 -33.54176,-0.64344 -66.96871,-3.28054 -100.41128,-5.8199 -36.13427,-2.66185 -72.31537,-4.95676 -108.57053,-4.63933 -30.03519,-0.41182 -60.27139,-0.31698 -90.057393,-4.63728 -10.58268,-2.18043 -21.034742,-4.9318 -31.211851,-8.59288 -6.264075,-1.78973 -3.733006,-10.64847 2.531068,-8.85874 z"
       inkscape:connector-curvature="0" />
    <path
       style="fill:#000000;fill-opacity:1;fill-rule:nonzero;stroke:#000000;stroke-width:1.67244089;stroke-linecap:round;stroke-linejoin:bevel;stroke-miterlimit:4;stroke-opacity:1;stroke-dasharray:none;stroke-dashoffset:0"
       id="path6748"
       d="m 59.953656,112.98789 c -4.722008,7.46324 -9.911083,14.62137 -14.71419,22.02848 -1.128933,0.98592 -3.280104,7.58058 -5.454303,7.32985 -7.891389,-0.91005 -6.761313,-1.34019 -7.232016,-6.50614 1.250233,-5.7475 3.133824,-11.33231 4.782012,-16.97408 1.09851,-3.69147 1.25073,-7.53451 2.937636,-11.02406 2.055517,-3.44197 5.19401,-5.12128 8.99751,-5.94345 7.350885,-1.00121 14.266288,2.33627 21.104887,4.5066 9.007036,2.45902 17.413128,6.4443 25.803437,10.44676 -1.608845,-2.03345 10.802431,6.35963 8.534111,4.43391 6.45579,0.87439 5.21921,10.00426 -1.23658,9.12986 l 0,0 c -0.93604,-0.23474 -1.89979,-0.37835 -2.80813,-0.70423 -2.955701,-1.06041 -5.185978,-4.0821 -8.456295,-4.54405 -8.010802,-3.82167 -16.021663,-7.65498 -24.630043,-9.98274 -5.345873,-1.70503 -10.838879,-4.45708 -16.552816,-4.24227 -1.092296,0.15008 -1.832093,0.29432 -2.576288,1.13925 -1.757697,2.55472 -0.713597,6.63463 -2.273947,9.36829 -1.451973,4.96883 -2.961556,9.91986 -4.42552,14.88423 -6.081932,-6.68675 -10.09807,3.33724 -5.854336,-3.71 0.530139,-0.88037 1.076262,-1.751 1.614393,-2.6265 4.888532,-7.51384 10.131762,-14.79788 14.943366,-22.36479 3.786613,-5.30126 11.283725,0.0538 7.497112,5.35508 z"
       inkscape:connector-curvature="0" />
    <path
       style="fill:#000000;fill-opacity:1;fill-rule:nonzero;stroke:#000000;stroke-width:1.67244089;stroke-linecap:round;stroke-linejoin:bevel;stroke-miterlimit:4;stroke-opacity:1;stroke-dasharray:none;stroke-dashoffset:0"
       id="path6750"
       d="m 162.47186,82.375129 c -3.92394,9.735053 -8.72839,19.610081 -15.95086,27.381361 -1.66587,1.79246 -3.5881,3.32832 -5.38215,4.99249 -7.36422,5.27028 -19.49033,13.33443 -28.31452,5.86044 -1.63731,-1.38678 -2.54794,-3.45309 -3.8219,-5.17963 -0.48211,-2.15235 -1.28509,-4.25728 -1.44633,-6.45706 -0.77289,-10.545127 4.69462,-21.523974 10.66155,-29.820774 1.78637,-2.483896 3.88613,-4.726684 5.82919,-7.090026 12.35029,-14.014603 28.89995,-22.51544 45.23477,-30.922634 5.70362,-2.789945 11.22421,-5.878495 16.59463,-9.255469 5.52049,-3.459194 10.41253,4.347952 4.89204,7.807146 l 0,0 c -5.60048,3.498207 -11.32902,6.745979 -17.2713,9.640651 -15.22861,7.833904 -30.75984,15.628508 -42.35923,28.612704 -7.70882,9.197218 -15.5032,20.009865 -14.27844,32.673712 0.19628,0.67415 0.23649,1.4151 0.58883,2.02244 3.18193,5.48483 14.53574,-2.65765 17.47427,-4.69146 1.47427,-1.32369 3.06009,-2.53279 4.42279,-3.97106 6.54326,-6.906129 10.8091,-15.822996 14.38623,-24.51631 2.06014,-6.180421 10.80057,-3.266942 8.74043,2.913479 z"
       inkscape:connector-curvature="0" />
    <path
       style="fill:#000000;fill-opacity:1;fill-rule:nonzero;stroke:#000000;stroke-width:1.67244089;stroke-linecap:round;stroke-linejoin:bevel;stroke-miterlimit:4;stroke-opacity:1;stroke-dasharray:none;stroke-dashoffset:0"
       id="path6752"
       d="m 68.428645,375.32542 c 14.677916,-2.25702 28.545701,-7.92245 42.273345,-13.35978 30.242,-11.85527 60.32632,-24.0944 90.69208,-35.63321 44.16432,-17.05216 88.77272,-32.89036 133.62443,-48.02953 44.09513,-14.43386 88.16298,-28.89012 131.8119,-44.62725 39.06126,-14.24937 77.23112,-30.73637 115.25197,-47.52199 35.90061,-16.14862 72.37,-30.96569 109.27745,-44.64289 30.68156,-10.89103 61.16812,-22.25864 91.17223,-34.90251 12.58107,-5.74311 25.9557,-10.667878 37.04679,-19.143145 5.20111,-3.923034 10.74912,3.432452 5.548,7.355486 l 0,0 c -11.80271,8.811049 -25.63,14.374849 -39.01727,20.277939 -30.12922,12.69434 -60.73911,24.11742 -91.54863,35.05146 -36.73328,13.60911 -73.02728,28.36112 -108.75764,44.43208 -38.21698,16.87145 -76.58485,33.44016 -115.84811,47.76071 -43.70834,15.758 -87.83471,30.23778 -131.99026,44.6895 -44.74255,15.10153 -89.2419,30.9017 -133.29836,47.9126 -30.32651,11.52258 -60.37035,23.74865 -90.57332,35.58713 -14.45136,5.7181 -29.059423,11.62693 -44.521845,13.93548 -6.464428,0.80805 -7.607188,-8.33403 -1.14276,-9.14208 z"
       inkscape:connector-curvature="0" />
    <path
       style="fill:#ff0000;fill-opacity:1;fill-rule:nonzero;stroke:#000000;stroke-width:1.67244089000000007;stroke-linecap:round;stroke-linejoin:bevel;stroke-miterlimit:4;stroke-opacity:1;stroke-dasharray:none;stroke-dashoffset:0"
       id="path6754"
       d="m 81.4189,640.35306 c 5.34546,-4.78814 9.486179,-10.69178 13.682215,-16.46553 7.654835,-11.32097 15.516015,-22.48005 23.767675,-33.37531 10.20409,-13.42455 20.37664,-26.87013 30.54742,-40.32034 11.09591,-14.15952 22.92241,-27.7124 33.37728,-42.36535 9.20146,-13.52712 18.11135,-27.24844 26.22512,-41.45661 8.06725,-13.86433 16.28804,-27.63889 24.9268,-41.15553 8.09616,-12.95154 17.17765,-25.17271 27.39646,-36.51175 9.80291,-9.6606 18.57712,-20.24955 27.63072,-30.59482 8.60506,-9.67838 17.65607,-18.93666 26.32473,-28.55682 7.35963,-8.40212 15.02503,-16.51614 22.56306,-24.75403 7.15357,-8.15553 14.82441,-15.83832 22.04402,-23.93055 5.64514,-6.69114 11.75836,-12.95763 17.72144,-19.363 3.88272,-4.53041 8.36471,-8.45991 12.52981,-12.70784 1.62422,-2.02652 3.62781,-3.48125 6.09281,-4.28637 1.01885,-0.32085 2.04093,-0.34425 3.08801,-0.20703 6.39445,1.24611 4.63217,10.28923 -1.76228,9.04311 l 0,0 c 0.45037,0.0531 0.91895,0.13421 1.35424,-0.0213 -0.97714,0.14188 -1.34104,1.23419 -2.19971,1.92742 -4.11477,4.18315 -8.5275,8.0633 -12.35949,12.52972 -5.91997,6.35905 -11.99119,12.57696 -17.59287,19.222 -7.25248,8.11406 -14.934,15.83775 -22.12036,24.01497 -7.52557,8.21679 -15.16954,16.31729 -22.51437,24.70043 -8.63924,9.58683 -17.65436,18.81751 -26.23603,28.45693 -9.08413,10.37911 -17.88874,21.00404 -27.72248,30.69811 -9.88934,10.95302 -18.64464,22.78464 -26.47485,35.3028 -8.55815,13.38711 -16.69762,27.03246 -24.68993,40.76383 -8.2731,14.47481 -17.34121,28.46382 -26.72755,42.2411 -10.51751,14.71117 -22.35001,28.36393 -33.52586,42.5675 -10.1724,13.45228 -20.34693,26.89969 -30.55219,40.32664 -8.21799,10.84592 -16.03201,21.96428 -23.66044,33.23084 -4.682018,6.43389 -9.335256,12.98882 -15.377942,18.24105 -5.087154,4.06972 -10.842612,-3.1246 -5.755458,-7.19432 z"
       inkscape:connector-curvature="0" />
    <path
       style="fill:#ff0000;fill-opacity:1;fill-rule:nonzero;stroke:#000000;stroke-width:1.67244089;stroke-linecap:round;stroke-linejoin:bevel;stroke-miterlimit:4;stroke-opacity:1;stroke-dasharray:none;stroke-dashoffset:0"
       id="path6756"
       d="m 129.87603,578.98465 c 7.83816,2.35603 13.42088,7.80133 18.19137,14.19373 4.06697,5.19295 6.31779,11.32699 8.42679,17.48826 1.78051,5.50592 2.12892,11.31166 2.36669,17.05185 0.13853,4.65752 0.11305,9.31781 0.0974,13.97676 -0.0124,2.70645 -0.0215,5.41291 -0.0272,8.11938 0.10923,2.29391 -1.52915,4.04583 -2.10357,6.0705 -0.10458,0.32037 -0.20048,0.87062 -0.24495,1.12517 0.0781,-0.2957 0.0328,0.96703 0.035,1.2116 0.001,0.1748 0.004,0.34959 0.006,0.52438 0.0817,6.51422 -9.1308,6.62978 -9.21251,0.11555 l 0,0 c -0.002,-0.18548 -0.004,-0.37095 -0.006,-0.55644 -0.007,-0.79637 -0.0337,-1.5962 0.03,-2.39048 0.12182,-0.95159 0.33872,-1.88837 0.60864,-2.80855 0.34276,-1.04287 1.0036,-3.00949 1.67456,-3.31131 0.006,-2.71024 0.0149,-5.42047 0.0273,-8.13069 0.0152,-4.52298 0.0405,-9.04722 -0.0898,-13.5689 -0.19632,-4.85486 -0.4259,-9.78149 -1.88052,-14.4528 -1.79535,-5.27723 -3.62929,-10.55417 -7.12401,-14.99819 -3.48674,-4.80874 -7.4766,-8.98699 -13.30588,-10.80108 -6.26408,-1.78973 -3.73301,-10.64847 2.53107,-8.85874 z"
       inkscape:connector-curvature="0" />
    <path
       style="fill:#ff0000;fill-opacity:1;fill-rule:nonzero;stroke:#000000;stroke-width:1.67244089;stroke-linecap:round;stroke-linejoin:bevel;stroke-miterlimit:4;stroke-opacity:1;stroke-dasharray:none;stroke-dashoffset:0"
       id="path6758"
       d="m 202.69102,564.33735 c 0,8.88812 0,17.77624 0,26.66437 0,2.92552 0,5.85104 0,8.77656 0,0.51403 0,1.02806 0,1.54209 0,0.16394 0.16155,0.51973 0,0.49183 -3.10266,-0.53594 -6.14215,-1.38885 -9.21323,-2.08327 -0.28286,-9.61134 0.63516,-19.1644 2.3985,-28.60058 1.77122,-8.30442 5.34043,-15.98007 10.74504,-22.50933 7.26759,-7.15938 13.31547,-1.99989 17.47288,5.07085 3.56666,8.75034 3.82099,18.39555 3.61015,27.7184 -0.99422,11.00948 -2.96753,21.91302 -6.06224,32.52182 -2.50712,9.33867 -6.09814,18.32353 -9.35946,27.41221 -2.53221,7.76605 -5.67771,15.28522 -8.23571,23.04095 -2.04066,6.18688 -10.79023,3.30095 -8.74956,-2.88593 l 0,0 c 2.5834,-7.83194 5.74956,-15.42745 8.31346,-23.2668 3.19981,-8.91706 6.72999,-17.72996 9.19008,-26.89215 2.89893,-9.83603 4.68383,-19.95819 5.69311,-30.16159 0.21583,-7.70012 0.0321,-15.66534 -2.4623,-23.02818 -3.39488,-6.97425 1.3454,2.47956 -1.81164,-3.04613 -0.43466,-0.76076 1.91691,-2.30401 -0.53358,-0.57018 -4.4651,5.25498 -7.26174,11.58297 -8.75648,18.30285 -1.68821,8.86894 -2.50228,17.8575 -2.23902,26.89379 -3.07108,0.69442 -6.11057,1.54733 -9.21323,2.08327 -0.16155,0.0279 0,-0.32789 0,-0.49183 0,-0.51403 0,-1.02806 0,-1.54209 0,-2.92552 0,-5.85104 0,-8.77656 0,-8.88813 0,-17.77625 0,-26.66437 0,-6.51474 9.21323,-6.51474 9.21323,0 z"
       inkscape:connector-curvature="0" />
  </g>
</svg>
