<?xml version="1.0" encoding="UTF-8" standalone="no"?>
<!-- Created with Inkscape (http://www.inkscape.org/) -->

<svg
   xmlns:dc="http://purl.org/dc/elements/1.1/"
   xmlns:cc="http://creativecommons.org/ns#"
   xmlns:rdf="http://www.w3.org/1999/02/22-rdf-syntax-ns#"
   xmlns:svg="http://www.w3.org/2000/svg"
   xmlns="http://www.w3.org/2000/svg"
   xmlns:sodipodi="http://sodipodi.sourceforge.net/DTD/sodipodi-0.dtd"
   xmlns:inkscape="http://www.inkscape.org/namespaces/inkscape"
   width="1044.8425"
   height="412.90799"
   id="svg6779"
   version="1.1"
   inkscape:version="0.48.0 r9654"
   sodipodi:docname="Nouveau document 15">
  <defs
     id="defs6781" />
  <sodipodi:namedview
     inkscape:document-units="mm"
     pagecolor="#ffffff"
     bordercolor="#666666"
     borderopacity="1.0"
     inkscape:pageopacity="0.0"
     inkscape:pageshadow="2"
     inkscape:zoom="1.0831958"
     inkscape:cx="562.07903"
     inkscape:cy="137.3557"
     inkscape:current-layer="layer1"
     id="namedview6783"
     showgrid="false"
     fit-margin-top="0"
     fit-margin-left="0"
     fit-margin-right="0"
     fit-margin-bottom="0"
     inkscape:window-width="1680"
     inkscape:window-height="1024"
     inkscape:window-x="0"
     inkscape:window-y="0"
     inkscape:window-maximized="0" />
  <metadata
     id="metadata6785">
    <rdf:RDF>
      <cc:Work
         rdf:about="">
        <dc:format>image/svg+xml</dc:format>
        <dc:type
           rdf:resource="http://purl.org/dc/dcmitype/StillImage" />
        <dc:title></dc:title>
      </cc:Work>
    </rdf:RDF>
  </metadata>
  <g
     inkscape:label="Layer 1"
     inkscape:groupmode="layer"
     id="layer1"
     transform="translate(-6.5689836,-96.494938)">
    <rect
       style="color:#000000;fill:none;stroke:#000000;stroke-width:3.47952747;stroke-miterlimit:4;stroke-opacity:1;stroke-dasharray:none;marker:none;visibility:visible;display:inline;overflow:visible;enable-background:accumulate"
       id="rect6788"
       width="1041.363"
       height="203.10271"
       x="8.3087473"
       y="230.79854" />
    <path
       style="fill:none;stroke:#000000;stroke-width:3.47952747;stroke-linecap:round;stroke-linejoin:bevel;stroke-miterlimit:4;stroke-opacity:1;stroke-dasharray:none;stroke-dashoffset:0"
       id="path7298"
       d="m 326.9026,229.46404 c 0.33829,3.31156 0.90992,6.58936 1.27262,9.89846 0.38793,3.9168 0.4355,7.85508 0.47569,11.78739 0.0257,3.61464 0.0169,7.2294 0.0132,10.84409 -0.004,3.37442 -0.005,6.74884 -0.006,10.12325 -6.7e-4,3.1496 -6.1e-4,6.29919 -6.1e-4,9.44879 2e-5,3.32157 5e-5,6.64314 6e-5,9.9647 1e-5,3.23439 2e-5,6.46878 2e-5,9.70316 0,3.01111 0,6.02221 0,9.03331 0,2.4716 0,4.9432 0,7.4148 0,2.45856 0,4.91713 0,7.37569 0,2.73227 0,5.46454 0,8.19682 0,2.59591 0,5.19183 0,7.78774 0,2.26542 0,4.53083 0,6.79625 0.009,2.39689 -0.4403,4.76763 -0.67821,7.14891 -0.14936,2.05406 -0.18424,4.09428 -0.53322,6.12698 -0.3516,1.75467 -0.49855,3.53627 -0.58112,5.32071 -0.0642,1.81482 -0.0603,3.63113 -0.0607,5.44682 0.002,2.03106 0.004,4.06212 0.005,6.09319 -0.0217,2.33381 0.083,4.66858 -0.11677,6.9953 -0.30344,2.14692 -0.57953,4.29408 -0.70436,6.45933 -0.10679,2.34168 -0.1027,4.68653 -0.10689,7.03009 -0.26276,2.85895 -0.57323,5.71115 -0.7555,8.57746 -0.134,2.31384 -0.15253,4.6322 -0.16546,6.94923 -0.005,1.69739 -8.9e-4,3.39478 10e-4,5.09217 0.002,1.41629 0.002,2.83258 0.003,4.24887 1.9e-4,1.23187 1.7e-4,2.46375 1.6e-4,3.69562 0.13712,1.28884 -0.30182,2.49069 -0.61548,3.71483 -0.19112,0.72688 -0.26192,1.47733 -0.29775,2.22577 -0.0184,0.38331 -0.0169,0.767 -0.015,1.1506 0.003,0.40545 0.004,0.8109 0.004,1.21636 2.7e-4,0.13734 4.4e-4,0.27468 5.5e-4,0.41203 5e-5,0.01 -5e-5,0.02 -8e-5,0.0301 -0.0213,2.6111 -3.71394,2.581 -3.69265,-0.0301 l 0,0 c -8.4e-4,0.0258 -5e-5,0.005 -5e-5,0.001 -10e-5,-0.1354 -2.8e-4,-0.2708 -5.4e-4,-0.4062 -7.8e-4,-0.40184 -10e-4,-0.80368 -0.004,-1.20552 -0.002,-0.45024 -0.003,-0.90057 0.0194,-1.35045 0.0505,-1.00042 0.15641,-2.0013 0.41197,-2.97266 0.2464,-0.93835 0.62038,-1.79779 0.49678,-2.78614 2e-5,-1.23158 3e-5,-2.46317 -1.6e-4,-3.69476 -3e-4,-1.41514 -9.2e-4,-2.83027 -0.003,-4.24541 -0.002,-1.70569 -0.006,-3.4114 -0.001,-5.11709 0.0134,-2.38848 0.0336,-4.7783 0.17288,-7.16341 0.17815,-2.79011 0.45789,-5.56924 0.74803,-8.34925 0.004,-2.41309 7.3e-4,-4.82753 0.11315,-7.2386 0.1301,-2.20532 0.39461,-4.39477 0.71344,-6.58057 0.21858,-2.21009 0.0505,-4.43842 0.10143,-6.65663 -10e-4,-2.03207 -0.004,-4.06413 -0.006,-6.09619 3.6e-4,-1.87293 -0.003,-3.74652 0.0647,-5.61851 0.0914,-1.9375 0.25305,-3.87205 0.63113,-5.77779 0.3392,-1.94377 0.32918,-3.90114 0.49757,-5.86555 0.22683,-2.25916 0.65235,-4.50893 0.65982,-6.78087 0,-2.26542 0,-4.53083 0,-6.79625 0,-2.59591 0,-5.19183 0,-7.78774 0,-2.73228 0,-5.46455 0,-8.19682 0,-2.45856 0,-4.91713 0,-7.37569 0,-2.4716 0,-4.9432 0,-7.4148 0,-3.0111 0,-6.0222 0,-9.03331 0,-3.23438 0,-6.46876 -10e-6,-9.70314 -2e-5,-3.32157 -4e-5,-6.64315 -7e-5,-9.96472 0,-3.14994 -6e-5,-6.29989 6.2e-4,-9.44983 9.5e-4,-3.37534 0.003,-6.75068 0.006,-10.12602 0.004,-3.60087 0.0125,-7.20181 -0.013,-10.80262 -0.0388,-3.81086 -0.0818,-7.6276 -0.45401,-11.42375 -0.35635,-3.26881 -0.92627,-6.50609 -1.25737,-9.77752 -0.36928,-2.58495 3.28638,-3.10718 3.65566,-0.52224 z"
       inkscape:connector-curvature="0" />
    <path
       style="fill:none;stroke:#000000;stroke-width:3.47952747;stroke-linecap:round;stroke-linejoin:bevel;stroke-miterlimit:4;stroke-opacity:1;stroke-dasharray:none;stroke-dashoffset:0"
       id="path7300"
       d="m 242.00106,227.5095 c 2.65125,3.39135 5.23377,6.8354 7.91419,10.20399 3.94817,4.81216 7.91396,9.60409 12.13442,14.18063 4.39217,4.58505 8.76306,9.1881 13.16068,13.76762 4.3319,4.37119 8.16319,9.19411 12.03823,13.96405 3.45675,4.19416 7.1411,8.19041 10.59608,12.3862 2.6629,3.47762 5.01209,7.17269 7.59601,10.71012 2.19362,3.0081 4.15928,6.16954 6.14141,9.31772 2.07211,3.09249 4.47341,5.94604 7.02217,8.6526 2.93189,3.12718 5.70338,6.39395 8.19489,9.88243 2.22638,3.34951 4.60847,6.59411 6.92236,9.88431 2.78635,3.56468 5.93628,6.8377 9.08079,10.08588 3.93991,4.08383 8.33005,7.6892 12.61541,11.39657 4.59207,3.8398 8.95149,7.95466 13.2023,12.16676 3.76029,3.74804 7.35794,7.64892 11.10677,11.40854 2.41924,2.30416 4.6667,4.79749 7.18,7.00084 2.08728,1.80826 3.5851,4.13991 5.20546,6.34549 1.54847,2.08764 3.3187,3.99318 5.11121,5.87008 1.73503,1.87928 3.61841,3.603 5.46924,5.36229 1.74488,1.68677 3.30536,3.53924 5.02005,5.25615 1.32722,1.16814 2.39082,2.58834 3.62775,3.84115 1.22952,0.87581 2.3327,1.93751 3.30167,3.09163 0.90232,1.0723 1.86988,2.08422 2.79363,3.13732 0.57914,0.73923 1.16012,1.47585 1.76535,2.19412 -0.47229,-0.52336 0.96876,0.55115 1.13499,0.65057 0.79668,0.61711 1.41935,1.34663 1.99282,2.16809 0.10671,0.26966 1.24087,1.50092 0.23262,0.47804 2.25238,1.32101 0.38419,4.50636 -1.86819,3.18535 l 0,0 c -0.56828,-0.4775 -1.01801,-0.91584 -1.3965,-1.55551 -0.0569,-0.0821 -1.41727,-1.79643 -0.86328,-1.11101 -1.035,-0.62452 -1.0428,-0.71651 -2.05667,-1.43636 -0.5934,-0.70456 -1.16858,-1.42313 -1.73027,-2.15309 -0.93198,-1.09116 -1.94442,-2.1128 -2.86151,-3.21784 -0.86758,-1.10728 -2.00497,-1.98074 -3.0939,-2.85873 -1.20838,-1.25877 -2.29142,-2.63327 -3.59191,-3.80475 -1.69238,-1.69589 -3.23889,-3.51849 -4.95368,-5.19132 -1.88889,-1.80367 -3.82071,-3.56172 -5.59306,-5.48596 -1.90155,-1.99203 -3.77577,-4.01756 -5.41666,-6.23431 -1.4627,-1.99217 -2.79953,-4.11412 -4.67035,-5.76063 -2.56318,-2.26792 -4.88833,-4.79221 -7.3538,-7.16423 -3.74351,-3.7546 -7.33753,-7.64874 -11.09118,-11.393 -4.19109,-4.15408 -8.48987,-8.21172 -13.01899,-11.99699 -4.36782,-3.77887 -8.83977,-7.45659 -12.85323,-11.6215 -3.27603,-3.38778 -6.56255,-6.79749 -9.44756,-10.52949 -2.30892,-3.28374 -4.68591,-6.52216 -6.90833,-9.86449 -2.38938,-3.35657 -5.06394,-6.4876 -7.87788,-9.49609 -2.70866,-2.88192 -5.26281,-5.91883 -7.45757,-9.2155 -1.93674,-3.07658 -3.8558,-6.1671 -5.99858,-9.10728 -2.54116,-3.48046 -4.86062,-7.10931 -7.46499,-10.5412 -3.45816,-4.20337 -7.15397,-8.20033 -10.61107,-12.40453 -3.81071,-4.69077 -7.57502,-9.43672 -11.83568,-13.73482 -4.41463,-4.59783 -8.80337,-9.21837 -13.21204,-13.82221 -4.28001,-4.64353 -8.30628,-9.5017 -12.30934,-14.3848 -2.66211,-3.34737 -5.2318,-6.76597 -7.86115,-10.13884 -1.67164,-2.00597 1.16523,-4.37002 2.83687,-2.36406 z"
       inkscape:connector-curvature="0" />
    <path
       style="fill:none;stroke:#000000;stroke-width:3.47952747;stroke-linecap:round;stroke-linejoin:bevel;stroke-miterlimit:4;stroke-opacity:1;stroke-dasharray:none;stroke-dashoffset:0"
       id="path7302"
       d="m 263.28763,250.93913 c 3.07566,0.46199 6.20337,0.60276 9.30872,0.48138 3.26044,-0.0948 6.47076,-0.58115 9.6882,-1.06378 2.55573,-0.39856 5.13728,-0.53553 7.71933,-0.60666 2.09219,-0.044 4.18499,-0.0368 6.27751,-0.0341 2.08859,0.004 4.17719,0.006 6.26579,0.007 1.95609,-0.0282 3.8732,0.44497 5.80817,0.6802 1.31696,0.16632 2.6431,0.21874 3.96896,0.24249 1.2487,0.0128 2.4975,0.008 3.74623,0.005 1.27116,-0.002 2.54233,-0.003 3.81349,-0.004 1.42113,-3.4e-4 2.84226,-3.2e-4 4.26339,-3.1e-4 0.75331,0 1.50662,2e-5 2.25993,3e-5 1.95839,4e-5 1.95833,2.76962 -6e-5,2.76958 l 0,0 c -0.75329,-1e-5 -1.50659,-2e-5 -2.25988,-3e-5 -1.42081,-1e-5 -2.84161,-3e-5 -4.26242,3.1e-4 -1.26971,4.4e-4 -2.53942,0.001 -3.80913,0.004 -1.26715,0.002 -2.53437,0.008 -3.80148,-0.006 -1.42137,-0.0258 -2.84292,-0.0845 -4.25472,-0.26247 -1.82431,-0.22367 -3.63275,-0.66738 -5.47414,-0.65978 -2.08926,-10e-4 -4.17852,-0.004 -6.26778,-0.007 -2.06599,-0.003 -4.13224,-0.01 -6.19791,0.033 -2.47003,0.0675 -4.93973,0.19534 -7.38461,0.57709 -3.31931,0.49745 -6.63272,0.99323 -9.99591,1.09248 -3.43124,0.12182 -6.90495,0.002 -10.2875,-0.62159 -1.85789,-0.6193 -0.98208,-3.24675 0.87582,-2.62746 z"
       inkscape:connector-curvature="0" />
    <path
       style="fill:none;stroke:#000000;stroke-width:3.47952747;stroke-linecap:round;stroke-linejoin:bevel;stroke-miterlimit:4;stroke-opacity:1;stroke-dasharray:none;stroke-dashoffset:0"
       id="path7304"
       d="m 286.10528,278.4581 c 3.82789,0.47958 7.68945,0.59459 11.54198,0.70445 3.91144,0.0941 7.82419,0.10471 11.73654,0.10981 3.07145,0.054 6.12189,-0.40074 9.17578,-0.67134 1.59346,-0.13355 3.19054,-0.21462 4.78887,-0.25615 0.20259,-0.005 0.40522,-0.008 0.60786,-0.008 0.65279,-0.002 0.65601,0.92092 0.003,0.92319 l 0,0 c -0.19573,6.5e-4 -0.39145,0.003 -0.58712,0.008 -1.57914,0.0409 -3.15703,0.12103 -4.73137,0.25286 -3.08137,0.2729 -6.15923,0.73073 -9.25844,0.67493 -3.92073,-0.005 -7.84186,-0.0158 -11.76166,-0.11018 -3.8874,-0.11094 -7.78388,-0.22777 -11.64622,-0.71335 -0.64623,-0.0923 -0.51568,-1.00623 0.13056,-0.91392 z"
       inkscape:connector-curvature="0" />
    <path
       style="fill:none;stroke:#000000;stroke-width:3.47952747;stroke-linecap:round;stroke-linejoin:bevel;stroke-miterlimit:4;stroke-opacity:1;stroke-dasharray:none;stroke-dashoffset:0"
       id="path7306"
       d="m 297.05305,299.47071 c 3.94486,-0.49007 7.92517,-0.60462 11.8952,-0.71337 3.86716,-0.0875 7.73545,-0.10326 11.60345,-0.11016 1.10492,-0.13301 0.60215,-0.0398 1.51331,-0.2512 0.63652,-0.14485 0.84137,0.75533 0.20485,0.90018 l 0,0 c -1.04364,0.23353 -0.47308,0.13256 -1.71651,0.27421 -3.86012,0.007 -7.72054,0.0226 -11.57983,0.10982 -3.93482,0.10769 -7.87985,0.22052 -11.78991,0.70444 -0.64624,0.0923 -0.77679,-0.8216 -0.13056,-0.91392 z"
       inkscape:connector-curvature="0" />
    <path
       style="fill:none;stroke:#000000;stroke-width:3.47952747;stroke-linecap:round;stroke-linejoin:bevel;stroke-miterlimit:4;stroke-opacity:1;stroke-dasharray:none;stroke-dashoffset:0"
       id="path7308"
       d="m 323.85642,366.16319 c 3.65304,0.48158 7.34053,0.59888 11.01965,0.7028 3.37534,0.0771 6.75158,0.10233 10.12771,0.10981 0.55746,0.0654 1.01004,-0.006 1.50574,-0.22866 0.60277,-0.25061 0.9572,0.60183 0.35442,0.85245 l 0,0 c -0.6084,0.24047 -1.19636,0.37875 -1.86221,0.29941 -3.38414,-0.008 -6.7684,-0.0328 -10.15174,-0.11018 -3.72117,-0.10523 -7.45094,-0.22445 -11.14535,-0.715 -0.64391,-0.10732 -0.49214,-1.01795 0.15178,-0.91063 z"
       inkscape:connector-curvature="0" />
    <path
       style="fill:none;stroke:#000000;stroke-width:3.47952747;stroke-linecap:round;stroke-linejoin:bevel;stroke-miterlimit:4;stroke-opacity:1;stroke-dasharray:none;stroke-dashoffset:0"
       id="path7310"
       d="m 338.66207,361.43051 c 3.29964,-0.005 5.42752,-0.37659 8.01635,2.0022 1.6278,2.60738 1.73406,5.75841 1.86364,8.74629 0.0282,0.65219 -0.89416,0.69203 -0.92233,0.0398 l 0,0 c -0.11835,-2.75164 -0.20623,-5.65454 -1.57568,-8.11542 -2.11096,-2.06976 -4.61442,-1.78445 -7.38198,-1.74972 -0.6528,0 -0.6528,-0.92319 0,-0.92319 z"
       inkscape:connector-curvature="0" />
    <path
       style="fill:none;stroke:#000000;stroke-width:3.47952747;stroke-linecap:round;stroke-linejoin:bevel;stroke-miterlimit:4;stroke-opacity:1;stroke-dasharray:none;stroke-dashoffset:0"
       id="path7312"
       d="m 322.96777,393.7423 c 4.5615,-0.41638 9.11707,-0.91118 13.66978,-1.41955 6.26736,-0.71218 12.52066,-1.48304 18.81614,-1.90574 5.42262,-0.31459 10.85575,-0.35358 16.28583,-0.37978 1.89655,-2.8e-4 3.79326,-0.0134 5.68978,0.003 0.65277,0.006 0.64458,0.92895 -0.008,0.92316 l 0,0 c -1.89231,-0.0168 -3.7848,-0.004 -5.67714,-0.003 -5.41095,0.0261 -10.82493,0.0647 -16.22846,0.37771 -6.28194,0.42143 -12.52162,1.192 -18.77552,1.90211 -4.58664,0.51199 -9.17594,1.01448 -13.77222,1.42526 -0.6528,0 -0.6528,-0.9232 0,-0.9232 z"
       inkscape:connector-curvature="0" />
    <path
       style="fill:none;stroke:#000000;stroke-width:3.47952747;stroke-linecap:round;stroke-linejoin:bevel;stroke-miterlimit:4;stroke-opacity:1;stroke-dasharray:none;stroke-dashoffset:0"
       id="path7314"
       d="m 369.12747,386.35675 c 3.2823,0.19112 5.17572,1.00738 7.1743,3.63761 1.81396,3.06503 0.95167,6.11778 -0.85918,8.92081 -0.35677,0.54668 -1.12989,0.0421 -0.77312,-0.50455 l 0,0 c 1.61818,-2.45186 2.46137,-5.13533 0.89424,-7.86169 -1.78239,-2.40257 -3.46511,-3.08323 -6.43624,-3.26899 -0.65279,0 -0.65279,-0.92319 0,-0.92319 z"
       inkscape:connector-curvature="0" />
    <path
       style="fill:none;stroke:#000000;stroke-width:3.47952747;stroke-linecap:round;stroke-linejoin:bevel;stroke-miterlimit:4;stroke-opacity:1;stroke-dasharray:none;stroke-dashoffset:0"
       id="path7316"
       d="m 322.90249,418.56275 c 5.4456,-0.9055 10.95253,-1.43535 16.45262,-1.88595 8.91956,-0.49739 17.84084,-0.9824 26.76864,-1.31309 7.38948,-0.24787 14.78285,-0.34047 22.17595,-0.38652 2.08461,-0.0105 4.16926,-0.0162 6.25389,-0.007 0.44938,0.047 0.29614,0.0125 0.16433,-0.0551 0.36446,-0.54158 1.13038,-0.0261 0.76591,0.51543 l 0,0 c -0.25305,0.30126 -0.50772,0.52472 -0.93414,0.46282 -2.08141,-0.009 -4.16284,-0.003 -6.24424,0.007 -7.38362,0.046 -14.76752,0.13841 -22.14753,0.38591 -8.91407,0.33011 -17.82159,0.81462 -26.72745,1.31064 -5.48168,0.44877 -10.97016,0.97681 -16.39742,1.87975 -0.64624,0.0923 -0.7768,-0.8216 -0.13056,-0.91392 z"
       inkscape:connector-curvature="0" />
    <path
       style="fill:none;stroke:#000000;stroke-width:3.47952747;stroke-linecap:round;stroke-linejoin:bevel;stroke-miterlimit:4;stroke-opacity:1;stroke-dasharray:none;stroke-dashoffset:0"
       id="path7318"
       d="m 386.7737,404.58479 c 3.46207,2.7043 7.28106,4.82558 10.56781,7.75957 1.55027,1.60076 2.83667,3.42047 2.61883,5.77981 -0.0645,0.69911 -0.38366,1.35074 -0.57549,2.0261 -0.18765,0.62525 -1.07188,0.35986 -0.88422,-0.26538 l 0,0 c 0.17978,-0.56279 0.46662,-1.10206 0.53935,-1.68838 0.26248,-2.11599 -0.93484,-3.73042 -2.31392,-5.16403 -3.29355,-2.95163 -7.15487,-5.04706 -10.60516,-7.7949 -0.46159,-0.46159 0.1912,-1.11439 0.6528,-0.65279 z"
       inkscape:connector-curvature="0" />
    <path
       style="fill:none;stroke:#000000;stroke-width:3.47952747;stroke-linecap:round;stroke-linejoin:bevel;stroke-miterlimit:4;stroke-opacity:1;stroke-dasharray:none;stroke-dashoffset:0"
       id="path7320"
       d="m 267.14964,239.94557 c -0.12897,0.45038 -0.21931,0.91366 -0.38691,1.35114 -0.52382,1.36728 -1.25628,2.5989 -1.95609,3.88031 -1.27732,2.3389 -2.54621,4.66419 -3.72045,7.05689 -0.71474,1.98167 -2.66903,4.99678 -1.04352,7.07318 0.27076,0.34587 0.68198,0.55377 1.02297,0.83066 0.49185,0.42922 -0.11517,1.1248 -0.60701,0.69557 l 0,0 c -0.42218,-0.38911 -0.9403,-0.69488 -1.26654,-1.16734 -1.67258,-2.4222 0.16926,-5.54514 1.06539,-7.83892 1.18081,-2.40424 2.45399,-4.74218 3.73872,-7.09215 0.6449,-1.17964 1.38544,-2.43064 1.87983,-3.69521 0.15492,-0.39626 0.2398,-0.81646 0.35969,-1.22469 0.0923,-0.64623 1.00624,-0.51567 0.91392,0.13056 z"
       inkscape:connector-curvature="0" />
    <path
       style="fill:none;stroke:#000000;stroke-width:3.47952747;stroke-linecap:round;stroke-linejoin:bevel;stroke-miterlimit:4;stroke-opacity:1;stroke-dasharray:none;stroke-dashoffset:0"
       id="path7322"
       d="m 297.60053,274.02103 c -3.31165,1.33162 -5.58746,3.05869 -7.49144,6.07236 -0.79413,1.81887 -0.45405,0.90117 -1.02781,2.75031 -0.19472,0.62308 -1.07589,0.34771 -0.88117,-0.27537 l 0,0 c 0.62593,-1.98971 0.25315,-0.9982 1.12986,-2.97019 2.02397,-3.16616 4.41252,-5.02197 7.9069,-6.42566 0.60001,-0.25715 0.96368,0.5914 0.36366,0.84855 z"
       inkscape:connector-curvature="0" />
    <path
       style="fill:none;stroke:#000000;stroke-width:3.47952747;stroke-linecap:round;stroke-linejoin:bevel;stroke-miterlimit:4;stroke-opacity:1;stroke-dasharray:none;stroke-dashoffset:0"
       id="path7324"
       d="m 309.21239,295.41756 c -2.03976,2.49609 -4.32793,4.74725 -5.97785,7.5341 -1.77395,3.4343 -0.50242,4.29483 2.79273,5.14919 0.63072,0.16834 0.39264,1.06031 -0.23808,0.89196 l 0,0 c -4.10389,-1.12341 -5.37374,-2.37203 -3.34818,-6.51294 1.66806,-2.79452 3.92821,-5.08535 6.00324,-7.57441 0.3621,-0.54316 1.13025,-0.0311 0.76814,0.5121 z"
       inkscape:connector-curvature="0" />
    <path
       style="fill:none;stroke:#000000;stroke-width:3.47952747;stroke-linecap:round;stroke-linejoin:bevel;stroke-miterlimit:4;stroke-opacity:1;stroke-dasharray:none;stroke-dashoffset:0"
       id="path7326"
       d="m 316.5016,119.93994 c 1.63115,4.82256 2.33751,9.88684 1.88211,14.96854 -0.12197,1.36101 -0.37532,2.70704 -0.56298,4.06056 -1.26402,5.76276 -2.94534,12.10488 -7.76154,15.99793 -0.77528,0.62668 -1.67844,1.07612 -2.51765,1.61418 -0.9202,0.26985 -1.81026,0.68137 -2.7606,0.80957 -4.58128,0.61801 -8.2961,-2.3548 -10.82871,-5.85504 -0.7734,-1.0689 -1.37413,-2.25268 -2.06119,-3.37902 -3.76043,-7.71766 -5.1301,-16.18293 -5.65305,-24.66897 -0.0523,-5.72403 0.38291,-11.94283 3.9762,-16.69513 0.61343,-0.81129 1.38601,-1.48894 2.07902,-2.23341 0.83734,-0.62131 1.61467,-1.33295 2.51202,-1.86391 6.13107,-3.627781 13.89279,-3.69583 20.77083,-4.118951 11.20258,-0.492581 22.41493,-0.542584 33.58753,0.458038 4.88046,0.203505 9.68626,1.613293 14.56529,1.742123 0.82494,-0.19197 0.49553,-0.0126 1.03387,-0.44421 0.53875,-0.368634 1.06008,0.39328 0.52133,0.76191 l 0,0 c -0.94494,0.5887 -0.42226,0.37553 -1.58166,0.60511 -4.89905,-0.15068 -9.72193,-1.51463 -14.62125,-1.745426 -11.12625,-0.998188 -22.29232,-0.944627 -33.4485,-0.456087 -6.68867,0.410266 -14.29772,0.44336 -20.27914,3.940223 -0.85201,0.49811 -1.59104,1.16821 -2.38657,1.75232 -0.65502,0.69458 -1.38537,1.32517 -1.96507,2.08375 -3.50165,4.58214 -3.88288,10.62695 -3.84244,16.1571 0.50943,8.33677 1.84854,16.65493 5.52046,24.24597 2.64199,4.36169 5.88953,9.54362 11.84709,8.82603 0.86534,-0.10423 1.67938,-0.46731 2.51907,-0.70097 0.78716,-0.49638 1.63427,-0.90844 2.36146,-1.48913 4.67947,-3.73671 6.26335,-9.91581 7.49882,-15.47129 0.18496,-1.32322 0.43375,-2.63908 0.55488,-3.96966 0.45252,-4.97063 -0.23862,-9.92304 -1.83545,-14.64021 -0.20643,-0.61929 0.66938,-0.91123 0.87582,-0.29194 z"
       inkscape:connector-curvature="0" />
    <path
       style="fill:none;stroke:#000000;stroke-width:3.47952747;stroke-linecap:round;stroke-linejoin:bevel;stroke-miterlimit:4;stroke-opacity:1;stroke-dasharray:none;stroke-dashoffset:0"
       id="path7328"
       d="m 322.29567,159.83491 c -1.71202,4.20326 -2.91005,8.5232 -3.14958,13.05971 0.30329,2.84251 1.64543,6.04445 5.02726,5.82779 0.57697,-0.037 1.13265,-0.23263 1.69898,-0.34894 2.29546,-1.05112 1.2005,-0.39636 3.26965,-1.98948 0.51961,-0.39516 1.07844,0.33968 0.55883,0.73484 l 0,0 c -2.31013,1.73718 -1.08738,1.02501 -3.65378,2.16115 -0.65932,0.1199 -1.30813,0.34015 -1.97798,0.35971 -3.89108,0.11365 -5.52413,-3.46096 -5.84481,-6.79484 0.25524,-4.62974 1.45367,-9.04392 3.20702,-13.33409 0.22921,-0.61124 1.09363,-0.28708 0.86441,0.32415 z"
       inkscape:connector-curvature="0" />
    <path
       style="fill:none;stroke:#000000;stroke-width:3.47952747;stroke-linecap:round;stroke-linejoin:bevel;stroke-miterlimit:4;stroke-opacity:1;stroke-dasharray:none;stroke-dashoffset:0"
       id="path7330"
       d="m 325.42594,139.1417 c -0.10048,0.77731 0.93438,3.31289 2.021,2.47577 0.29731,-0.29237 0.15788,-0.13535 0.41703,-0.47217 0.41142,-0.50683 1.12819,0.075 0.71677,0.58183 l 0,0 c -0.44949,0.53502 -0.18854,0.2792 -0.79898,0.75068 -2.15345,0.60794 -3.12824,-1.49184 -3.27902,-3.33611 0,-0.6528 0.9232,-0.6528 0.9232,0 z"
       inkscape:connector-curvature="0" />
    <path
       style="fill:none;stroke:#000000;stroke-width:3.47952747;stroke-linecap:round;stroke-linejoin:bevel;stroke-miterlimit:4;stroke-opacity:1;stroke-dasharray:none;stroke-dashoffset:0"
       id="path7332"
       d="m 346.94196,163.86151 c 1.72659,4.97023 2.06647,10.33451 2.70053,15.52882 1.02777,7.73776 2.37709,15.43309 2.8306,23.2335 0.0208,3.34449 -0.81808,6.99344 -4.41063,8.19039 -2.19485,0.73126 -3.36981,0.28356 -5.59843,-0.0342 -3.07905,-0.92101 -5.99857,-2.40156 -8.31995,-4.66904 -0.72198,-0.70522 -1.29324,-1.54982 -1.93986,-2.32472 -0.41667,-0.50252 0.29399,-1.09179 0.71067,-0.58927 l 0,0 c 0.6023,0.73129 1.13191,1.5291 1.8069,2.19389 2.19424,2.16109 4.9624,3.58146 7.87805,4.47598 1.97841,0.30756 3.06209,0.7215 5.01624,0.13923 3.28672,-0.97935 3.95109,-4.35103 3.93537,-7.32887 -0.44951,-7.78102 -1.80428,-15.45632 -2.82535,-23.17506 -0.62155,-5.0918 -0.9602,-10.34373 -2.60987,-15.22781 -0.29194,-0.58388 0.53379,-0.99675 0.82573,-0.41287 z"
       inkscape:connector-curvature="0" />
    <path
       style="fill:none;stroke:#000000;stroke-width:3.47952747;stroke-linecap:round;stroke-linejoin:bevel;stroke-miterlimit:4;stroke-opacity:1;stroke-dasharray:none;stroke-dashoffset:0"
       id="path7334"
       d="m 345.53523,140.78711 c -1.62489,0.17952 -3.76392,0.69674 -4.26736,2.46743 0.82649,2.33531 3.79177,3.12265 5.91384,3.81002 2.96562,0.60629 4.80027,0.23719 4.75386,-3.11022 -0.21236,-1.20147 -0.65902,-2.33511 -1.09724,-3.46649 -0.23544,-0.60886 0.62562,-0.94182 0.86106,-0.33296 l 0,0 c 0.4787,1.23987 0.96743,2.48101 1.15935,3.8065 -0.0117,0.47242 0.0567,0.95368 -0.035,1.41727 -0.57058,2.88533 -3.56074,3.18122 -5.92771,2.5638 -2.11228,-0.69017 -5.4216,-1.59216 -6.33995,-3.92938 -0.13206,-0.33608 -0.10444,-0.71459 -0.15665,-1.07188 0.12604,-0.30773 0.1927,-0.64715 0.37814,-0.92319 1.01321,-1.50831 3.09386,-1.96847 4.75761,-2.1541 0.65279,0 0.65279,0.9232 0,0.9232 z"
       inkscape:connector-curvature="0" />
    <path
       style="fill:none;stroke:#000000;stroke-width:3.47952747;stroke-linecap:round;stroke-linejoin:bevel;stroke-miterlimit:4;stroke-opacity:1;stroke-dasharray:none;stroke-dashoffset:0"
       id="path7336"
       d="m 630.08001,142.13214 c -0.21762,9.16053 -0.61912,18.32026 -0.93216,27.47935 -1.06163,24.18611 -1.37299,48.3945 -1.60877,72.59987 -0.24519,30.00789 0.20343,60.01629 0.4261,90.02323 0.0287,4.78877 0.0794,9.57745 0.0862,14.36629 0.0148,10.42442 -0.0105,17.88142 -0.37248,28.2928 -0.4813,13.84264 -1.47952,27.64639 -2.55384,41.45237 -1.95719,22.73273 -4.30358,45.4273 -5.90069,68.18968 -0.48823,7.54488 -0.90422,15.09543 -1.14489,22.65254 -0.0208,0.65247 -0.94351,0.62308 -0.92273,-0.0294 l 0,0 c 0.24116,-7.56886 0.65756,-15.13116 1.14669,-22.68777 1.5974,-22.76471 3.94341,-45.46166 5.90121,-68.19669 1.07315,-13.78924 2.07039,-27.5763 2.55131,-41.40217 0.36181,-10.40183 0.38705,-17.85025 0.37224,-28.26583 -0.007,-4.78841 -0.0574,-9.57665 -0.0862,-14.36498 -0.22271,-30.01222 -0.67139,-60.0259 -0.42608,-90.03907 0.23587,-24.21289 0.54737,-48.42879 1.60927,-72.62241 0.31269,-9.14859 0.7135,-18.29783 0.93161,-27.44782 0,-0.65279 0.9232,-0.65279 0.9232,0 z"
       inkscape:connector-curvature="0" />
    <path
       style="fill:none;stroke:#000000;stroke-width:3.47952747;stroke-linecap:round;stroke-linejoin:bevel;stroke-miterlimit:4;stroke-opacity:1;stroke-dasharray:none;stroke-dashoffset:0"
       id="path7338"
       d="m 665.46226,149.76234 c -3.51665,6.54124 -6.76266,13.21649 -9.91452,19.93925 -1.47587,2.66592 -2.45689,5.62799 -4.05903,8.22962 -0.27288,0.44311 -1.112,1.92941 -1.97918,0.76959 -0.42085,-0.56287 -0.37382,-1.35499 -0.56073,-2.03249 -0.56576,-8.57348 0.90363,-17.06701 2.61376,-25.42966 0.78578,-2.32922 1.64826,-7.53094 4.49634,-8.49381 1.51223,-0.51124 2.42223,0.18019 3.77459,0.73045 0.71643,0.51852 1.46188,0.99914 2.14929,1.55555 1.61946,1.31086 3.2716,2.9915 4.75556,4.43388 2.75917,2.68187 5.51493,5.36199 8.31941,7.99657 4.07452,3.81878 8.12299,7.97323 10.22805,13.25673 0.3081,0.77332 0.49537,1.58946 0.74306,2.38419 0.0298,0.73452 0.20446,1.47748 0.0895,2.20356 -0.78247,4.94337 -7.89095,5.14471 -11.60205,5.50537 -6.57809,0.11346 -13.15396,-0.3574 -19.70703,-0.8904 -1.2921,-0.15627 -0.86278,0.17939 -1.4064,-0.83365 0.0725,-0.64875 0.99,-0.5462 0.91748,0.10256 l 0,0 c -0.6942,-0.50479 -0.59962,-0.3306 0.56378,-0.18907 6.49891,0.52875 13.02008,0.99446 19.54379,0.8916 2.96164,-0.28175 10.05192,-0.54673 10.76774,-4.55577 0.11495,-0.64377 -0.0325,-1.30751 -0.0488,-1.96127 -0.23116,-0.75259 -0.40369,-1.52574 -0.69348,-2.25775 -2.05163,-5.18251 -6.03962,-9.2407 -10.0278,-12.98325 -4.94122,-4.6422 -9.56225,-9.69108 -14.95469,-13.80981 -0.79176,-0.35753 -1.89943,-1.08619 -2.89122,-0.81724 -2.56143,0.69458 -3.42174,5.95578 -4.11271,7.91655 -1.68594,8.24162 -3.13417,16.60632 -2.61437,25.05674 0.0543,0.48278 0.13891,0.96311 0.16301,1.44833 0.008,0.15176 -0.19617,0.53333 -0.0687,0.45064 0.66599,-0.432 1.61956,-2.58129 1.7701,-2.88092 0.71124,-1.41564 2.37804,-4.90472 2.99478,-6.18874 3.16755,-6.75613 6.42889,-13.46525 9.96754,-20.03664 0.34598,-0.55357 1.12885,-0.0643 0.78286,0.48929 z"
       inkscape:connector-curvature="0" />
    <path
       style="fill:none;stroke:#000000;stroke-width:3.47952747;stroke-linecap:round;stroke-linejoin:bevel;stroke-miterlimit:4;stroke-opacity:1;stroke-dasharray:none;stroke-dashoffset:0"
       id="path7340"
       d="m 699.2045,135.62463 c -0.60441,5.62861 -0.61891,11.30376 -0.70432,16.9583 -0.22228,8.81229 -0.0203,17.61952 0.70745,26.40325 0.22712,1.87433 0.44291,3.74855 1.06522,5.53598 0.21183,0.61747 -0.6614,0.91705 -0.87324,0.29958 l 0,0 c -0.63152,-1.86515 -0.89491,-3.80368 -1.11203,-5.75936 -0.72975,-8.81374 -0.93356,-17.65102 -0.71048,-26.4934 0.086,-5.69348 0.10082,-11.40788 0.71348,-17.0749 0.0923,-0.64624 1.00624,-0.51568 0.91392,0.13055 z"
       inkscape:connector-curvature="0" />
    <path
       style="fill:none;stroke:#000000;stroke-width:3.47952747;stroke-linecap:round;stroke-linejoin:bevel;stroke-miterlimit:4;stroke-opacity:1;stroke-dasharray:none;stroke-dashoffset:0"
       id="path7342"
       d="m 688.18617,140.42291 c 3.16215,-1.94316 6.58338,-3.17152 10.18513,-3.98884 4.44753,-0.7786 9.18877,-1.28468 13.53261,0.3172 0.78402,0.28913 1.5048,0.72709 2.2572,1.09063 2.38966,1.78391 4.60585,4.29639 3.78943,7.53683 -0.50459,2.00275 -1.51324,2.84964 -2.7925,4.40808 -4.49888,4.00446 -10.35222,5.38298 -16.13792,6.31854 -0.64445,0.10407 -0.79162,-0.80732 -0.14718,-0.91139 l 0,0 c 5.56276,-0.89708 11.21321,-2.19366 15.57465,-5.99669 1.13607,-1.35299 2.08231,-2.1555 2.58183,-3.88036 0.82177,-2.83768 -1.21134,-5.05803 -3.27257,-6.64504 -0.69906,-0.34343 -1.36778,-0.75713 -2.09717,-1.03029 -4.1931,-1.57035 -8.7879,-1.04965 -13.08476,-0.30705 -3.4934,0.7871 -6.80747,1.9786 -9.87665,3.85653 -0.54316,0.3621 -1.05526,-0.40604 -0.5121,-0.76815 z"
       inkscape:connector-curvature="0" />
    <path
       style="fill:none;stroke:#000000;stroke-width:3.47952747;stroke-linecap:round;stroke-linejoin:bevel;stroke-miterlimit:4;stroke-opacity:1;stroke-dasharray:none;stroke-dashoffset:0"
       id="path7346"
       d="m 886.08165,230.45365 c 2.90096,0.29446 5.70939,1.073 8.52352,1.80196 5.11619,1.72806 10.21139,3.51276 15.34662,5.18454 5.50741,1.79005 11.02583,3.54839 16.51116,5.40455 3.79587,1.26396 7.38474,3.03376 10.86618,4.98693 2.81831,1.6125 5.57253,3.34225 8.2103,5.23658 2.71935,2.01815 4.77374,4.73749 6.71053,7.47702 1.56228,2.14787 2.96923,4.40855 4.20693,6.75795 0.55513,1.16929 1.28418,2.24472 1.93147,3.36519 0.19427,0.28459 0.30312,0.52932 0.3648,0.86191 0.005,0.24532 -0.002,0.49065 -0.0109,0.73579 -0.005,0.0625 -0.005,0.12478 -0.006,0.18729 -9.1e-4,0.2343 -4e-4,0.46861 1.8e-4,0.70291 3e-5,0.0367 3.1e-4,0.0734 4.7e-4,0.11009 2.3e-4,0.83844 1e-4,1.67688 9e-5,2.51532 -3e-5,2.25314 -3e-5,4.50628 -4e-5,6.75942 0,2.52182 0,5.04364 0,7.56546 0,2.81768 0,5.63537 0,8.45305 0,2.74036 0,5.48073 0,8.22109 0,2.55433 0,5.10866 0,7.66299 0,2.42404 0,4.84808 0,7.27212 0,2.4097 0,4.8194 0,7.22911 0,2.00299 0,4.00599 0,6.00899 0,1.84864 0,3.69728 0,5.54593 0,1.84408 0,3.68816 0,5.53225 0,1.66084 0,3.32168 0,4.98253 0,1.72812 0,3.45625 0,5.18438 0,1.36652 0,2.73304 0,4.09956 0,1.43624 0,2.87248 0,4.30871 0,1.8045 0,3.609 0,5.4135 0,1.7108 0,3.42159 0,5.13238 0,1.54971 0,3.09943 0,4.64915 0,1.67602 0,3.35204 0,5.02807 0,1.58396 0,3.16792 0,4.75188 0,1.36321 0,2.72642 0,4.08963 0.0376,1.19434 0.0457,2.34007 -0.28049,3.49374 -0.28341,0.82139 -0.48405,1.66669 -0.58624,2.52882 -0.0594,0.49388 -0.062,0.9916 -0.063,1.48827 0.0322,0.44492 -0.002,0.82652 -0.14055,1.25155 -0.38244,0.55063 -0.56824,1.13515 -0.67885,1.7888 -0.10943,0.92918 -0.0474,1.8574 -0.22316,2.77647 -0.22085,1.13028 -0.70323,2.14872 -1.15084,3.19681 -0.40198,1.37923 -1.3089,2.54313 -2.26542,3.58735 -1.28007,1.28274 -2.4495,2.6655 -3.6226,4.04593 -1.31631,1.42372 -2.71124,2.74098 -4.18185,4.00342 -1.38843,1.0598 -2.74081,2.16627 -4.22752,3.08884 -1.35859,0.65373 -2.81547,1.10594 -4.26977,1.49898 -1.49114,0.37042 -3.01531,0.46843 -4.51609,0.79277 -1.80733,0.27743 -3.58484,0.65782 -5.37181,1.04232 -2.05943,0.25412 -4.04863,0.82788 -6.05155,1.3486 -2.3947,0.4756 -4.65533,1.40726 -6.99673,2.07046 -1.93663,0.73731 -3.87807,1.3162 -5.93481,1.57396 -2.14191,0.0936 -4.25514,0.27803 -6.3726,0.61837 -1.4449,0.17618 -2.85287,0.33313 -4.21697,0.85656 -0.61373,0.3357 -1.26063,0.47506 -1.95052,0.53588 -0.47065,0.0269 -0.94212,0.0317 -1.4134,0.0343 -0.65278,0.004 -0.65784,-0.91961 -0.005,-0.92318 l 0,0 c 0.44633,-0.002 0.89282,-0.007 1.33862,-0.0309 0.60949,-0.0519 1.15962,-0.17574 1.70076,-0.4785 1.42436,-0.54242 2.89165,-0.72992 4.40012,-0.9057 2.12786,-0.34173 4.25237,-0.53234 6.40489,-0.62298 2.01113,-0.24903 3.90275,-0.83062 5.79767,-1.54619 2.34809,-0.66331 4.61399,-1.6009 7.01574,-2.07561 2.01535,-0.52386 4.01772,-1.10093 6.08971,-1.35767 1.78659,-0.38409 3.56423,-0.76501 5.37104,-1.04215 1.48609,-0.32074 2.99313,-0.42506 4.47081,-0.78179 1.36933,-0.3677 2.73773,-0.79674 4.02451,-1.39283 1.4492,-0.89212 2.75726,-1.97927 4.11162,-3.00407 1.43409,-1.23107 2.79579,-2.5126 4.0797,-3.90076 1.18081,-1.38945 2.3589,-2.7806 3.6463,-4.07275 0.89213,-0.96759 1.73114,-2.04212 2.09667,-3.32642 0.42593,-0.99031 0.88666,-1.94815 1.09491,-3.01811 0.20072,-0.90061 0.0666,-1.83486 0.21768,-2.74729 0.12347,-0.7135 0.31429,-1.38725 0.73621,-1.98707 0.1895,-0.21656 0.0279,-0.6234 0.0699,-0.89942 10e-4,-0.53259 0.005,-1.06622 0.0695,-1.59575 0.10942,-0.91029 0.31582,-1.80438 0.61498,-2.67207 0.30632,-1.06832 0.27179,-2.13228 0.24524,-3.24103 0,-1.36321 0,-2.72642 0,-4.08963 0,-1.58396 0,-3.16792 0,-4.75188 0,-1.67603 0,-3.35205 0,-5.02807 0,-1.54972 0,-3.09944 0,-4.64915 0,-1.71079 0,-3.42158 0,-5.13238 0,-1.8045 0,-3.609 0,-5.4135 0,-1.43623 0,-2.87247 0,-4.30871 0,-1.36652 0,-2.73304 0,-4.09956 0,-1.72813 0,-3.45626 0,-5.18438 0,-1.66085 0,-3.32169 0,-4.98253 0,-1.84409 0,-3.68817 0,-5.53225 0,-1.84865 0,-3.69729 0,-5.54593 0,-2.003 0,-4.006 0,-6.00899 0,-2.40971 0,-4.81941 0,-7.22911 0,-2.42404 0,-4.84808 0,-7.27212 0,-2.55433 0,-5.10866 0,-7.66299 0,-2.74036 0,-5.48073 0,-8.22109 0,-2.81768 0,-5.63537 0,-8.45305 0,-2.52182 0,-5.04364 0,-7.56546 0,-2.25314 10e-6,-4.50628 3e-5,-6.75943 10e-6,-0.83507 8e-5,-1.67015 -3e-5,-2.50522 -1.7e-4,-0.0392 -5.1e-4,-0.0784 -5.2e-4,-0.11758 -5.9e-4,-0.23822 -0.001,-0.47645 -1.4e-4,-0.71467 0.002,-0.0915 0.002,-0.13129 0.007,-0.2141 0.008,-0.21727 0.0143,-0.43467 0.0114,-0.65212 -0.0691,-0.15501 -0.15863,-0.30013 -0.24224,-0.44782 -0.65322,-1.13086 -1.38824,-2.2171 -1.94905,-3.39705 -1.21679,-2.31489 -2.60629,-4.53923 -4.14382,-6.65499 -1.87715,-2.65607 -3.86163,-5.30004 -6.49531,-7.26015 -2.60924,-1.87519 -5.33553,-3.585 -8.12348,-5.18127 -3.43115,-1.9264 -6.96875,-3.67121 -10.71029,-4.91752 -5.48184,-1.85537 -10.99709,-3.61194 -16.50101,-5.40118 -5.1173,-1.66598 -10.19569,-3.44165 -15.29235,-5.16869 -2.78796,-0.72231 -5.56944,-1.49508 -8.44377,-1.78503 -0.64391,-0.10732 -0.49214,-1.01795 0.15177,-0.91063 z"
       inkscape:connector-curvature="0" />
    <path
       style="fill:none;stroke:#000000;stroke-width:3.47952747;stroke-linecap:round;stroke-linejoin:bevel;stroke-miterlimit:4;stroke-opacity:1;stroke-dasharray:none;stroke-dashoffset:0"
       id="path7348"
       d="m 905.69321,169.40613 c -4.03029,0.43292 -7.60126,2.38423 -10.48855,5.15428 -0.26256,0.42803 -0.62505,0.809 -0.78768,1.28407 -0.92832,2.71196 3.86389,5.51374 5.53288,6.77069 2.93082,2.37472 7.43095,5.00743 8.56067,8.88926 0.17579,0.60404 0.12134,1.25234 0.18201,1.87851 -0.23906,0.59851 -0.35716,1.26099 -0.71719,1.79555 -2.23078,3.31213 -7.7556,4.24179 -11.37413,4.94362 -2.05064,0.38337 -4.08836,0.63616 -6.16705,0.43962 -0.64974,-0.0631 -0.56057,-0.98192 0.0892,-0.91887 l 0,0 c 1.98948,0.19853 3.93913,-0.0701 5.90251,-0.42713 3.36532,-0.64952 8.48435,-1.47463 10.70207,-4.4035 0.3019,-0.39871 0.42962,-0.90328 0.64442,-1.35492 -0.0319,-0.51884 0.042,-1.05525 -0.0956,-1.55652 -1.02175,-3.72153 -5.51608,-6.27435 -8.28241,-8.54826 -2.29175,-1.72721 -7.09777,-4.37676 -5.75968,-7.9982 0.20036,-0.54225 0.62189,-0.97466 0.93284,-1.46198 3.07625,-2.91785 6.845,-4.98688 11.12571,-5.40942 0.6528,0 0.6528,0.9232 0,0.9232 z"
       inkscape:connector-curvature="0" />
    <path
       style="fill:none;stroke:#000000;stroke-width:3.47952747;stroke-linecap:round;stroke-linejoin:bevel;stroke-miterlimit:4;stroke-opacity:1;stroke-dasharray:none;stroke-dashoffset:0"
       id="path7350"
       d="m 922.63803,192.96401 c 1.46558,-1.46118 4.77496,-3.33683 4.76666,-5.62006 -1.89994,-1.60177 -4.97655,-1.10611 -7.20327,-0.68221 -3.81271,1.18307 -5.89681,3.56078 -7.39137,7.14261 -1.12067,3.83231 0.6994,5.71136 3.98235,7.31303 2.65985,0.83807 5.49556,1.49157 8.30596,1.18732 1.66562,-0.18032 2.67676,-0.58256 4.26456,-1.07931 3.4371,-1.58603 6.00067,-4.36566 7.85002,-7.60997 0.50603,-1.07266 1.07104,-2.16725 1.27406,-3.34981 0.007,0.88672 -0.0568,-0.3532 0.16799,0.46268 0.0748,0.27138 -0.29396,0.48018 -0.4371,0.72257 -0.34039,0.5764 -0.48116,1.04694 -0.71715,1.67859 -0.63862,2.1041 -1.07233,4.33006 -0.0361,6.35424 1.49807,1.84876 3.87254,2.12747 6.07432,1.69564 3.06203,-0.85761 5.17394,-3.05969 6.92984,-5.59012 0.90552,-1.48776 1.48088,-3.14823 1.8011,-4.85465 -0.22908,0.26814 0.4,0.44359 0.43301,0.72238 0.0323,0.27297 -0.21987,0.50438 -0.31164,0.76348 -0.33933,0.95805 -0.52373,1.94066 -0.69941,2.93808 -0.20665,2.0343 1.1234,3.02715 2.97078,3.31244 3.21737,-0.15683 6.00045,-2.03443 8.49919,-3.90769 2.40465,-1.88343 4.43545,-4.16477 6.03728,-6.75763 1.85249,-3.15664 1.62511,3.52214 1.6271,4.09652 0.0158,2.17195 -0.19337,4.56975 1.18893,6.38327 0.3579,-0.009 0.2502,0.079 0.27787,-0.31053 0.49845,-0.42153 1.09458,0.28339 0.59613,0.70492 l 0,0 c -1.13274,0.59908 -0.59236,0.61721 -1.61442,0.15703 -1.47258,-2.01429 -1.40263,-4.52426 -1.3717,-6.93155 -10e-4,-0.30372 -0.16764,-3.63589 -0.0991,-3.81495 0.0918,-0.23997 0.41711,-0.30026 0.62156,-0.4559 0.0342,-0.026 -0.0736,0.0445 -0.11038,0.0667 -0.11028,0.19671 -0.22057,0.39342 -0.33085,0.59013 -1.66573,2.68922 -3.7713,5.05871 -6.2695,7.01126 -2.70685,2.01965 -5.71606,4.01701 -9.20855,4.07821 -2.34449,-0.43591 -3.99422,-1.80804 -3.7234,-4.38307 0.24675,-1.38944 0.39243,-4.41114 2.30047,-4.52286 0.14675,-0.009 0.0625,0.28728 0.0938,0.43092 -0.34785,1.83369 -0.96817,3.61616 -1.95061,5.21091 -1.90452,2.7274 -4.20589,5.07187 -7.51941,5.97041 -2.73069,0.48028 -5.28455,0.11606 -7.07243,-2.19922 -1.16172,-2.48389 -0.74817,-4.53471 0.002,-7.08378 0.25506,-0.67245 1.78723,-4.61012 2.75928,-2.37751 -0.23291,1.2859 -0.81335,2.48323 -1.38187,3.64744 -1.9781,3.44293 -4.70242,6.37971 -8.37678,8.03281 -1.71614,0.53203 -2.71433,0.93382 -4.51894,1.12084 -2.95939,0.3067 -5.94313,-0.37554 -8.73607,-1.28314 -3.84972,-1.93543 -5.67843,-4.03133 -4.42327,-8.49824 1.64345,-3.87569 3.93042,-6.43739 8.07172,-7.69185 2.06517,-0.38371 6.05419,-0.89599 7.79573,0.73991 0.25256,0.23724 0.33281,0.60788 0.49921,0.91182 -0.0372,0.3344 -0.002,0.68523 -0.11171,1.00321 -0.79262,2.29092 -3.38002,3.63598 -4.98503,5.26385 -0.50149,0.41791 -1.09251,-0.29131 -0.59101,-0.70922 z"
       inkscape:connector-curvature="0" />
    <path
       style="fill:none;stroke:#000000;stroke-width:3.47952747;stroke-linecap:round;stroke-linejoin:bevel;stroke-miterlimit:4;stroke-opacity:1;stroke-dasharray:none;stroke-dashoffset:0"
       id="path7352"
       d="m 988.18481,195.73359 c 3.27593,-2.96566 6.50488,-6.15142 8.94542,-9.86401 0.6173,-0.93904 1.12679,-1.94468 1.69018,-2.91703 2.21199,-5.06051 3.94639,-10.76445 2.76569,-16.33044 -0.1687,-0.79528 -0.5028,-1.54625 -0.7542,-2.31937 -0.6,-1.41151 -2.34434,-4.21433 -4.1583,-2.39541 -1.01692,1.01971 -1.30449,2.31459 -1.80055,3.62121 -1.80489,8.49771 -2.01833,17.24517 -2.64006,25.88744 -0.32499,4.31111 -0.64349,8.62262 -0.91986,12.93713 -0.0417,0.65146 -0.96304,0.59244 -0.92131,-0.059 l 0,0 c 0.27655,-4.31692 0.59515,-8.63084 0.92036,-12.94436 0.62829,-8.73218 0.83353,-17.57622 2.70005,-26.15476 0.58716,-1.48778 0.94112,-3.0674 2.27364,-4.12547 2.46418,-1.95664 4.56973,0.97007 5.42493,2.95082 0.264,0.8309 0.6147,1.63908 0.792,2.49268 1.1982,5.76774 -0.5729,11.66608 -2.884,16.90309 -0.58257,1.00143 -1.11029,2.03684 -1.74769,3.0043 -2.48445,3.77092 -5.7634,7.01004 -9.09529,10.02242 -0.50149,0.41791 -1.0925,-0.2913 -0.59101,-0.70922 z"
       inkscape:connector-curvature="0" />
    <path
       style="fill:none;stroke:#000000;stroke-width:3.47952747;stroke-linecap:round;stroke-linejoin:bevel;stroke-miterlimit:4;stroke-opacity:1;stroke-dasharray:none;stroke-dashoffset:0"
       id="path7354"
       d="m 633.05057,230.33694 c 3.25938,0.19875 6.25974,1.59197 9.28649,2.68959 4.0474,1.21931 8.18428,2.07661 12.22842,3.30648 4.33611,1.45933 8.608,3.12151 12.74851,5.06782 4.50995,2.04729 8.7189,4.6726 12.79013,7.47614 3.5911,2.65311 6.68614,5.82808 9.32015,9.41772 2.37041,3.48302 4.60158,7.05037 6.68302,10.71273 2.00332,3.43166 3.54324,7.09732 5.22327,10.69105 1.67387,3.28157 3.28627,6.57685 4.76746,9.95093 1.44546,3.07707 2.9986,6.10563 4.37649,9.21351 1.39629,3.07862 2.27152,6.34379 3.11801,9.60412 0.70353,3.20039 1.42234,6.39896 1.88387,9.64493 0.27522,3.41543 0.7241,6.81259 1.01916,10.22657 0.28221,3.63921 0.32647,7.29059 0.35983,10.93876 0.0199,3.27582 0.0131,6.55172 0.0102,9.82757 0.12828,3.22938 -0.11056,6.4313 -0.42522,9.64099 -0.26887,3.08026 -0.83843,6.12513 -1.41283,9.16027 -0.59269,2.85276 -1.47837,5.61561 -2.48487,8.34426 -0.84578,2.41656 -1.95223,4.71756 -3.04997,7.02615 -1.02921,2.41025 -2.0848,4.80713 -3.12551,7.2124 -1.07133,2.0574 -1.73722,4.29192 -2.77186,6.36318 -0.72007,1.66094 -1.77411,3.09426 -2.83473,4.5417 -1.15447,1.59879 -2.34928,3.14313 -3.7102,4.57176 -1.26588,1.3859 -2.72923,2.55695 -4.06627,3.86783 -1.3796,1.47134 -3.049,2.61758 -4.65849,3.8174 -1.88166,1.21307 -3.83315,2.30253 -5.73035,3.49166 -2.29125,1.48622 -4.65986,2.84065 -6.96382,4.30899 -2.48757,1.62038 -4.82761,3.45162 -7.25415,5.15807 -2.52978,1.7281 -5.37125,2.88312 -8.22276,3.95562 -3.32247,1.30387 -6.60493,2.71105 -9.96599,3.91622 -3.8823,1.33463 -7.93457,1.87094 -11.97752,2.43765 -4.74562,0.53632 -9.42913,1.42676 -14.10149,2.39392 -3.49479,0.69972 -6.88273,1.80075 -10.31821,2.72885 -1.10022,0.26174 -2.20876,0.50893 -3.33385,0.63694 -0.45371,0.0381 0.10873,-0.007 -0.21478,0.0145 -0.65235,0.0242 -0.68662,-0.89833 -0.0343,-0.92256 l 0,0 c 0.25702,-0.0164 -0.38383,0.0331 0.1453,-0.009 1.07901,-0.12123 2.14146,-0.3625 3.19686,-0.61085 3.45324,-0.93274 6.85882,-2.0391 10.37183,-2.74163 4.6919,-0.9712 9.39513,-1.86494 14.16047,-2.40415 3.98054,-0.55791 7.97091,-1.08088 11.79424,-2.39247 3.35702,-1.2022 6.63381,-2.61081 9.95245,-3.91125 2.77866,-1.04483 5.55005,-2.16514 8.01682,-3.84677 2.43859,-1.71347 4.78832,-3.55528 7.2889,-5.18134 2.30592,-1.46959 4.67652,-2.82522 6.96969,-4.3127 1.87626,-1.176 3.80415,-2.25638 5.66895,-3.44964 1.57651,-1.1747 3.21338,-2.29519 4.56403,-3.73656 1.3303,-1.30293 2.78385,-2.46867 4.04413,-3.84538 1.33437,-1.3994 2.50242,-2.91407 3.63402,-4.48078 1.03135,-1.40535 2.05764,-2.79417 2.75411,-4.40989 1.03489,-2.05105 1.67697,-4.27865 2.7497,-6.31572 1.04548,-2.41512 2.10433,-4.82246 3.13905,-7.24224 1.08621,-2.28332 2.18161,-4.55854 3.01754,-6.94912 0.98879,-2.68063 1.86097,-5.39389 2.44392,-8.19644 0.56931,-3.00815 1.13508,-6.02577 1.40113,-9.07868 0.31177,-3.18013 0.54963,-6.35193 0.42082,-9.55171 0.003,-3.27277 0.01,-6.54559 -0.0102,-9.81833 -0.0331,-3.62447 -0.0766,-7.25214 -0.35644,-10.86775 -0.2933,-3.39718 -0.74117,-6.7775 -1.01342,-10.17624 -0.45535,-3.21175 -1.16957,-6.37582 -1.86341,-9.54271 -0.83386,-3.21177 -1.6928,-6.42941 -3.06853,-9.4622 -1.37635,-3.10964 -2.93463,-6.13708 -4.37773,-9.21634 -1.47827,-3.36748 -3.08817,-6.65569 -4.75845,-9.93105 -1.66966,-3.57162 -3.1991,-7.21512 -5.1896,-10.62589 -2.06356,-3.63154 -4.276,-7.16849 -6.62491,-10.62302 -2.56993,-3.50865 -5.5949,-6.60764 -9.09929,-9.20327 -4.02915,-2.77592 -8.19533,-5.37471 -12.6594,-7.40104 -4.09934,-1.92947 -8.33144,-3.57187 -12.62428,-5.01999 -4.05924,-1.23558 -8.21388,-2.08979 -12.27449,-3.32183 -2.92582,-1.06144 -5.82515,-2.41528 -8.9717,-2.63427 -0.6528,0 -0.6528,-0.92319 0,-0.92319 z"
       inkscape:connector-curvature="0" />
    <path
       style="fill:#0000ff;stroke:#0000ff;stroke-width:3.47952747;stroke-linecap:round;stroke-linejoin:bevel;stroke-miterlimit:4;stroke-opacity:1;stroke-dasharray:none;stroke-dashoffset:0"
       id="path7356"
       d="m 621.71619,432.15226 c 4.71107,-3.16608 9.58149,-6.08139 14.3405,-9.17463 8.1057,-5.03397 15.76423,-10.70631 23.32979,-16.50564 8.68779,-6.72706 17.55701,-13.21303 26.29764,-19.87088 6.53126,-4.94043 12.96704,-10.01416 19.29054,-15.2185 5.50448,-4.39707 10.88259,-8.9453 16.15886,-13.61349 4.39778,-3.95317 9.02544,-7.63944 13.91383,-10.96631 4.49933,-2.98665 9.08964,-5.83049 13.59055,-8.81652 2.99185,-1.95446 5.98628,-3.91117 9.1003,-5.66729 1.09805,-0.54191 2.16907,-1.1213 3.1744,-1.82153 0.13489,-0.0976 0.26842,-0.19725 0.39741,-0.3025 -6.4e-4,0.25512 0.13198,0.5482 -0.002,0.76535 -0.15678,0.25423 -3.1916,-0.44258 -3.53814,-0.54149 -2.56597,-0.73123 -5.09071,-1.58743 -7.5318,-2.66543 -3.29824,-1.58842 -6.5364,-3.29842 -9.79456,-4.96691 -3.58799,-1.62471 -6.89106,-3.62423 -9.64454,-6.45233 -2.19589,-2.68372 -4.17841,-5.53143 -6.52387,-8.08861 -2.98977,-2.90983 -6.3737,-5.36364 -9.68026,-7.89245 -3.67918,-2.7521 -7.38365,-5.47061 -11.0468,-8.2441 -3.6171,-2.95072 -7.33543,-5.76381 -11.0925,-8.53165 -3.70881,-2.55553 -7.18271,-5.42609 -10.6788,-8.25977 -3.18004,-2.76721 -6.13035,-5.77845 -9.30462,-8.5516 -3.29928,-2.71097 -6.81474,-5.13132 -10.22647,-7.69445 -2.95423,-2.4267 -5.85392,-4.91452 -8.6621,-7.50872 -2.63222,-2.28133 -5.42181,-4.41412 -8.41526,-6.19994 -2.72487,-1.60557 -5.70645,-2.71624 -8.62138,-3.92256 -2.2561,-0.74826 -4.32295,-1.91859 -6.48026,-2.88678 -1.67255,-0.75526 -3.31121,-1.557 -4.91038,-2.4556 -0.9372,-0.43502 -1.73697,-0.98146 -2.28208,-1.86873 -0.19005,-0.29874 -0.21484,-0.59389 -0.20732,-0.93743 0.0131,-0.42299 0.0182,-0.8462 0.024,-1.26935 0.002,-0.1031 0.003,-0.2062 0.004,-0.3093 0.005,-0.65278 0.9279,-0.6461 0.92317,0.007 l 0,0 c -10e-4,0.10515 -0.002,0.2103 -0.004,0.31545 -0.006,0.4258 -0.0111,0.85167 -0.0242,1.27731 -0.005,0.19572 -0.0303,0.26241 0.0743,0.43888 0.45055,0.76209 1.15827,1.16451 1.9444,1.54167 1.57507,0.8852 3.18897,1.67478 4.83674,2.41844 2.14766,0.96762 4.20796,2.12866 6.45467,2.87574 2.95641,1.22373 5.97948,2.35216 8.74198,3.98315 3.04533,1.82355 5.89106,3.98612 8.56807,6.31426 2.78514,2.57316 5.66137,5.04026 8.59016,7.44872 3.42987,2.57676 6.96455,5.00948 10.27943,7.7374 3.16499,2.76651 6.11025,5.76625 9.27846,8.52957 3.48499,2.82481 6.94772,5.68653 10.64506,8.23369 3.76029,2.77026 7.48218,5.58539 11.10221,8.53891 3.66423,2.77452 7.37011,5.49361 11.05035,8.24679 3.34949,2.5617 6.77757,5.04784 9.80012,8.00213 2.33668,2.55327 4.32716,5.38265 6.50556,8.06919 2.67513,2.76392 5.91195,4.68569 9.40295,6.27367 3.24256,1.66051 6.46544,3.36183 9.74709,4.94429 2.40159,1.06323 4.88833,1.9013 7.41321,2.62241 0.72133,0.20835 1.47421,0.44372 2.22834,0.50899 0.34792,0.0301 0.75401,-0.19231 1.04767,-0.003 0.29133,0.18751 0.47293,0.50643 0.70939,0.75965 -0.17206,0.17386 -0.37078,0.31698 -0.57013,0.45843 -1.02961,0.71598 -2.12357,1.31498 -3.2485,1.86804 -3.09558,1.74333 -6.06903,3.69179 -9.04318,5.63231 -4.49793,2.98406 -9.08501,5.8263 -13.58163,8.81053 -4.85725,3.30323 -9.45207,6.96829 -13.82139,10.89443 -5.28458,4.67537 -10.67092,9.23092 -16.18394,13.6349 -6.33262,5.21149 -12.77723,10.29273 -19.31778,15.24007 -8.73989,6.65728 -17.60832,13.14275 -26.29541,19.86918 -7.58458,5.81378 -15.26264,11.49996 -23.38833,16.547 -4.75608,3.09117 -9.62319,6.00499 -14.3315,9.16872 -0.54316,0.3621 -1.05526,-0.40604 -0.5121,-0.76815 z"
       inkscape:connector-curvature="0" />
    <path
       style="fill:#0000ff;fill-opacity:1;fill-rule:nonzero;stroke:#0000ff;stroke-width:3.47952747;stroke-linecap:round;stroke-linejoin:bevel;stroke-miterlimit:4;stroke-opacity:1;stroke-dasharray:none;stroke-dashoffset:0"
       id="path7358"
       d="m 760.45348,265.60292 c 0.84903,6.55819 -2.49938,12.8116 -5.53662,18.38071 -2.94657,4.3204 -7.0899,11.14645 -12.01987,13.46037 -0.63516,0.29812 -1.35328,0.37124 -2.02992,0.55686 -0.63024,-0.14949 -1.32239,-0.13774 -1.89071,-0.44848 -2.85653,-1.56185 -3.42934,-5.67518 -3.28806,-8.54692 0.0428,-0.86932 0.23856,-1.72432 0.35784,-2.58648 0.66118,-2.38989 1.56233,-5.97829 4.38784,-6.75696 1.6235,-0.44742 2.29984,0.20331 3.74332,0.86109 0.66031,0.51637 1.36508,0.98045 1.98093,1.54911 2.39016,2.20703 4.29461,4.96717 6.21877,7.56541 2.74381,3.7279 1.39482,1.90317 4.04606,5.47482 1.68094,2.24082 3.39658,4.45521 5.12909,6.65627 0.40376,0.51296 -0.32167,1.08396 -0.72543,0.571 l 0,0 c -1.73788,-2.20791 -3.45884,-4.42919 -5.14494,-6.67701 -2.65241,-3.57324 -1.30375,-1.74893 -4.04513,-5.47356 -1.8781,-2.53668 -3.73434,-5.22106 -6.05036,-7.39224 -0.56237,-0.5272 -1.20556,-0.96097 -1.80833,-1.44145 -0.99511,-0.50727 -1.71996,-1.14297 -2.90153,-0.88318 -2.5547,0.5617 -3.3171,4.02708 -3.91615,6.07568 -0.11644,0.80851 -0.30444,1.60992 -0.34934,2.42554 -0.13663,2.48226 0.25046,6.17008 2.60673,7.68778 0.41578,0.2678 0.94322,0.29779 1.41483,0.44668 0.58811,-0.14664 1.21402,-0.18586 1.76431,-0.43992 4.77852,-2.20614 8.85494,-8.96263 11.70973,-13.12677 2.92505,-5.35267 6.1886,-11.37501 5.45927,-17.68473 -0.17934,-0.62768 0.70833,-0.8813 0.88767,-0.25362 z"
       inkscape:connector-curvature="0" />
    <path
       style="fill:#0000ff;fill-opacity:1;fill-rule:nonzero;stroke:#0000ff;stroke-width:3.47952747;stroke-linecap:round;stroke-linejoin:bevel;stroke-miterlimit:4;stroke-opacity:1;stroke-dasharray:none;stroke-dashoffset:0"
       id="path7360"
       d="m 781.4893,276.7792 c -3.56259,2.1872 -6.74838,4.93317 -9.51323,8.05778 -1.5975,2.1758 -3.28205,4.97217 -1.53396,7.57064 0.32347,0.48083 0.76271,0.8727 1.14407,1.30905 3.04284,2.68404 6.72483,4.47502 10.11952,6.66063 1.15892,0.72107 2.33378,1.41382 3.48923,2.14032 0.5526,0.34753 0.0611,1.12902 -0.49148,0.78149 l 0,0 c -1.15809,-0.7285 -2.33637,-1.422 -3.49758,-2.14563 -3.46863,-2.23418 -7.24083,-4.05549 -10.32116,-6.83662 -0.42783,-0.5094 -0.92934,-0.96508 -1.28349,-1.5282 -1.86885,-2.97155 -0.16284,-6.0906 1.68403,-8.5641 2.84825,-3.20711 6.1175,-6.03789 9.79118,-8.27109 0.58388,-0.29193 0.99674,0.5338 0.41287,0.82573 z"
       inkscape:connector-curvature="0" />
    <path
       style="fill:#0000ff;fill-opacity:1;fill-rule:nonzero;stroke:#0000ff;stroke-width:3.47952747;stroke-linecap:round;stroke-linejoin:bevel;stroke-miterlimit:4;stroke-opacity:1;stroke-dasharray:none;stroke-dashoffset:0"
       id="path7362"
       d="m 805.13994,287.33043 c -3.47627,-1.21143 -5.21909,0.92823 -6.77246,3.74971 -1.2739,3.08413 -1.67455,6.91325 0.85754,9.53417 0.40724,0.42153 0.94291,0.69644 1.41437,1.04465 0.57371,0.1613 1.12767,0.42954 1.72114,0.4839 3.03455,0.27795 5.65363,-1.83109 7.07865,-4.32221 0.42859,-0.74923 0.6891,-1.58281 1.03365,-2.37422 0.082,-0.81544 0.30332,-1.62876 0.24606,-2.44631 -0.25379,-3.62363 -3.19166,-6.42 -6.26403,-7.9495 -0.76009,-0.37839 -1.59597,-0.58007 -2.39396,-0.87011 -0.61258,-0.22559 -0.29355,-1.09191 0.31903,-0.86632 l 0,0 c 0.85756,0.31964 1.75585,0.54614 2.57267,0.95891 3.38717,1.71166 6.47435,4.8352 6.684,8.82743 0.0478,0.91103 -0.21266,1.81215 -0.31899,2.71822 -0.37938,0.85117 -0.66612,1.75002 -1.13816,2.55352 -1.64679,2.80315 -4.66721,5.07258 -8.08338,4.65509 -0.69885,-0.0854 -1.34333,-0.42211 -2.015,-0.63317 -0.53907,-0.41915 -1.15135,-0.7582 -1.61721,-1.25746 -2.72763,-2.92318 -2.32747,-7.10898 -0.90247,-10.50661 1.89604,-3.35393 3.76303,-5.4866 7.87049,-4.17551 0.6193,0.20643 0.32736,1.08225 -0.29194,0.87582 z"
       inkscape:connector-curvature="0" />
    <path
       style="fill:#0000ff;fill-opacity:1;fill-rule:nonzero;stroke:#ff0000;stroke-width:3.47952747;stroke-linecap:round;stroke-linejoin:bevel;stroke-miterlimit:4;stroke-opacity:1;stroke-dasharray:none;stroke-dashoffset:0"
       id="path7364"
       d="m 629.57376,231.02429 c 2.45092,2.09618 5.24546,3.6254 8.17237,4.93774 3.20779,1.31883 6.66869,1.55713 10.09134,1.71801 3.08154,0.20094 6.13393,0.0698 9.09251,-0.84133 2.47282,-0.90565 4.93934,-1.81896 7.45007,-2.61786 2.36665,-0.6402 4.71763,-1.30209 7.13337,-1.73271 1.69742,-0.28214 3.4209,-0.30146 5.1368,-0.31746 1.95632,-0.006 3.91266,0.003 5.86899,0.007 1.50585,0.003 3.01171,0.005 4.51756,0.005 1.09993,0.042 2.21465,-0.11096 3.29459,0.12342 1.05057,0.289 2.05324,0.68059 3.02976,1.16174 0.91815,0.27984 1.78829,0.66831 2.69534,0.98063 1.01337,0.18045 1.89676,0.67914 2.83323,1.07383 0.8046,0.57842 1.75559,0.83935 2.63207,1.26239 0.86463,0.35589 1.66364,0.80165 2.41989,1.3489 0.71093,0.32483 1.38517,0.74993 1.94766,1.29488 0.86901,0.81001 1.61688,1.77677 2.29316,2.75312 1.0879,1.19418 1.73097,2.68566 2.46632,4.10276 0.84774,1.47961 1.46272,3.06345 2.11178,4.63385 0.64797,1.77666 1.16247,3.6083 1.63434,5.44066 0.36098,2.04202 0.65904,4.09056 1.0137,6.136 0.22092,2.08042 0.74442,4.10339 1.05726,6.16953 0.30943,2.19888 0.35498,4.42063 0.38884,6.6371 0.0217,2.36724 0.0143,4.73463 0.0113,7.10193 0.01,2.38482 0.44996,4.74455 0.66191,7.11901 0.22555,3.07877 0.23377,6.16806 0.25383,9.25341 0.0126,2.76329 0.008,5.52661 0.006,8.28992 -0.002,2.81604 -0.003,5.63209 -0.004,8.44813 -3.4e-4,2.70936 -3.2e-4,5.41873 -3.1e-4,8.12809 -0.0376,2.55535 0.43257,5.0816 0.6671,7.62076 0.18549,2.13291 0.23107,4.27391 0.25445,6.4136 -0.12262,2.2077 0.12995,4.37262 0.41961,6.55433 0.20262,2.63832 0.53106,5.2532 0.88887,7.87431 0.40809,2.54072 0.33752,5.12341 0.62264,7.67313 0.34201,2.40605 0.59968,4.82069 0.7423,7.24655 0.0971,2.18198 0.10097,4.36664 0.10479,6.55034 1.4e-4,2.03353 -0.003,4.06705 -0.005,6.10058 -10e-4,1.96797 -0.002,3.93595 -0.002,5.90393 -0.0293,1.64651 0.0892,3.29692 -0.11424,4.93321 -0.32248,2.07854 -0.53746,4.16076 -0.97822,6.21834 -0.57197,1.65802 -1.17016,3.30549 -2.04669,4.82896 -1.02893,1.5754 -2.10908,3.1084 -3.29943,4.56655 -1.03003,1.27703 -1.92707,2.68187 -3.0736,3.85982 -0.89939,1.01346 -1.92471,1.89813 -2.97234,2.75492 -1.09122,1.01601 -2.43289,1.6552 -3.7858,2.24093 -1.32056,0.52995 -2.59796,1.15801 -3.88453,1.76395 -1.36867,0.51017 -2.77402,0.91047 -4.16913,1.34561 -1.44166,0.42722 -2.85467,0.91861 -4.33282,1.21743 -1.31578,0.23038 -2.65159,0.26795 -3.98374,0.2878 -1.51639,0.009 -3.03286,0.002 -4.54927,-0.001 -1.7608,-0.0265 -3.49008,0.40787 -5.22625,0.65981 -1.37147,0.36151 -2.72629,0.77359 -4.12718,1.00674 -1.27346,0.21477 -2.55087,0.56167 -3.78996,0.94231 -1.44413,0.41395 -2.78802,1.03139 -4.1051,1.74067 -1.56403,0.93587 -3.15618,1.82837 -4.7842,2.64868 -1.81852,0.94642 -3.63892,1.89314 -5.48719,2.78091 -1.89504,0.89999 -3.71254,1.93614 -5.5092,3.0171 -2.01137,1.19164 -4.20157,2.01988 -6.41312,2.75229 -2.54432,0.6854 -5.17156,0.94517 -7.7387,1.54131 -2.55512,0.65538 -5.09222,1.3909 -7.61638,2.16064 -2.00159,0.48448 -3.98138,0.997 -5.88502,1.79087 -1.43096,0.52261 -2.88998,0.91966 -4.32326,1.44205 -0.96484,0.2135 -1.85193,0.59194 -2.7107,1.07199 -0.47592,0.21376 -0.98221,0.3512 -1.49652,0.43292 -0.64489,0.10129 -0.78813,-0.81073 -0.14324,-0.91201 l 0,0 c 0.40736,-0.063 0.8078,-0.17184 1.18983,-0.32705 0.90053,-0.50188 1.83386,-0.9086 2.8445,-1.13323 1.42012,-0.51757 2.86532,-0.91428 4.28444,-1.4269 1.93223,-0.80374 3.93849,-1.33444 5.97069,-1.82169 2.5442,-0.77585 5.10169,-1.5166 7.67721,-2.17694 2.54033,-0.58771 5.13699,-0.85575 7.65744,-1.51852 2.14748,-0.70831 4.2734,-1.51288 6.22701,-2.66686 1.82172,-1.09528 3.66467,-2.1454 5.58552,-3.05825 1.84352,-0.88429 3.65801,-1.82998 5.47163,-2.77326 1.62115,-0.81509 3.20406,-1.70668 4.76154,-2.63687 1.37078,-0.73819 2.77222,-1.37782 4.27371,-1.81095 1.27973,-0.38713 2.59442,-0.7477 3.90846,-0.97003 1.40763,-0.23113 2.76359,-0.66384 4.14534,-1.00956 1.78057,-0.25785 3.55376,-0.70158 5.36037,-0.66936 1.5113,0.003 3.02264,0.0105 4.53392,10e-4 1.27562,-0.0188 2.55482,-0.0525 3.81529,-0.26976 1.44737,-0.28984 2.82832,-0.77782 4.24007,-1.19371 1.35487,-0.42254 2.71845,-0.814 4.05096,-1.29963 1.29596,-0.60918 2.58199,-1.24226 3.91162,-1.77616 1.27618,-0.54945 2.54105,-1.14757 3.56734,-2.10803 1.02204,-0.83569 2.02349,-1.69621 2.89825,-2.68729 1.13753,-1.14491 1.99371,-2.55335 3.0171,-3.79679 1.15985,-1.41925 2.2106,-2.91239 3.21515,-4.44453 0.83485,-1.43711 1.38463,-2.99989 1.94328,-4.56045 0.43581,-2.03232 0.64496,-4.08952 0.96525,-6.14249 0.21239,-1.5946 0.0634,-3.21017 0.10672,-4.81568 1.9e-4,-1.9682 4.8e-4,-3.9364 0.002,-5.90459 0.002,-2.03274 0.005,-4.06547 0.005,-6.09821 -0.004,-2.1662 -0.007,-4.33333 -0.10321,-6.49785 -0.14132,-2.41003 -0.39893,-4.80868 -0.73828,-7.19904 -0.279,-2.54288 -0.22029,-5.116 -0.61977,-7.64989 -0.35791,-2.62213 -0.68722,-5.23832 -0.88932,-7.87767 -0.29449,-2.2182 -0.54883,-4.42152 -0.42757,-6.66575 -0.0231,-2.11473 -0.0676,-4.23078 -0.25061,-6.33883 -0.23679,-2.56734 -0.71235,-5.12154 -0.67101,-7.70561 0,-2.70941 -3e-5,-5.41882 3.2e-4,-8.12823 4.4e-4,-2.81625 0.001,-5.6325 0.004,-8.44875 0.002,-2.76105 0.007,-5.52213 -0.006,-8.28316 -0.0199,-3.05998 -0.0277,-6.12387 -0.2502,-9.17739 -0.21407,-2.40206 -0.6604,-4.78904 -0.66555,-7.2022 0.003,-2.36222 0.0104,-4.72452 -0.0112,-7.08667 -0.0331,-2.175 -0.0763,-4.35529 -0.37858,-6.51321 -0.31081,-2.05952 -0.83488,-4.07597 -1.05406,-6.14982 -0.35034,-2.02113 -0.64801,-4.04497 -0.99817,-6.06375 -0.45996,-1.79108 -0.964,-3.58078 -1.59356,-5.31828 -0.63775,-1.54621 -1.24265,-3.10516 -2.07798,-4.56112 -0.71758,-1.38416 -1.34175,-2.83972 -2.40699,-4.00399 -0.64092,-0.93559 -1.36072,-1.85724 -2.19098,-2.62939 -0.49251,-0.54339 -1.19625,-0.85522 -1.83132,-1.19484 -0.71483,-0.51864 -1.47004,-0.93358 -2.28883,-1.26963 -0.8444,-0.43569 -1.80552,-0.64981 -2.5804,-1.2387 -0.91982,-0.38863 -1.77929,-0.88017 -2.7772,-1.0523 -0.94254,-0.32988 -1.84828,-0.7227 -2.80076,-1.02473 -0.91522,-0.45177 -1.85223,-0.81985 -2.83701,-1.09205 -0.98572,-0.2735 -2.06815,-4.6e-4 -3.07939,-0.0979 -1.50642,-6.3e-4 -3.01285,-0.002 -4.51927,-0.005 -1.95277,-0.004 -3.90556,-0.0128 -5.85833,-0.007 -1.6645,0.0154 -3.33658,0.0317 -4.98349,0.3032 -2.37596,0.42282 -4.68737,1.0759 -7.01541,1.70358 -2.51423,0.79944 -4.98276,1.717 -7.4599,2.62093 -3.06364,0.93096 -6.21603,1.09581 -9.40598,0.88067 -3.53842,-0.16721 -7.11301,-0.426 -10.42588,-1.79792 -3.02751,-1.36002 -5.91999,-2.94745 -8.44716,-5.12721 -0.4616,-0.46159 0.1912,-1.11439 0.65279,-0.65279 z"
       inkscape:connector-curvature="0" />
    <path
       style="fill:#0000ff;fill-opacity:1;fill-rule:nonzero;stroke:#ff0000;stroke-width:3.47952747;stroke-linecap:round;stroke-linejoin:bevel;stroke-miterlimit:4;stroke-opacity:1;stroke-dasharray:none;stroke-dashoffset:0"
       id="path7366"
       d="m 763.82645,380.17126 c -1.77367,4.62854 -5.77498,7.72727 -9.75259,10.40125 -3.89552,2.03046 -8.42311,4.29687 -12.98945,3.75621 -0.55399,-0.0656 -1.07939,-0.2824 -1.61908,-0.4236 -0.37408,-0.2434 -0.81369,-0.40775 -1.12223,-0.7302 -2.64998,-2.76939 3.2107,-4.32248 4.68879,-4.71703 4.84421,-0.64333 9.7295,0.54196 13.49268,3.76145 0.73224,0.62645 1.33649,1.38859 2.00474,2.08289 2.72065,3.56711 4.05957,7.90609 5.00771,12.23404 0.38726,1.36299 0.1882,0.73532 0.58218,1.88771 0.21071,0.61785 -0.66306,0.91584 -0.87378,0.29798 l 0,0 c -0.41391,-1.21656 -0.20537,-0.55537 -0.61026,-1.98835 -0.90966,-4.16224 -2.18379,-8.34515 -4.77286,-11.79312 -0.62382,-0.65595 -1.1867,-1.37579 -1.87144,-1.96786 -3.53731,-3.05858 -8.14614,-4.20137 -12.72351,-3.62207 -0.59015,0.15366 -5.88618,1.3463 -4.40642,3.06007 0.22644,0.26225 0.56418,0.40236 0.84627,0.60354 0.46098,0.13046 0.90754,0.33205 1.38293,0.39138 4.37756,0.54631 8.73227,-1.67188 12.46932,-3.59964 3.77865,-2.53086 7.57209,-5.44466 9.35636,-9.78642 0.10732,-0.64392 1.01796,-0.49214 0.91064,0.15177 z"
       inkscape:connector-curvature="0" />
    <path
       style="fill:#0000ff;fill-opacity:1;fill-rule:nonzero;stroke:#ff0000;stroke-width:3.47952747;stroke-linecap:round;stroke-linejoin:bevel;stroke-miterlimit:4;stroke-opacity:1;stroke-dasharray:none;stroke-dashoffset:0"
       id="path7368"
       d="m 773.61332,377.36343 c 4.21077,1.20927 8.16413,3.09564 12.07371,5.03964 3.57658,1.78108 7.49185,3.60462 10.04774,6.80959 0.42968,0.5388 0.76391,1.14723 1.14586,1.72084 0.21043,0.65707 0.53892,1.28748 0.63129,1.97122 0.5792,4.287 -3.08511,8.70109 -5.44286,11.89146 -1.71881,2.29667 -3.61679,4.45677 -5.77991,6.34106 -0.49276,0.42817 -1.09828,-0.26871 -0.60552,-0.69687 l 0,0 c 2.11695,-1.83454 3.96096,-3.95456 5.64308,-6.193 2.13819,-2.8911 5.74548,-7.17753 5.30354,-11.06891 -0.0682,-0.60008 -0.34642,-1.15712 -0.51963,-1.73568 -0.35009,-0.53323 -0.65547,-1.09867 -1.05027,-1.59969 -2.46754,-3.13139 -6.318,-4.87365 -9.78439,-6.6134 -3.85896,-1.91919 -7.75998,-3.78416 -11.91626,-4.97859 -0.62768,-0.17933 -0.37406,-1.06701 0.25362,-0.88767 z"
       inkscape:connector-curvature="0" />
    <path
       style="fill:#0000ff;fill-opacity:1;fill-rule:nonzero;stroke:#ff0000;stroke-width:3.47952747;stroke-linecap:round;stroke-linejoin:bevel;stroke-miterlimit:4;stroke-opacity:1;stroke-dasharray:none;stroke-dashoffset:0"
       id="path7370"
       d="m 830.06618,386.1122 c -2.45408,-0.77793 -5.20626,-0.2803 -6.98577,1.69836 -0.44385,0.49353 -0.74861,1.09632 -1.12292,1.64448 -1.40712,3.05392 -2.66528,7.52911 -0.0466,10.39139 0.41535,0.45398 1.00935,0.70405 1.51403,1.05607 0.6315,0.1121 1.25347,0.35725 1.8945,0.33631 4.79441,-0.15668 7.35881,-5.39978 9.10257,-9.08294 0.47657,-1.8622 1.19795,-4.24614 0.0207,-6.05578 -0.18914,-0.29075 -0.5584,-0.4116 -0.8376,-0.6174 -0.49964,-0.42012 0.0945,-1.12672 0.59414,-0.7066 l 0,0 c 0.37246,0.34215 0.85534,0.59386 1.11738,1.02644 1.24537,2.05582 0.50456,4.65342 -0.0608,6.74951 -1.9322,4.05314 -4.8165,9.62422 -10.11787,9.59196 -0.7704,-0.005 -1.50495,-0.33058 -2.25742,-0.49587 -0.58998,-0.44713 -1.28355,-0.78334 -1.76994,-1.3414 -2.78871,-3.19969 -1.50669,-8.01171 0.0893,-11.37928 0.43336,-0.6116 0.78868,-1.28679 1.30009,-1.83481 2.02763,-2.17276 5.10928,-2.72241 7.85812,-1.85626 0.6193,0.20644 0.32736,1.08226 -0.29194,0.87582 z"
       inkscape:connector-curvature="0" />
  </g>
</svg>
